<mxfile host="65bd71144e">
    <diagram id="BJYHt7Rq16kfTlJQHD57" name="Page-1">
        <mxGraphModel dx="1118" dy="779" grid="1" gridSize="10" guides="1" tooltips="1" connect="1" arrows="1" fold="1" page="1" pageScale="1" pageWidth="850" pageHeight="1100" math="0" shadow="0">
            <root>
                <mxCell id="0"/>
                <mxCell id="1" parent="0"/>
                <mxCell id="2" value="" style="shape=image;verticalLabelPosition=bottom;labelBackgroundColor=#ffffff;verticalAlign=top;aspect=fixed;imageAspect=0;image=data:image/png,iVBORw0KGgoAAAANSUhEUgAAAu4AAAU2CAYAAADK1zMGAAAAAXNSR0IArs4c6QAAQABJREFUeAHs3QW8FNX7x/GDNCJIgwJigN3+LGz92d0/E7sDuwMDFRX8293dig12YXdgIdIgCNL5f74Ds8zduzGzNbvs57y83o2JM+/Z5T5z5pzn1Hlrwvh5joIAAggggAACCCCAAAJlLbBYWdeOyiGAAAIIIIAAAggggIAnQODOBwEBBBBAAAEEEEAAgQoQIHCvgJNEFRFAAAEEEEAAAQQQIHDnM4AAAggggAACCCCAQAUIELhXwEmiiggggAACCCCAAAIIELjzGUAAAQQQQAABBBBAoAIECNwr4CRRRQQQQAABBBBAAAEE6kGAQLEFRg0d6ga9McB9N+hj9/eo0W78mDFu/OjRbvrUqW7JNm1cy7ZtXct2bd1SXZZ162+9lVtrk01cg0aNil0tto8AAggggAACCFSUQB0mYKqo81UxlR0zbJh75o473UevveaGDh4cqd4K2tfZbDO31V572c+erm7dupHWZ2EEEEAAAQQQWLQF/vr1Vzfs19/cpAkT3MwZ08vyYBs0bOSatWjhOq6wvOu0wgoFqWPZBu6P9O3nHunXz02ZNMk70Fbt27uTrr7Kbb7rrjkf+Ixp09xv33/v3Lx5rnO3FV3T5s1y3laxV3zj8Sfcs3fd5Q4+/XS30fbbFXt3Bdv+uJEj3cPXX+/63/+Amz1rVt7b1Qe9xzlnuy322MMtthg9u/IGZQMFERg7fLgb8vPPdreoneuy0oqubj1uXhYElo0ggAACIQQ+f/ttN2LIkBBLls8iS3Xp4tbdYou8K1SWgbu6Uuy14kq1Dq6Fdal45uefar2e7YVnreX3xfvvd3/aH9q5c+YkFu/Utas77Nxz3Ba77+7q1KmTeL0cHhy83n/csN9+c2tsvJG74aWXyqFKGeswx1zv693bPX7TzW7WjBkZl83lzS4rreTOuulGt/K66+ayOusgkLeAPuP6t+TBPn28Fh5/g7pDtPamm7ozbujnWnfo4L+c92/9O3jittu5aVOmJLa130knuv1PPjnxPNWDD15+xd183nmJ9U6+5mq3pV345lpO2Wknu2v2i7e6ju+Od97O+O/lq4884m6/+JLE7s699Ra3/jbbJJ6ne3D1CSe6j19/PfH2o19/5Ro1aZJ4zgMEEEBAAmpp/+r9973GvG5rreU6Lreca9y0aVniTJs82Q37/Xc3+Kuv3Ny5c72uwPm2vJdlM9GEMWNTnoAJ9ocsSpk8cZLrc9JJ7t0XX/RW04ldeZ11vNaxP3780f31yy+u1+FHuFceethd+dijrl79+lE2X9Rl9Qf66dvvcHsec0xR91OIjf8zbpzn+OV772XcXP0GDVynrit4rZTq09548cWdzrUClNHWtUatmOnKkJ9+cqfsuJNTELLzoYemW4zXESiKwMzp092pu+zqfvzss1rb13uD3njDHb35Fu6S++7zLrZrLZTDCzedc64b+eefNdYMBvE13rAneu/m8853Lz3wQI23ZkzL/Ray/p385sOPEtvTd/27QYPc6htumHgt+cH0qdOclvPLc3ffnTVwnzB2rBvw5JM17tLNsz9yFAQQQCBZQN1jVBS0d11jjeS3y+q54k6/jj998YXXtWeRDNwLpd7r8MPdp2++6Q10PPP//s/rL+13t9CVz5tPP+P6nXGGt8y1p5zqzrnl5kLtOu/tKDithABVH8SLDjk0bdCtvl2bWfemDbfd1q2z+WZesJ4OR3cY1OKmFkNdTSeXWTNnuutO7WnB0+fulGv7uAYNGyYvwnMEiiJwZ6/LEkH74s2a2Z26c70AfdL48e6lBx9ybz3zjFPweeHBB7vHrKU4ufVHXf4GPv20a9iosd3h2801bNw4Yz0/eu1199azz3rL6M6gGhkylR8//9xdcfQxbri17BSyKJhOLgOefCpj4J68/KDX33Aa89K2Y8fktxLP1XhSiK51iQ3yAAEEFlkB9WlXUUu7iv6tvPHsc7x/g70XyuR/LSz5hrp4646n6qp4ya97PlUseafhmdaN4sKDDnbbtmvvtmzR0m3VspU7arPNvVsf+RxI8rpq/VXQrr6nN7zU322zz941+kgrgNdrvR9/zFvmtUcfdT9/+WXyZnieRUDnMlVLuYKbw+12vW53n96vr+u+4w4Zg3btpuPyy7u9jzvO9X3xBXfrwAHuP1ttlXLvLz/0kHvhnntSvseLCBRa4O9Ro9xTt97qbVZ35W585WW317HHeK0o6q940d13ud2PPMJ7X4G8BmUnlxvPOcf1Pe10d9Xxx7v7r+mT/HaN57q1qgYFlWVWXNEd2LNnjfeTn2j5E7fb3gva1eXvgJ6nuk2se0u+ZZ6NBRr41NPeZpZfbVXXYZllvMdv2x/JKEG2GkleevDBtNXRfvpbV0YKAgggEEbAH4jqN5CUY9Cu41Bjjuqm4tfVr7v3Yo7/K3ng/s7zL7j3rc+2Wk9V9I/2r99+6x667rocDyH1ande2st7Y7v993crWfeYdEW3fNXHXUUtSclF3Tjuu+pqd/Y++7rDu2/iTt99D6c/wsm3sLXe5IkT3ZXHHuvuvvxybzNqOb7e/lgfaf1f1TfWL688bF1zbLmfrc+Tgt7H7G7AWXvt7Q7buLubM3u2t9jAp57ylgn2+fTX12/tS4N3L+lxmHfhoy4/T9x8s9MA3OQStl7J64V5for1900emLfNvvu4x7752h185hmuyRJL1NiMWt6+ev8D96a1UCoA/+jV17wLpuR665xd8/RT7rrnn7NUke1qbGPl9dZzOx50UI3XeIJAsQQGf/V1YtO6e7TsKqsknvsPelgLvF8ev/FGy3BQc5zHHz/86L/thvy08HHixcCDu+zfD31PVNRvvn6DzF345syZ643dUYt2X+sWeNRFF9VIp5rr+B11iRn9119ePbbZZx9vgLieqMXo04Fveq+H/d9LDzyY+LcteR01sKT69zR5OZ4jgAACqQQUIJdrKUbdSt7HffzoUSl9ld+7UEV/WHTrWEWtT9mK+k3vf/JJtVqE1V3j3P329/KNaxtqpf/jhx/cF++8Yy2+97oLraVts112SWxeecmVDUZ/2PXH9FELrP3yd+C4v//kU2+5bmuu5V2wTPz7b38x70JGT3764sv521p5Za+bSWIBe/D9J5+4y4480v6ozv/jrr7juvjR7aKX7bb9Jffda5kuFg7uDVuv4D7CPt5kpx3dxffe4y497HBvlROuuMLtcfRRNVZXOsgX7r3PfTJgQNo7Kxrgt2b37m7TnXdy2/3vf4luMEoLeacNhrvksMPctx997F2E9bGAPvmCoMYOeYJAAQWGBAbEp+ub2LxlS9e8VSun7/K///zjRlnf9M7duiVqcchZZ9kF/9kWUDd2+5+UfnCpbqX6F/m7HXG4W22DDdybC4L4xMZSPNh6773dqddeW9BMWcGGjM13283pboL/b9ob1oUmTLYrXcQPeOJJm79hlPvw1Vft+71zrdrr31IVtegrAcEPn35aaxleQAABBBY1AWXFaWcNLsmNn9mOs+SBe7YKFeJ9v59n0+bN3dIL+kBl2q76YesnWNQCfMGBB3lB+67WV36Po470cnCqlfzVhx9xL9ogtGtPPsXyjW9e64/lSDsZT91yi9vd1tnacpG37rCUBaINgpv3Ht931VVuydat3UlX9fYGWWgwVrYTqIuSc/bdz2tx3/OYo70ME22WWsq7TX7rhRdZ//CX3aXW+n73++/V6BqkHYatV62KZnlBf4yvtYuGxk0XdyvaYBG/6EN5zxVX2liCpxMXJP57yb81wO/TgQO9nwesK8EB1j1AgYsultTi3veFF9wbFgCoC4C64VAQKJWA/mH1y4ghf/gPa/ye+u+/XtDuv6jPfjBwV1exjXfYPmM2FnUp6Xv6Gd53Rdlb1HIepiit7QV33hFm0dDLqCuMusSodFtzTS+oVmDdrlMnrxX+w1deceqi49/+TbfhNTbayP36zbd2l+En96JdvCcH7mNHjPDmetD6uxzWw334yqvpNsXrCCCAwCIloJSWilM1BlDJOsKWgnaVUYoe9VdXv3X1X1c/dvWBTr5tHLZyuS43/Pf5f1z9Ppm5bEddZBQYH3tZL2vJ6uO1YCuoXsW6aWiwQTNrYVPL2mDrw51c1MJ96Nlnu1OuucZrMWvfuVOt7h5aRwPUbn7jdafWMrXk6Q99ttvaD/a51gvad+nRwwL+q5yCdhVdoPR68AHvj+wQywTx+mOPe68H/xe2XsF1wj5ea5PuNYL2dyzQ1mdBXX7UHSpKUS74/7MWyjP32DMx2ET22x/wv1oXSVG2y7II5CKwQiBrgbr6Df+jdvCubmvBMvLPocGn3uNs321lg1HKMJXjr7g8rwvU4Hcu+NjbeIj/qSuMP4hKre1+8efRUMPGe/3Dpand1e6WqahLTHLeZd0hVIpejR3Y4cAD/d3wGwEEEKgKAXVlDnbHDHPQBQ3c1U9dXTb8PxTqx67+7PpjV8oydsRwb3etOrTPebcK+jW4cr8TT6wVTKtrykbbbettW5lQUhV/sFqq9/zXtrGAXbfYoxQFwioHnnZardXUOu13U1F6ulQlTL1SrRfltWcsjeUlh/ZwaoXMp3zx7rte8B9MLZfP9lgXgVwEOltWF/VtV9GdoZNsIKjuuP323fde9qM+1vXl4ev71rg4D3Z/C7NPBcl3WeYaFXUPyyfvepj9ZVtmwIJ/Z7Tc5rvNP3Y93mzXhV0DU2Wc0TLJ5b/77ZfIx97/voWDUJUXv/+C1JW6ONDdRwoCCCBQbQK68xilFLSrTLp+6un6tUepaJRlW1lLv0q6fPBRtqVllQ9eA8rUCq+rI6V2++PHn7zNzLW+7MlFfV3DdOfo0KVL8qoZn2u/GuiglvpvPvww5bJ+i5bfXSi4UNh6BdfJ5bEGyekiQrf+g0VdXtTVZe1NN/FSwzW2yVUmWL7n37//wev//tlbbyUu+vz1lE4pyi0kfz1+I1BIgVP6XON++fprbxClvoPX96x54azAc6V11k5MPNRm6fl3wsLW4a7LLvdauHVnSfuKs6gLjLrcqSy/2mo1uhuu8p//eJNM6a6YbvPq38SW1i89U1FXnq2sy+DLlllGA/MPO+9cG3DbwH1sKS/HLfiD5bfKZ9oO7yGAAAKLosCMaVMjHVbowF1dH5TWRoOMVBSYHnDqqaEGf0aqUQEWXnq5Zb2t5JupQNlP7rj00kT+5gJULa9N+EG5blMrK02mMmpo7Vv1mZYv5HsasHre7be5K4851gve9Vk54vzz3U6HHpIYdOrvT2dKLYx7H3eszc442Lx7BYKGVd21zz2bNee1vy1+I1AsAQWnd3/wvrvrssu8FIl+i7pSmG7w3/+6Y3tdmgjaVYf21hc8bBlsFwT9rQVfRelQg33jvRdL/L/3X3o5kZ1K3QE1QD9Y/MxXujB/65lnvdSYwfdTPdZ4FQXuunv2Xv/+bqs99/TuWmhZDaTXDNEUBBBAoBoFGjaONkN06MD9hjPPshbshTOXqvX3zl693PYHHpC1xaXUJ8IfkKosCEq32GbppSNXQZkNzrQ/LhqkpVbitTZRK/HSbokll/QGEzzSt19igpTIG89xBb9bjQJhZY7JVLINcs20biHeU799ldesr73GCCwV4u6CApbLH37IPX/3PV4GivNuuzVyV6JC1J1tIJBKQHd+NK5EP7q1qbtKrdov7I73588/J1bTIM5gUbev22zwuO6WnWiD0YODuJ++7bbEnSZ1NbzYJjQLluBt1NcefcybyXSZFbt5WWSCyxXqsTLG+EVpKf3UlP5rwd/qLqOc9tmKBriuuPbaXupXZZHRWCFlmVKhtT2bHu8jgMCiLOCPVQx7jKED92DQHty4uqNku1UaXL4Uj9VXsoulUdQgzcdvusmd2Lt3xt3qj6Hyiq+58caJOwhP3XqbF7TrFu+Fdy3MwZ5xQ0V+UxcgSpuoi6au9ofQD+SLvNucN6/g3Q/g/Y0ou4Ssldf6H0udt4wF6+pisK3l2/dnQlXrnH4oCJSDgO5wjbEGAJWG9v1TV7Dkf2jVQKCuIyr6niYPjFdXmF+++cZ7/+HrrvcGkntP7H+zZs7yHya2kXgh6YHyqutn2pQpSe8U5qm6AfnHoQH4G27735QbfvfF/m661UHpK9Utz28sSbnwghf1nb7mxJPc1x984G6wwecaC9XIusupDzwFAQQQqEYBZZXpttaakQ49dOAeaatlsPBRF17ozj/gALsde7/NanikNytnqmppUJjuHKgLkLKW+MXvI55qkJgGqH1rk5OUuigrxcrrrmN/+D70cryre0ly0XH8YRcs6s/eNZANI3m5Uj9XoCFntaYri4Rfvvv4Y6dsGo/2u8Epn766HVAQKCcBDbI/YpNN3SybVGmxunXdTa+9at/DdRNVVACqSZP8MR0a0J58x0tdZ3787DNvHQX+wdLFZkdds/vGwZdqPNbYIX8QfLtOHV37zp1d567daixTqCfq+uJ/PzV5nbLbpCqzZ8320rzqPaVp7WE56rMV/Vt683nnew0P6t+uooYR9YGnIIAAAtUmoJm3c8njXtCsMuWErpzJmrxEQfZxW2/jPrdJk5KLJlM6zbJFKNjV1OLdd9wxsUhnuxWt8s4Lzyf+IOu5Bm71OfnkxKAqvVbKcsQFF3i7Uw54TRAVLBowdtL2O1gXn71skqbymsRE3Qg0sYwfFATrrcfqv//oDf+X/DLPEYhdQC0ifmYVfX4vPexw9+ydd3nBtP5dueyIIxPpV9VKvdMhB9eqs1LIHm7jPBQIJwe5h5x1putn/b7T/WhyOL9ocjItd1rf6/2XCvo7mE1mi90XpoFM3onvodfDZpdR6/p2/6vZX37Xww9L3jTPEUAAgaoQUBfi5EaeMAe+yLa46+DVD/yyI4/ybs2esfseXkuVsiKoS8bQX35JzNCnVqw+zzyd6Kqhdfc5/nj3znPPe7P+Kafxf7ba0rulrWwuas3e3lrzX33kES1a0rL6hht6A9ieuvVWu+jYza2+0Yau43LLuz9tYKcGualVcL0tt3Q7HnxQSeuVbWcrrbOON337taecmnLRTpZy76J77k75Hi8iELfAKTYpmC70lQJSXVU0z0ByUQakyx56MJH6MPi+3jv4jNODL5XdY+Wn9+8KqLvPytYPPV3ZYJttvOPU3BC6O6kuM/qOZyvqz650sSrq8x7s659tXd5HAAEEUgno31d18yvHoroVuiyyLe6C0sCx655/zqlFS3jKtKJZPBVwa/CpZv078LSe7g5rNUvus6rBVL2feNwtu8oq3oyImv57kA2mWnm9dV2/l/pbP9Zo6d4KeeJOuPIKd/G997iONmnTtx997F5+6CFrYf/EGzirFvkrH3u0xkVIIfedz7Z2OuSQlC2Fmnyq34svlN1YiXyOlXUXLQF157ju+ee9gZhKZRgs6j6zZvfu7rY3B7pV118/+FZFPR5o/8b5RRMtZZowSoNs17fg3S9hW911Z7Pn9de5I60ro/4doyCAAAJRBRo0bOStoh4QKrqjWYwA2dt4Hv9TnVQ3Fb+uft3z2Kyr89aE8aGmtdxzxZVqZJXxd/r0zz8lAq7elsos1Yyd591+u/vvvvt4q6g/5JXH1M5CsO3++7lzrRVZRbmB97L9JZcWlpLtGdtfrkXZGTRD1Zw5s71WaqWN1B+gbEWp31QnZT2pa3+ky6mo77hmim3Zrm3iPJRT/VLV5YV77vGmdtd7SqfXr/+LNbJzpFqH1xAoFwGlSNQg65FD/vQGoWpgUZh/R8ql/tQDAQQQqGSBj159zY0bNdK7y1dOY/kymSo5ge5Mtm7fwW20/XaZFs36Xl3rb3lJ1qVsgfbLdHbf2kBC/6pBKQl7nH22tbpsnVhd+Xi1jH/LQi1TG2+/vdfi7ffjUevqEJu8SDnW1V9UrTorrL66d1XiZ0lR2jV1Z/n5yy+9rh/agVrPNXhRA7lyLYsvsYQN6urq9Wdv0baNN812mG2pb6aunJT+rdyKjBW0V9IkRbpF3tL8dUF09ZNPeBO6lJsr9UEgnYAyy2hAkSYnUje7evXrp1uU1xFAAAEEiiCgHhTjR4/2YsgmFjMm3wktwi5z2qRiZjX0DP7qKy+TVre11so7I2DoFvecasxKCCCAAAIIIIAAAggUUEBpa/1JKQu42aJuSoNRlUkm30Lgnq8g6yOAAAIIIIAAAgiUVOCvX391w379zSmt98wZ00u677A7U5/2Zi1a2JjE5Z16nBSiELgXQpFtIIAAAggggAACCCBQZIHy67Rd5ANm8wgggAACCCCAAAIIVKIAgXslnjXqjAACCCCAAAIIIFB1AgTuVXfKOWAEEEAAAQQQQACBShQgcK/Es0adEUAAAQQQQAABBKpOgMC96k45B4wAAggggAACCCBQiQIE7pV41qgzAggggAACCCCAQNUJELhX3SnngBFAAAEEEEAAAQQqUYDAvRLPGnVGAAEEEEAAAQQQqDoBAveqO+UcMAIIIIAAAggggEAlChC4V+JZo84IIIAAAggggAACVSdA4F51p5wDRgABBBBAAAEEEKhEAQL3Sjxr1BkBBBBAAAEEEECg6gQI3KvulHPACCCAAAIIIIAAApUoQOBeiWeNOiOAAAIIIIAAAghUnQCBe9Wdcg4YAQQQQAABBBBAoBIF6pVLpefNm+fmzJ7t/cydM8fNnTvX6TX/tz0pl6pSDwQQQAABBBBAAIFFSaBOHVfHfhZbbLHE78Xq1nV169XzfvReOZRYA3cF5rNmzHAzZ8y0gH1WOXhQBwQQQAABBBBAAIFqE7CY1GtEtobjVKVuvfquQcMGrn7Dhl5gn2qZUrwWS+AumJnTp7sZ9jMvDVApDp59IIAAAggggAACCCCQTUANzNPsZ/q0aa5ho0augf3E0Qpf8sB99iw78ClTnLrDUBBAAAEEEEAAAQQQqBQBNThPnzrVeovMcI0XX9zVq1+/pFUvaeCugF0t7RQEEEAAAQQQQAABBCpVQA3QUyZN8lreFcCXqpQkcFfXmGmTJ7tZM2eW6rjYDwIIIIAAAggggAACRRVQg7Ra4Rs3bVqSrjMlSQdJ0F7UzwwbRwABBBBAAAEEEIhJQA3TinVLUYoeuKt7DC3tpTiV7AMBBBBAAAEEEEAgDgEveLeYt9ilqIG7BqLSp73Yp5DtI4AAAggggAACCMQtoJhXsW8xS9ECd69fewmuPIqJw7YRQAABBBBAAAEEEAgroJ4mioGLVYoWuOuqg5SPxTptbBcBBBBAAAEEEECg3AQU+xazt0lRAnddaWhyJQoCCCCAAAIIIIAAAtUk4E0wWqRW96IE7rMsKT0zolbTR5RjRQABBBBAAAEEEJCAYmDFwsUoRQncZ84gX3sxThbbRAABBBBAAAEEECh/gWLFwgUP3NVNZs7s4o6oLf/TRQ0RQAABBBBAAAEEqlVAsXAxBqkWPHCfM3t2tZ4jjhsBBBBAAAEEEEAAAU+gGDExgTsfLgQQQAABBBBAAAEECixQEYE7KSALfNbZHAIIIIAAAggggEDFCRQjJi54i/tcG0lLQQABBBBAAAEEEEAgboF7rrzSffHue7FUoxgxccED92J0xI9Fm50igAACCCCAAAIIVLTAiD+GuF6HH+6uOv4EN3bEiJIeSzFi4oIH7sW4uiipMjtDAAEEEEAAAQQQWKQEPn79dXfCttu5J2+51c2aWZq05cWIiQseuBfj6mKR+uRwMAgggAACCCCAAAIlF5g5fbp7+Prr3ck77FiS7jPFiInrFVytSFO8FryebBCBIgj8PWqUe+LmW9xX77/v/h492jVu0sQtt+qqbocDD3AbbrttEfa46G1y0vjxbpw5LrfKKovewXFECCCAAAKxC4z880+v+4z+Lh9xwfmuzVJLFadORYiJ67w1Yfy8QtZ24t9/F3JzbAuBihF444kn3D1X9nbTJk9OWWf9A3H85Ze5Zi1bpnw/7hfVAjH0l1+8ajz5/XeufsOGRanSiCFD3PHb/Nfb9jqbbeYuuufuxH4+e+std9UJJ7rZdhtziz12d6f26ZN4Tw8yrVtjwTyflGo/eVaT1RFAAAEEUgj89euvbvRff7lxI0e6F+69z434448US81/qUGjRm6f4493ux95hKvfoEHa5XJ9o3mrVrmumnK9wre4p9wNLyKwaAt8MmCgu/m8872DXLN7d7fLYT1clxVXdP+MG2e34951T1mfOvWvmzZlirvkvntdnTp1Fm2QHI/utcce84J2rf7Oc8+7I84/3y2x5JI5bo3VEEAAAQSqRWDITz+5N595xn306muRBqH63WfefPppd9TFF7t1Ntu0rMkI3Mv69FC5ShBQ146bzjvPq6qu2Hucc06i2q07dHArrL662/C/27qz9t7bff3BB+7lBx9yOx1ycGIZHiwUWGW99dynA9/0Xui0wgoE7QtpyvrRlH//dU/fdrtXx/adO7tt99u3rOtL5RBAYNERUBfVh6673r393HMunz7l6j6j4H3lddZ2jZs2LVsgAveyPTVUrFIE3n2xv1PwvtSyy7qDTj89ZbU7d+vqDuh5qrvniivdi/ffR+CeUsm5nQ891C3Zuo3TP6AEf2mQyvDlqf9Ods/cPj9wX33DDTl3ZXiOqBICi6LAJwMHuut7nuamT51a4/CaNm/uuq6xumttfde//fhjN+rPoTXeT37Sdc01vTu8K1nQXu6FwL3czxD1K3uB3777zqvjmt03dvXq109b33W32MIL3PUPiPrBl/MVfdqDKPIb6l+4pfVtpyCAAAIIIJBJ4Pm773H3XXVVjVb2Df67jSWDONCpAaFuvfkh7uVHHZ02cG/dob07+Mwz3Wa77FIxXVgJ3DN9KngPgRACkydN9JbqYF0EMpX2nTol3v534kQC94QGDxBAAAEEEAgvMPCpp9y9vXsnVmi/TGd3kj1fdf31E69letCwcWO317HHuN2OOMI1tMGplVQI3CvpbFHXyhYogwGpGhw7Zvhw16pdO6dbifkW9SccNXSodxGyZIFHzudbN3991XHC2LHu33/+cW3ttmm+dzo0oYYGHU+aMMHpYqyRpfwsZpk8aZIbZ7P9qfVo6eWWc4stln76jUKcjzmzZ7vRw4Z5rU9KkZbpLlKhj1sZIObMmePadexY6E3X2t7YEbav2bNcW9tXJtNaKya9UOg6e+fbHJq1aOFatm2btLeFT73P9ZgxbvLESa5dp45OgUgxSqG/P1E+z8U4HrZZ+QI/f/mlu/WiixMHomD97Jtv8r4ziRfTPFBiiC333NO6tZ6W8fuVZvWyeJnAvSxOA5VAoHgCCjIf6dfP/fT5F04psvSHWKXj8su77Q84wO148EGRAhcFds/eeZf76oP33e/ffe+mLkh/2cKCDOVe327//d3622yd0wHpH2Slg1TZbJed3WHnnpvTdhT8DbIsPi/ed7/79dtva8yS19zSca624QbuwNNOc0t16RJ6++re9HDfft4AqMl2x8Qv7Sx433b//SyV2JGubt26/suRfn/x7nvuxgWDmg854wz7w7KHe69/f+s3fof748cfE9t66PPPal1wFeJ8zJ41yw20QVn977/f0qYNsYB2trdP/ZHT2I0dDzrIbbPvPrVapg7buLu33Fzz9suPn3/u/Nf12mr2R/X0fn39t2v81n5euPde98U77zplhNDFlUoTGxjWZeWVvdvde1urWCFSk+oz0d8+D5+/847744cfEvtS9yx9Drbeey+3gx1ntnRwhahzqvP99Ycfuoeuvc798s03CaOWdoG959FHeWM//Be9gcC33uYGWIujxtb4RZ/DfU843m2111553/LP9/uT6vjCfp794+E3AqkE9Nn8v7PPSWQfW9b+5lx0912hLlwV4B9x/nne3Cqptl0prxG4V8qZop4I5CDw0xdfuqtPPNFNsJa55DLst9/cXZdd5j4ZMMCdd/ttyW+nfK6W2OtO7ekGf/VVrfe1j8/18/bb3uDbHmefHTngUgDp13XKpH9r7SPMCwpsLj3s8JR11PoTLdj54OVXLD3nG5YB6Gy3S48eWTereumCQlmBkotyBT/Y51ovBdkl99/nmjZrlrxI1uezZsxIHPf0aVMtQ8J17ikLzrKVQpwPZWS44MCDvAHByfvTRd7w3393d/bq5QXYvR971CmYVPFbfJPXCZ5DvecH48nLaQBy39PPSHmedDH4w6efej8fvfqqO80Cf6VXzbWMtTsWfU873f3w2We1NqGpz/8cPNibg+Ely/h0et/rXbe11qq1nF4oVJ2Tz/fvdiFxxdHHOKWlC5bxNonbXZdd7nRhtOvhh3t3t/TZVj2Siz6HN55zrvvyvffcGTfckPx26OeF+P4kH1/Yz3PoSrJg1QoMfPIp798kASxu/9aed9utWYP2Dsss48655eZFZhJEAveq/fhz4PkKKPBT+qkfPp0fDKh1930LCNMVv6Vb71/fs6fXF2/vY4/Nu+tGuv0pSLno4EOcAikVtWKuuckm3kj7uXPmusFff+W++fAj981HH7k7Lu3l1AUkU1GwcMbuezj9YVfRoJ4Nt93OLbvySm6Kdef45ZtvLSB+2dvOSw88aEHGX+7Cu+7MtMmCv6djCAbtOuaV1lnHrbj2Wq7t0h3d2JEj3KA3BjgNKFbL6b29r7L31nbdLKNAujLbllNApKB9uVVXcaus9x+7W7Gc113m+08+9TIWaF217D/St6872vIA51N+/Oxzr7Vd21A6Ue2zVbv21iViYmKwld4rxPlQJobLLWD0A8FOXVfw7pgoFec/Npne95984r60uwEKfBUYXnRoD9f3+ee8CzK1xv/vlJNVFe8z8cI993qP1fVk67329B7rf0oPmVyG22Qop++2eyIThP4Ar7Hxxm6F1Va1Y6zvnR99LjWhnyYFO2OPPd2VjzycNqBO3n7wuep92q67JT63jRZf3K1p++q21pqugU0yNuy33917L77o3TnSsgqg+zz7jH1elg5uxhWrzpph+cpjjtWVkNvKbuErfey/E/+xuxDvuJ+/nH+BfN9VV3tdenQxp3Olu2XrbbmlU79eddX5+LXX7Th+8+r7/ksvu8123dWtv3X0u17F+P6E/TzXwOYJAikE9Df0CesS45e9jzs21Iynmhl1USoE7ovS2eRYSiagWVL9CZf8nSq40U+YopZw/Xz1/vvuGrvl7Y9+D7Nu2GUeuKZPImjvstJK7lxrmUjuO6w/9goalLs2W3nAWpX9oF0j8I/tdalrssQSNVbb6ZBD3DUnneTUUqiWd93+V5BUqvKN7c+/G7BMt25OLeAt2rSpsft9TzjBPXjttV7ecbVk3n/1Ne4KCwrTFW1T5+foSy72shUkT5716qOPutsuvMhb/dWHH/G6NUTpgpO833ctiFS/ed0N2Na6HaXrf12I8zHojTe8biOqg2ax1Z2XYJ/2zS0AVIt5z1129QLEYdbV6nPr1rLhtvNnvt3PzrWK+ov7gbs+Y/7r3psp/qdMEH76NgWqZ998s/0B7lBjSXUDufaUU70LS82ke/cVV7irn3yyxjJhntxn59f/3Ha0CxK10CWfn4PPPMP1tZRy6kajOzL97E7AlXZ3IViKVWdNzqZuLtc++6xT2li/7Gd3yh694f/c4zfe6F0MX3X8Cd5b6t6mQCTYpUfL6k6YJnlTUZegXAL3Ynx/wn6evYrzPwQyCPzy9df279AobwnNRqq/N9VY0o9yqkYNjhmBkALqe1yI8pv1Ef/6gw8Lsaka21AA8tMXX3ivLWGD3NTFITlo15tqubvqiceztvr/aP3j1WVBZVnre3xKn2tqBe16Tzlwj7/icj30ygPXXJPoU++/VszfM6fPsC4Fh3k/J17Vu1bQ7u/7ALvjob7uKuqmkK2oO436eScH7Vpv+//9z62x0UbeJtRi+bNdkOVbjrnkEm/8QbqgvVDn4ztrUffLHkcdVSNo91/XzLUa+KWAUT+zZs7w38rp97cffZyYZGvJ1q3dFY8+Uito14ab2fm52GYZ1oBcFbU+v9f/Je9x2P99b91t/M+tWvWvevyxWkG7tqXuTWfbrXT/7oDuVqn13S/FrvOJlg0jGLT7+93vpBNr1HcZ6y501EUX1gjatayC+CMvvMBfzbs7kHgS4UGxvj/ZPs8RqsiiVSwwyLp1+kVpH3XHrBoLgXs1nnWOOW8Bv2tB3huyDRRyW3591PLrl92sb2ymTCoKkHbO0nLR31qu/dLj3HMy3iFYb4stvABey+vCxL+F769fzN8aFHu4zWKrn65rrJF2VxpEqiBIRYNOM90pUfC834nzWzvTbXCTnXZKvDX8j98Tj3N5oFZhDU7NVAp1PmZMW9in+tcF8xGk2q8sdYdFP5vuvHOqRUK/9tKDDyaW1cVCplRsOk/7HH9cYvmXA+smXszwoP/9DyTe3e2Iw2sN7E28aQ8UBBxuA9eUA1o/4228hl+KWWd1hVrdBkunKvrsqUuPXzRgO93dOXWr0oWQisYtzLRxE1FLMb4/YT7PUevJ8tUpoOQFflFXsWotBO7VeuY57rIRCPZ9L1SlNKDQL8oGkq1s97/9My7y1y+/eu+rG8Uq666bcVm9ucLqC4PmkUNqD6TLuoESLNC46eKJvUybPCXxOPmBujFkuvDR8krH55fRfw3zH+b0u6t1HclWCnU+ND7BL8/ccYfXLcV/XqzfwQubrQJ94dPtb1PrllXPWpRVhgU+1+mWD74+7Lf5n1u9tu1++wXfSvlY3UuOufQS72flwOe8mHXustLKKeviv7h4s+b+Q7tDtkLicaoHrdrPHzis9zTotpgl7PcnzOe5mPVk24uOwPjRCy+m/Ttxi87RhT+SeuEXZUkEEKgEAaXLUrYRFQ3EC5NfvVX79l6LY6pWOnX/8O8KqNvEa489npVBA+784q/rPy/lbx2PgtzRfw11ky1LjQbRTrXBtVP+neTdDQhTFwXu2Ypc/CL/fErzVvO78KTbRiHPh7r5aCCxBjj+O2GCN5hZ6R/X23ILS+O4gVt5vXVd8NjS1Sns6/PrPtRbXAOHw2xbre5trDVZnyPVUXnAw2TuCe7L+x4saI0OW1d/ueB2ilHnZi0Wfnb8fab7Xa9B/XRvLXi9Tpb3o71diO9Pts9ztBqxdDULBO+CZZrjYFE3InBf1M8wx1d1Apqsx8/DnapfeyoQ9d1uawGqBh8mFwV1fuudJjJSCskopdSBuwJnZft5/q67a+Stj1Ln4LLp+pkHlynl40KeD91JuPSB+90NZ56VGNQ7wjK+vKCfBVlilBpxkx13cJvvtpvTgLB8irokaaCpSpukrC2ZtqtMNf7nSPXLlAXI384Yu3j19xWctdh/P+zvUtY5bJ2KuVyhvz/FrCvbrmKBBfORVKMAgXs1nnWOeZEWCLb4LhZhQqB0kwfNmTU74aUuC2Fa8BMr2INCTJ4T3F6mx5oZ9rz/HZDIlOIvqwsTZcDRAMWmze3Huh8ozaAmp6q0UujzsbS1sPe2QZvK//2BpRL87K23auReV5Ye/Txp2U+UWSefPu5zZy+8G1G3Xt3Q9IvVXdirc05gG5k2EBxInE93tFLWOdPxlOK9avj+lMKRfRRHQK3sI4YM8TY+3hqRlraGh0IXNRAct/U23mY1u/h9H3+UctB+ofcbZXsE7lG0WBaBChBQ/mm1EusWv1odwxa/e03y8m07Lu0NiFMrvros3DpwQPIiZfNc+dY1K6aKWmn3POZob+ZOTcCRPKiv93HHeTndy6byIStSjPOhizYNKtaPglxNSPSD5aj/ZOBAL2Wpqqa0kNdbykT98dQMhLmUtjYWQOdBn6Uxw4aH3kRw2aWX7RJqPbXo60JTre7pPtthNlTKOoepTzGXqYbvTzH92HZxBVq2Wxi4686bGh0KXTSDs1+UqjaYHtd/Pe7fC5sx4q4J+0cAgYII6B+a1kst5W1LfbrVJzhb0UQ30621OlVRoOV3uVFrhJ9/O9Wycb42yfo/f/jK/AmwlAJTaS7Vh1spL5ODdtUz04DUOI8j276LfT7UUq1ZSnc8+CB3iaVj7Nf/xUSWIAX1j+YxK6cuEPwxA5pQSuMNshXtc+zw+UG+7pgoC1KYoovXDjZBkYo+27neXSllncMcV7GWqZbvT7H82G7xBTRZnl8+ffNN/2FBf3/78ceJ7S1vE8KVYyFwL8ezQp0QyFMgOMHMu8+/kHVrbz37XMZlNGDRL98NGuQ/LKvfmg3VL6tvuKHXMuw/T/6tYDC4fPL75f68lOdDk3cpvaZf/vhxYYuU/1rw97x5c4NPaz0OtpK991L2vOya6dYfNB087lobTvFCx+WWT7w6wKZKz1aU0/91G3ytn6GDf0ksXso6J3Za4gfB78Oi/v0pMS27K5DABtvM78KizQ2ymcv9fxcKtHlve+8E/l6u1X2TQm26oNshcC8oJxtDoDwEgnnAn7nj9sTg0lS1mzFtmnv2zjtTvZV4bZt9FqaU1IyswX70iYUCD9Qfut+ZZ3o/pcrjHhxEmu7ugV/Ft2yWSn82Tf+1Yv+ePWtWwf7QFOJ86E7MXZdd7v08dN11iVl2UznoroXv28zuZiSX+g3np2vU6/+M+zv57RrPg3V/+tbbEgOpaywUePLkLTcnnv038Dn0X8zkusNBB/qLuefvvtvL2Z94IcUDzYZ8ywUXeD+zZ89KLFHoOic2XOIHmaz886sqleP3p8RU7K4MBbquuaZr3aG9VzPNcPzSAw8UtJav2SzYukutosav1TfasKDbL9TGCNwLJcl2ECgjAQ0g7Ny1q1cjTRF9+VFH1xhw6FdV3QcuPrSHU1eZTEVT3K+y3nreIhrUqQBnxvTpKVe536aYf/j6693b1oqvWUSjtpKm3GiIF5cP5D/X7U5N/pSqfPX+++72iy9J9VbRXtO070duupk7fOPuXvrFfHdUiPOhlIpf2Ay7/e+/3z1lAfS9NntnuvKcZejRmAmV1VJMFqQByw0aNfLe1xwCQ37+2Xuc6n+a8dDfxhjrAnPF0cc4dZtJLrqgvO7UnonzuEy3bm7rffausVg2V81o60/Uoj76Fx1yqBsfSFXqb0x3YO658srEXRh9ZpdbZRX/bVfIOic2WuIH2azK+ftTYip2V6YC6sa37wknJmqnf7fGjhiZeJ7PA01a9nDffolNBC/6Ey+WyQMGp5bJiaAa1SsQbOkqlIK2edDpp7srjz3W2+TXH3zgeu6yq9tw221tRtHV3dw5c93gb752H7/2ulOKx4132MHLkR3s35dcF82Yes6++9m6c9ybTz9tU9B/6TbbdRe3/KqrupkWxA/++mv30xdf2M/82e1Uhx7nnJNoqU3eXqGfKxDV8X38+uveHYZz99/frbVJdxtwuaXrYK0nw3//zX1ugeqnA9/0Wm1WWmcdJ5diF92deOCaaxJ9rB+01m1NPNTYcuznUwpxPnayGXPv7NXLq4byuSv14WobbOBW/c/6Fog3dCP+GOIGPPmk8/uTLm6ZeXbt0SNltTUT7S/2GVAQfMbue7h1Nt/Mrb3ppq5Vu/ZOM3IGy+HnnuvO3Gtvr7X9i3ffdafuvIt37pZfbTUbj1DXC6B1nvwMElpXs5oGMx+Fde1xztnumw8/9O52/PLNN67nrru5jbff3mYkXcs1atLYSzP55tPPJGb4rW8DWk+++upgdb3HhahzrY2W6IUwVuX6/SkREbupEAFdvL9w773e91Wt4/obd5VlxWrYuHHOR6BsSlcee1ziTpMavTR7crkWAvdyPTPUq6wFNGtbcHbSfCq71LJd8lk97boKls6++SZ3w1lne/8gKf+3WleTyyY77eR6Xn+du+r445PfqvFcubN7P/ao1wqqllId/6P9bqixjP9EA2RP79fXa6n0XyvF7xOv6u3++PFHm3DpL+9i4pMBA51+gkWDI3s9+IB3m7UUgbtFsvqvZqn1Qs23wzwrxPnY6ZCDnVqaNGuqSiovvy6NmjRx5952q+u04E6O/7r/u8fZZ7nzD5j/x05dMvxtrbXJJrUC9+XsYu/qJ5/wstQoOE/32dS2NTnYqX361L5tHdJV3Xyuta5R1516qpctR3eXXnn4Ye/Hr7v/W3/8FbSvtM7CQXD+ewWps7+xUv8OaVWW359SW7G/shbQxfuJdnfwgoMO8jJGKYvYZUcd5c6+6aZQE7olH5zu9l1trfj+GA81OJ1w5RVlmU3GrztdZXwJfiMQQWC/kxberouwWq1FNa36GhtvXOv1Qr2w0XbbuWufedqtu/nmlr984dTp2r6yc+x9/HFe0B5sycy0b43q72tZRraz1uz2CzJ2BJfXhD67WIvszW+87rTvUhe1GvZ78QXvuJJbYFpbKsvNdt3Vu/jws+SUon7KAnPImWe45uatFuuDTuvp5FSIUojzcchZZ7orHnnY61ISzH3u10+zm+5jF3V3vPO21xrvv578WykitZ3VNlBr/fxuM1rG7m6nLEq1dv0Lz3ufF10IJ+9bn6//7revu+Gl/rWDdttiFNfO3bq6Ps8+4/awP/Cduq5Q6y6Qzodujd/25kDX3SabSlfyrXO67Rb79bBW5fj9KbYN2688AV1YH3fZ/DuFqv13Hw9yZ+65l/vx888jHYzuDp+22+4ueKf5uMsvc8HsNZE2WKKF67w1YXxyW1Beu87WVzavjbMyAmUk8LXdflc/7uA0zGGrp24IK1kQvLMFuQ0DQU7Y9XNdbuSQP92ov4a6lu3aeTlw881Rq3R+auGuY60UCoZbWI7vYnT9yeV4/Tz2an1Xn+U2C1Jk5rKtQqyj2WfVzSj5gqIQ2/a3ke/5mDVjhhtrd2aU/19dedp37pzzbKnqU64uGrpgSQ7K/foGf6tPu/LHa4KlLit2C31xk4urxmf8afmata4+Gy3atAlWJfTjXOscegcFXjCKVbl9fwpMweYWAQGNvbnf7pCpe55fdKd5Fxu3tcp/1kuZBlj/Jv1kAf5zNlhd3fGCRV07dz/yiOBLBXmc74zTyZUgcE8W4TkCCCCAAAIIIIBA2Qtopufrep5WK2OU7jCr5bxV+3ZeF5rJ/0x0f9vAdLXK+5lj/IPT/BCn9LnGrb91zbE4/vv5/i7/wN1S9NTu0JnvYbM+AggggAACCCCAAAI1BZRZ5tF+/ZzS/AZb32suVfuZ7gQqA9vB1pWxaHdkbR+661jIUvAWd82+Nm9B2rBCVpRtIYAAAggggAACCCCQSkBd7QY88aQbNGCA190v1TJ6TUG60sRqcL4GrxezqBtpqrkv8tlnwQN3jdCdM3t2PnViXQQQQAABBBBAAAEEchL469df3aihQ70xaP9O+Mc1XbK5a9G6jVt6uWWLHqwHK6yB4cmJIYLv5/K44IG7+g4pFRgFAQQQQAABBBBAAIFqFVACCPWhL2QpeDrIcskoUUgktoUAAggggAACCCCAQBSBYsTEhQ/cLTk+BQEEEEAAAQQQQACBahZYrAgxccEDd/XnoSCAAAIIIIAAAgggUM0CxYiJCdyr+RPFsSOAAAIIIIAAAggURaAiAnflxaxbr35RANgoAggggAACCCCAAALlLqBYOMys0VGPo+At7qpAg4YNotaD5RFAAAEEEEAAAQQQWCQEihULFyVwr9+woVPSeQoCCCCAAAIIIIAAAtUkoBhYsXAxSlGia90aaNioUTHqyzYRQAABBBBAAAEEEChbAcXAxegmowMuSuCuDTewShcjDY62TUEAAQQQQAABBBBAoNwEFPsqBi5WKVrgriuNxosvXqx6s10EEEAAAQQQQAABBMpKQLFvsVrbdaBFC9y1cU31WsyrDu2DggACCCCAAAIIIIBA3AKKeRX7FrMUNXBXxXXlUb8BWWaKeRLZNgIIIIAAAggggEB8Aop1S9HTpOiBuwgbN21K8B7fZ4k9I4AAAggggAACCBRJwAvaLdYtRSlJ4K6+Pk2WWIJuM6U4o+wDAQQQQAABBBBAoCQC6h6jGLeY/dqDB1Iv+KTYj/1uM9OmTHFz58wp9u7YPgIIIIAAAggggAACBRdQ9hjFtcXu055c8ZIG7tq5DrBp8+Zu5vTpbob9zJs7N7lOPEcAAQQQQAABBBBAoOwENLmS8rSrpb1UrexBhJIH7tq5DrRh48beQc+aMcPNnDHTzZk9K1gvHiOAAAIIIIAAAgggUBYCdetZpsSGDbwZUeMI2H2EWAJ3f+c6cF2x6GfevHkWvM/2ftSNZq61xOs1/7c98VfjNwIIIIAAAggggAAChROwmFRx6WLWou7/VneYuvXqeT9xBuvBg4w1cA9WRCDqRlPqvkLBOvAYAQQQQAABBBBAAIFyFShJVplyPXjqhQACCCCAAAIIIIBApQgQuFfKmaKeCCCAAAIIIIAAAlUtQOBe1aefg0cAAQQQQAABBBCoFAEC90o5U9QTAQQQQAABBBBAoKoFCNyr+vRz8AgggAACCCCAAAKVIkDgXilninoigAACCCCAAAIIVLUAgXtVn34OHgEEEEAAAQQQQKBSBAjcK+VMUU8EEEAAAQQQQACBqhYgcK/q08/BI4AAAggggAACCFSKAIF7pZwp6okAAggggAACCCBQ1QIE7lV9+jl4BBBAAAEEEEAAgUoRIHCvlDNFPRFAAAEEEEAAAQSqWoDAvapPPwePAAIIIIAAAgggUCkCBO6VcqaoJwIIIIAAAggggEBVCxC4V/Xp5+ARQAABBBBAAAEEKkWAwL1SzhT1RAABBBBAAAEEEKhqAQL3qj79HDwCCCCAAAIIIIBApQgQuFfKmaKeCCCAAAIIIIAAAlUtUO/nr76qagAOHgEEEEAAAQQQQACBShCos/Fvg+dVQkWpIwIIIIAAAggggAAC1SxAV5lqPvscOwIIIIAAAggggEDFCBC4V8ypoqIIIIAAAggggAAC1SxA4F7NZ59jRwABBBBAAAEEEKgYAQL3ijlVVBQBBBBAAAEEEECgmgUI3Kv57HPsCCCAAAIIIIAAAhUjQOBeMaeKiiKAAAIIIIAAAghUswCBezWffY4dAQQQQAABBBBAoGIECNwr5lRRUQQQQAABBBBAAIFqFiBwr+azz7EjgAACCCCAAAIIVIwAgXvFnCoqigACCCCAAAIIIFDNAgTu1Xz2OXYEEEAAAQQQQACBihEgcK+YU0VFEUAAAQQQQAABBKpZgMC9ms8+x44AAggggAACCCBQMQIE7hVzqqgoAggggAACCCCAQDULELhX89nn2BFAAAEEEEAAAQQqRoDAvWJOFRVFAAEEEEAAAQQQqGYBAvdqPvscOwIIIIAAAggggEDFCBC4V8ypoqIIIIAAAggggAAC1SxA4F7NZ59jRwABBBBAAAEEEKgYAQL3ijlVVBQBBBBAAAEEEECgmgUI3Kv57HPsCCCAAAIIIIAAAhUjQOBeMaeKiiKAAAIIIIAAAghUswCBezWffY4dAQQQQAABBBBAoGIECNwr5lRRUQQQQAABBBBAAIFqFiBwr+azz7EjgAACCCCAAAIIVIwAgXvFnCoqigACCCCAAAIIIFDNAgTu1Xz2OXYEEEAAAQQQQACBihEgcK+YU0VFEUAAAQQQQAABBKpZgMC9ms8+x44AAggggAACCCBQMQIE7hVzqqgoAggggAACCCCAQDULELhX89nn2BFAAAEEEEAAAQQqRoDAvWJOFRVFAAEEEEAAAQQQqGYBAvdqPvscOwIIIIAAAggggEDFCBC4V8ypoqIIIIAAAggggAAC1SxA4F7NZ59jRwABBBBAAAEEEKgYAQL3ijlVVBQBBBBAAAEEEECgmgUI3Kv57HPsCCCAAAIIIIAAAhUjQOBeMaeKiiKAAAIIIIAAAghUswCBezWffY4dAQQQQAABBBBAoGIECNwr5lRRUQQQQAABBBBAAIFqFiBwr+azz7EjgAACCCCAAAIIVIwAgXvFnCoqigACCCCAAAIIIFDNAgTu1Xz2OUGHEwIAAEAASURBVHYEEEAAAQQQQACBihEgcK+YU0VFEUAAAQQQQAABBKpZgMC9ms8+x44AAggggAACCCBQMQIE7hVzqqgoAggggAACCCCAQDULELhX89nn2BFAAAEEEEAAAQQqRoDAvWJOFRVFAAEEEEAAAQQQqGYBAvdqPvscOwIIIIAAAggggEDFCBC4V8ypoqIIIIAAAggggAAC1SxA4F7NZ59jRwABBBBAAAEEEKgYAQL3ijlVVBQBBBBAAAEEEECgmgUI3Kv57HPsCCCAAAIIIIAAAhUjQOBeMaeKiiKAAAIIIIAAAghUswCBezWffY4dAQQQQAABBBBAoGIECNwr5lRRUQQQQAABBBBAAIFqFiBwr+azz7EjgAACCCCAAAIIVIwAgXvFnCoqigACCCCAAAIIIFDNAgTu1Xz2OXYEEEAAAQQQQACBihEgcK+YU0VFEUAAAQQQQAABBKpZgMC9ms8+x44AAggggAACCCBQMQIE7hVzqqgoAggggAACCCCAQDULELhX89nn2BFAAAEEEEAAAQQqRoDAvWJOFRVFAAEEEEAAAQQQqGYBAvdqPvscOwIIIIAAAggggEDFCBC4V8ypoqIIIIAAAggggAAC1SxA4F7NZ59jRwABBBBAAAEEEKgYAQL3ijlVVBQBBBBAAAEEEECgmgUI3Kv57HPsCCCAAAIIIIAAAhUjQOBeMaeKiiKAAAIIIIAAAghUswCBezWffY4dAQQQQAABBBBAoGIECNwr5lRRUQQQQAABBBBAAIFqFiBwr+azz7EjgAACCCCAAAIIVIwAgXvFnCoqigACCCCAAAIIIFDNAgTu1Xz2OXYEEEAAAQQQQACBihEgcK+YU0VFEUAAAQQQQAABBKpZgMC9ms8+x44AAggggAACCCBQMQIE7hVzqqgoAggggAACCCCAQDULELhX89nn2BFAAAEEEEAAAQQqRoDAvWJOFRVFAAEEEEAAAQQQqGYBAvdqPvscOwIIIIAAAggggEDFCBC4V8ypoqIIIIAAAggggAAC1SxA4F7NZ59jRwABBBBAAAEEEKgYAQL3ijlVVBQBBBBAAAEEEECgmgUI3Kv57HPsCCCAAAIIIIAAAhUjQOBeMaeKiiKAAAIIIIAAAghUswCBezWffY4dAQQQQAABBBBAoGIECNwr5lRRUQQQQAABBBBAAIFqFiBwr+azz7EjgAACCCCAAAIIVIwAgXvFnCoqigACCCCAAAIIIFDNAgTu1Xz2OXYEEEAAAQQQQACBihEgcK+YU0VFEUAAAQQQQAABBKpZgMC9ms8+x44AAggggAACCCBQMQIE7hVzqqgoAggggAACCCCAQDULELhX89nn2BFAAAEEEEAAAQQqRoDAvWJOFRVFAAEEEEAAAQQQqGYBAvdqPvscOwIIIIAAAggggEDFCBC4V8ypoqIILJoCdeyw2tat5zrWq+/q5XCI9V0d16SOthKu5Lu/cHsp7FJRj7Gwe2dr1SqwxGKECNV67jnu8hXI5e9k+R4NNUMAgYoRWHKxuu78tu3cfxo3cfUXBN5z581zv86c4XqNGe3+mDUz7bE0suV7tmrj1m/SxLW2oH8xez5xzhz384zp7qpxY9zo2bNrrZvP/mptrAQv5HKMJagWu1jEBVZt2MhtuvjirnuTxd1yDRp636nzR490I1N8pxZxCg4PgbIUqLPxb4PnlWXNqBQCVSZQ1463vbU6t6irR87piznX/u99Qe1/cxe8plemzZ3nJsyZ7aZaoFup5fr2S7kNLDhIVXRsu/35h5uT6k17rXe7Dm6zxZumfHfUrFlu77+GzHcLLJHP/gKbKdnDXI6xZJVLsSN9blvaT5h7H7PtYzvcztOsWmcpxYZ5qagCupuzXuPGFqw3dZvY97FVvdrtef0nTXS97YKYggAC8QvU/obGXydqgEBVCagl+EJreV7fWp7VchylTJ8711rCZrlBU6e6D6ZOcV9Pn5Y22I2y3WIvqxvw69rxpistrBV9ZWv5+85a0JOL1t0oTcCvZdvXr2/rNnQ/zJiRWDWf/SU2UsIHuRxjCauX2FVT60pxduu2bmM7H40idquYbRedQ+2uyi92nn62uyz9/53kptjnmVJ8gQb278xmds62sGBdF89Nspy77Zdo5u6Y8Lf72+5qURBAIF4BAvd4/dk7Al53kQ0zBKKZiBQsLWu3s/Wz/5ItvO4iD/0z3j1lLWQzy7g1vlGdxVy9LBcpS9RV+Fq7aF2/a03td+e/0nzBXQv//Xz252+jlL9zOcZS1s/f1/lt2qW98+Evk+63zr+6YuhnO1voYPv83jn+b/eiBfDVHL5vbcG0AuX21vK9hF3U6+Lm95kz3YP2vS5E4Ly03dW7aamlXVv7HbboXK3ZqLF7c8rksKuwHAIIFEkg9V/GIu2MzSKAQE0BdYrZIEPLc82lsz9TwHqC9f1+olMXt0PTJbKvENMS9UPcWNAt/FQlS7zvrbJY0rr57C9VHYr9WiXUV3881NJeqKK7LGfZhcB9HTu7dSxIrMayqwXsvawbmFx1QdPGgnfdmdqn+ZLu/zp0tEA+/z/Zm1v/9ShBu38elm3QwH/IbwQQiFEg/38FYqw8u0ag0gXUYl43TCQa8UD1B/+Ctu3dudaNIV0AHHGTZbO4ugdpEGumMpUuF5l4CvJemLsYuexoeQtY/6/D0m5nC2KrrailPV3pYoFzIS6Ucr0TN8Ra/SkIIBC/AIF7/OeAGlSxQLH7qu3crLm7ZamOlnll/oDXRYFavWy/tL786Yr6Sf+Qom98uuV5PTeBMHcFctuyc3XsYvYcu+jcrozvGuV6bJnW03iXTEWDf/Mtg208QZTypwXs19rA1IF0k4nCxrIIFE2AwL1otGwYgfIQWKVRI9fXWjAXL8Bt9vI4IssqM3a0N6gxuT5KCXmBpa6bkaVFPnk9npefgIL30y14X5QuOrMpZxv3oUGl+ZZvp093CsYzlcF24avxBgf99ac7YNif7lkbM0NBAIHyECh2g195HCW1QKDKBdRfVukFe44cXhFZZ7KdLuWUPmz4UNfKWiDb2SA7DVYdbdl1xtjr5L3Iplc57+ti81Qbs3HBmFGVU+kyr6k6md1vA10vsq50flHXs28soH/HWtXfnTrZjSJnu0/DbwTKToDAvexOCRVCoDgCGuR2mrVg9llE8jErABlnLez6oSy6Altad5mlrfV3uF2YUQoj8Nrkf20uiLlO2ay+s25nH1o62X/m8j0qjC5bQaC4AgTuxfVl6wjkLfC83ab+yHK0B4v6unazPOfdrCV9eRu01jBkN5jdbPCbthe1n2tw3zxGIKxAqs+u1tUdEmUp2bGppT20vPvZyjZNm1or8YRsi/F+BIF37d8U/VAQQKCyBAjcK+t8UdsqFPjFBpO9l+oPrOW7VtGAtjNat3FqmcxW1G/45Fat3YnWZSZq0QXCetZq39UuFpa0Cwftd6bNfDnebqsrv7QGhL5v9SzlJDoN7Xg6WFeZRovVceMW1CNzvpmoRx1ueQ0ZbG2ZfHRBNcJmBJ2YJquNzDpaoKoJb9Ti+ZctW8iWTu2/seW5/9tmnp1eBv380352xWox44MWjJ9mXWF2sUHUmcqWiy8RKXAvxWdVedaV27y1pbFUFif1xVc61vH2XRhldwdG2+fxy2nT3B+Whz1bUW71MN8bZaDSZ6iZzXGgz74yxOi7NznN5y3dftVTXpOUKUuNsvi0smNQqsmJ1uqu+v9s32VN6PZrlr7w6bbP6wggUDwBAvfi2bJlBEoioMBPfYC3sv6pGsynoDpTWduC7//Yz6fTpmZazHtPg+F2sVb6A2xynPYhJmyZZYGE7g7c9Pe4onZt6GCB0sXWR3f1pHzfQy3QUFegLzJkncl60BEWUL7xXS3o1FTxjQN3PdTf/gfrM/zYxH+82V8VKJ1uF1e7LNG81sRTD1vwetv4cTlPOtSlfgO3n+X5Xsvq0tkurvyi4FF9ll+2C7xyDcAUeOp8rWDB48o2iDpd6RyiVb5Un9U1rZ77NW/hnfMwqVx/twvvAdY1Rd1TkvuOb26fm+PtQrqjncMw5YgWrZx+gkUz0L42eZK7cuyY4MspHysbxQ72fT58yZYZ73RsbpNAHd2ytVMKyDttxtS37XNEQQCB8hAgcC+P80AtEMhbQLMajrVWPqV/XMwC7kxlS/vDnC1wX69xY3dhm/ZeS3KmbQXfUxeIzWzb69uFwa0WjGoG12KUC6xeyUG79qPA9QQLhI4Y/lcxdpvYplpXe9pFkqaMT1U0YLZd0/reXZD7Jox3Iy2I3qPZkqkWdQfaRZFapt+wwC5q0eRdl7VrbxmDal+s6UJLAeY+tt/n/p1oFwd/h2rVjVqHfJdXz+q37LObKXBXVzC1CP+bpmW5VJ/VC2yCKAW+UYoGhh/dsqE71ILlG+074Wdo0RnTmBPdqcmnKBPNTnZB+OOMGYltp9resnZxoM+KZlkOW5Q7/gob1P6tXQhfNHqUG2N3cigIIBCvAOkg4/Vn7wgUVOBbu8X9UIi+wN2tpS9TOcyCjL7tl845qNDEUgpsD7GgtNBFAc8aGVpnV7K+/10DLc+F3r+2fc/SndMG7cn769GipTu2Zc1W0uRl1ku6c5D8fqrnmqCoT/ulUgbtweV1EbenBe+32gVdIfKAB7ddqMdDQ3QnaZHmTlKpPqsH2Wc5atAe9NHFxynWLcif/VRdpvIN2oPbX80+9+nKVnaBeefSnSIF7cFt6SL5no6d3No5fE6D2+ExAgjkL0Dgnr8hW0CgrATuslvbv1jrW6aigGHFNC1vuo1+pAWa2VrtM23ff+9ou62/dZpWaX+ZqL91UZCtbrlM6R6mHqtacHSzBcCtIraStrA+xJlKLjn2u5trmK4a/n7Vl1nBe5Msd2P85Uv5O0w3rFSz4Zbqs6rzfkxSF5VcfHQfzJ9jIFuXtqjb75CmO5HuCvWybmXBrlxRt63l9Rm+zi4UM10g5LJd1kEAgWgCBO7RvFgagbIXUNeD163Pa7aiFr/kopkqj8jSOpy8TqbnGgyr7gAaSFeokjkEnr+X2h1H8t+7uscoF36qbin5bj1KAJ7PvtSX+vACBKD51CHVuhs1aZLq5RqvTbBBk8FSys+quuJku1gM1i3dYw3eVr9+lXqucN8JbS/V1la3C46LrHuPvoeFKLprcLUF7xpMS0EAgXgECNzjcWevCBRV4JcQ2SBaJrUCN7U/yprsptBFLYsa4FrppZcF7VFb2svxmPexgaxhBnuWqu6HWheUDbJ03RpmXWmCYXupP6tKvZqtzLD+9xpjkq7MnDfX3WXjDPxSyGxC2qayGQWLLnAvaNsudKrY4LqZHuv7rCxWFAQQiEcgTONVPDVjrwggkLOApizPVlrVq9kufbAFUM3S9CNO3pYyWahfsgZhhunmoWCxWANVk+tWjOfqbqDUf4tC0WDGnnaB1nPUiKIfTjvrUqT0ocmlrjUAKxvObpaRZ40QroNsgqBgKfVnVfMlpCsjLWA+eeQwN2JB0N7MLoBXsUB/FRuHsY2lsVzGxkTo+9Lbsr4EU0MOs/Um2V2EsN+5dPv3X//WshgFy172nQubrSa4XpjH69uFlgZGDwqRmSrM9lgGAQTCCxC4h7diSQQqRkB5xJUnPFO/VqXP84tC+N2z5NLWskr3qPSFD9qU6coTrvU0cE2DL1NledE6KgogGtn+yiG3+PwaRfv/kTbAdFEqCrzU/eMzyzNezHKwjZfQT75FaS39Um6f1WnWkq5c6n6ZZN+7jy2g1c89llFoBQvclRtdP8Givu59/x7rzlFXMgv2cy26KHjdMhIpc1CwHGAZhcIU5Y//0S70lXe+k3WfW9kuOpQdKlvZ3y4MCNyzKfE+AoUXIHAvvClbRCB2gbbWDSZT0K4KBgOJ1ax1sGmKlILBA1GAcJa10n4SaGVTKPKVpYrrPXa0e6RTl+DitR4vbUHBbyG68NRaMeYXlEYvTAo9dedQ6sefLbXj4jYJ0joWGCujTAN7XMyioOspyxc/xPbfzM6hUnHqDoda1jMVDbgsduCeaf9h3/vaPl+fB/Lyx/FZ1YRWS6UYE6JjULrHhzsu4161cSXf27n42QaGB79bmXLoK+BWjnRlzPl3zlx3X8fOTt+TdOVu62rz5KR/7Lu6mHenSxfS4+yCIHnyppVscqUwGWs0s+3tlqIyOGGY5khQl7lNsgwq13wQGug81epAQQCB0gkQuJfOmj0hUDKBFe0Pd7aiGU/9ogmZspUHrJU9GLQHl/czZQRfS36sGR8rsWh2yWxFweUZNhttMIhRas6PrYuHMrnk06Kaad8P2IXC7ZZFKFh0jjQJ1g0dls44KDHMxUhwu3E8nmNB4S02mVewxPFZ1QVnpjtKyuhyWGDQr/q6+7OPKj//tAzBrQarqrU7TJljMxUrl326fPb+NjZqnP0z+6pNzHWNTX6VXEZaXc4bPdLLnpTpmNUqv679u5FyVufkjfIcAQQKJkDgXjBKNoRA+Qh0CxG4q6XOL2HS8U205TVTaHJRbvBsU9ZrneRZI5O3U67Pl8uSE16tnleOGV0jaPePRa3vyqtfyEw9/rYHWXCeHLT776mF+o0p/7ptm6YfFLyM3Uko93KjBe3f2QVQsMTxWR1owXeYrmR+PdtYq3Wbek29VuuTrPVawbvuxpRqAqN0dwf8+umC6LpxY/2ntX7rXwbZ32G53zOVMOci0/q8hwAC0QUI3KObsQYCZS2gwXG72EyKmYq6vXwXGMyWbnKb4DY0oVKuRfsbZbOHVmLJZqOuKsMyHNsAC6CLEbirm0Wm8o2d38yBe30vhWC5dnT43O4cqFtIcsl2PrR8oT+r6g6muRG6hrggTq5vE/s+ahCuZitWS/aXgW4/ycsW6nmrLIPMNTB2qvXNz1R+tYvOufa9zZQGs1wn9Mp0XLyHQKULFLfzZaXrUH8EKlDgXMvbrBa/TEWBSPAPt4KLYhZN876wfb+Yeyr8trPZjMnSzWFclvdzrXGqCYmC21K2k0xF3XeyBXiZ1i/2e5oBt0mK8QHZzke+9Ur1WVWIq3EcuruSa1H2mMvatS+JebbxLeqzn62o+1u2weSNFss8jiLbPngfAQSiCxT3r3X0+rAGAgjkIbCHtextlmVQmTb/wZQpNfYyPEuQV2PhiE+07TsC+asjrh774skT/yRXaIUMqQK1rGYsjaNkbk+dX6NSTfyUy/ErzeiOSyxRa9W4Pqvq9nSajWNQCsdci2Yf/V/IbC+57kPrZbto04DabEWTLGW7SBo5K/sFQLb98D4CCEQTIHCP5sXSCJSlQGMbKHa69aXVT7Yyee4cLwNGcLk/ipDtRX3ilbWix7ChNVr3g/vN9LjUQWW6/WVrnexifeC3znCxpMwylNwE9mq2ZK0V4/ysfmF3qvb9a4jXX32KfY9yKZrxNdc/vOk+o8n1yNR1S8tqEiXNqpqpbNO0aaa3vfeGZ+gilnVlFkAAgZwEMt9Pz2mTrIQAAqUSUC52pf/raTMZhh0opjzsyjUdLMGJYYKvBx/3s8FsSl0Xpij7RTAlXvI6mbJs+Msq5V2hSj77+9r6iu+RfoynV8Wz2rT1ulG8awNG/aJ/XE9o1dptGCIrjb/Oovb7Weuj/lHS5Ek6xrn2+VBXn8vaZp6NtrNdFG1kn++PAilIS/1ZTT4nyuhyp2XyeXTiBLejDf79T5Mm3uRcYSYi07ZaWje2VtbyPjZFd5X5FwPp00GGvXsT5q5EL+u2c+Twv2rkoPePdUMzPyKQJcd/Pfl3mP0kr8NzBBDIT4DAPT8/1kag6AKbN2nqlrLb1sGiFjOlfFRmkGz5uoPrqb/145bzO7kMsW4A2cq21lL4suWqTs4ZnW29VO8rBV62CaLUMjnYBgT+bncDZlmgl0/JZ3/K3qIsHJlaO5UDv3f7pdy31iL7k9VZXQzWsgw8mXJy53M8lbKu0ih+ELiYSa63Jg3KFiDuZ11LgoF7qT+rfp11gfxf+0zqO6QJoX6y78wTdmGiHyU61QyxK9h3ciO7UNvcfurYRXW60tpmLU4VuCsQ7pahJXxNm29B6TA/swuZTN+IT+39GXaBkSkNaVv7N+WRTsvYZGoTvK5z4+xCQrPZKnuOvnuZ6q/jGmV1/cvmDqAggEBpBQjcS+vN3hCILKAWPf3kWxR8Xm4D7FLlXNd07T9Yy7KmaU9X9N6dS3XyWhvftcAluaNAa7uYUF7n7ha06PfvFtgopdzgNBcFE62rQaZBdJrg5R6bkEblD9vGaSNH5JVOL9f96e7EW3a821gwk60o73Wm3NfZ1q+291+wrlSH2syqmS4+9dnXJFh+S3scn9WVLSC/1i7M/Iu3Q6z708d2QaK5DXRHRt8FBfL66W/50S9v295tmeHzUtfL51P7bGfr4qI+8v0sP7+6u022CZv+tMBZ6UbVhSdYdLdLF9l7pOhqFFxOF5zHtWzt/QRfD/NYdxyS/w0Isx7LIIBAfgIE7vn5sTYCFSOgIFotcenKTePHulssMM9UlrGuC5e36+AFDkNnzrKLgLneDI4KKJIz2axjgXfv9h28Pu6pJozRIL+w3Xs0WdCxLVu5XnbhkWvJZ393WdcIpfPzA7dc68B6NQU0l4C6X2W7KNrXZoK9OjBZUCk/q+qwdZalQk0+9+oCpZ8fLXAfZN+r4RZE606YxjxkCtoloNbtVOWvkIPEFXDrp71N/LSaXSwePOzPWpM4PWIB/a6WFja53qn2G/W1f+y8vWgXKBQEECi9QOE6kZa+7uwRAQRCCjxnLZupcmIHV1fLoVrSwxQFDWqBV6u4bu0nB+3+NhSYH7hkC/9pjd9R+8eGmVSqxg6SnuSzPwVU6lJAKbzA0ylytSfvRd20mgS6npTys6p9Z+q+srJ9DzQA+XxrZT/BBofvlGUOBXURS5ci9M8cBomrb726ZSUX3ZlI1S0ueblcnt9jF7Kp7tzlsi3WQQCBaAIE7tG8WBqBggpk6qdaqB3pj2yfQGtlpu3eOn6c02RJhSwbppl+PexAV78u6S4O/Pez/c53f2p1V393ynyBQn1KNFHU4KTZUZONG1lw2j0pc0+pPqubJu03uW5Rn6t/fOr2dufNEvthDp+xDkljYPw63WLf5w9CXoz762T7re5NT9sPBQEE4hEgcI/Hnb0i4AkUYqBnOkoNTrvYZmq826ZaD1uGWsvyjX+nnwo97HaCy3W02/mphukpQFEdw5aZc+eHihpomq2kmign1/35+9JeLxwzyn01rWZ/Yv/9fH4nH1Py81TbTnWMweXCbCPMMsFtBh+HaXGdseCcBddL9fjJFAOmk5frmBSclvKzmlyXXJ/rojjbsV5rF9nZJtdK3v+0NLOg6jN7sX1mNci7EEWDYlU/CgIIxCdA4B6fPXtGwBvcle62eT48b03+1x1i+dMH5NDa9pS1pl1fwD/OCphThdpTFcSE6CbhO6g/tIpmc1R3g0wl1aRJue4vuB9daPUcNdzLKhJ8PdNj9a3P1uqZ/BnI9RiD9ZiQph+1v4wC/3wuHBW4Z5uMKF1fbr8O/u83Jk92meo7z/Y1YMq//uKJ36X4rN5td1rGWreTQhSlkdQA1kxltO1LF89z7ZjDlkzdwJQK9YQRw9yrefZJf9H+XThn1AgGpIY9KSyHQJEE6nY65aRLirRtNosAAiEE2tjATg0wy7eo9VpdOa6wAZyPWUCcnKs9yvZ/tBa6Ty3/ttLbtba807kWZZa5zi4CJqYJtD+z1mtlu1nHjj9b+jl1MfDTAna0LCPp+ryrn/DtFiClKrnuL7gtXT4MtLoMs7sTSs+XKTOOjv9km23zdQs6d7O+z6nS86kV9mbr0jAmKdDO9Rj9usp8U0sl2irN+VOmHB1HPkXdzpWeMFVRMKkANEz4qcuw+rYxZSNKLsptfoMNrP4kzcDqYn9WdRH4lN0RGGkBdWf73GkAatSiFvRr7HsZtouJZmnV+dF3T4NdM5W/rV632ecn0x0QpVPVHAND7LshY3U9Clu0fbXaP2oGhbl8CbtnlkMAgVQCdTb+bXCYf1dTrctrCCBQAAF1I9nPsmZsbBkq1Fc1TGCgQGC8BXp/W1AxymYvHGRBtjLGqKW2kEV1U+5q/axrwXWqwDN5f2op/NUCj/csUHhwwoRQOdhbWjCkPNnK0rGiZZBpaXmuNQBWRa3C31m6u15jRrt/FsxWqXcOtwlitM5S1hVHQZ8cfrELjv+zYDHdhYK3Qftf1P356yX/1gRYSn+5hfWD1hTxzew4lNtax6/88xrs60/+tJoN4t2reXMv+Gtux6bj0rJqNf4qKZ2f9pPvMWobmsTq+Jat3Sq2bznpImGEOX1hF0x3aDyDFsqz7GF5v9ez86CUjRooOdK2r/ztCiZTZRNKtzsdby/LWCRLlfEWMCoHvMYW+HdbvDfS/K9Un9VN7Xzvacfc1S5qlU0pXdF3VHebvAtO++1/DtItn+51paLUZ0z/Nugc6ncL+5wpUP/Jxgaor78uXsIWfWY3N+NdlmiW9oJZnxNdKKmVXt/jfLpUha0XyyGAQDgBAvdwTiyFQNULNLI/+Gs3buylcFTgoODX/r5basi5C37m2KQyc7xJiKIEbOlgFYipXbBUuaJLvb90x13tr2s+gOb2o+A/11Kqz6ouVDpZMN3JLloa2vdDrfO6oNZvdX8qxIVRrgZh1tOFnS4EOljLvhoM1BAw2i68Rsya7aam6TcfZrssgwACxRMgcC+eLVtGAAEEEEAAAQQQQKBgAuE7uhVsl2wIAQQQQAABBBBAAAEEogoQuEcVY3kEEEAAAQQQQAABBGIQIHCPAZ1dIoAAAggggAACCCAQVYDAPaoYyyOAAAIIIIAAAgggEIMAgXsM6OwSAQQQQAABBBBAAIGoAgTuUcVYHgEEEEAAAQQQQACBGAQI3GNAZ5cIIIAAAggggAACCEQVIHCPKsbyCCCAAAIIIIAAAgjEIEDgHgM6u0QAAQQQQAABBBBAIKoAgXtUMZZHAAEEEEAAAQQQQCAGAQL3GNDZJQIIIIAAAggggAACUQUI3KOKsTwCCCCAAAIIIIAAAjEIELjHgM4uEUAAAQQQQAABBBCIKkDgHlWM5RFAAAEEEEAAAQQQiEGAwD0GdHaJAAIIIIAAAggggEBUAQL3qGIsjwACCCCAAAIIIIBADAIE7jGgs0sEEEAAAQQQQAABBKIKELhHFWN5BBBAAAEEEEAAAQRiECBwjwGdXSKAAAIIIIAAAgggEFWAwD2qGMsjgAACCCCAAAIIIBCDAIF7DOjsEgEEEEAAAQQQQACBqAIE7lHFWB4BBBBAAAEEEEAAgRgECNxjQGeXCCCAAAIIIIAAAghEFSBwjyrG8ggggAACCCCAAAIIxCBA4B4DOrtEAAEEEEAAAQQQQCCqAIF7VDGWRwABBBBAAAEEEEAgBgEC9xjQ2SUCCCCAAAIIIIAAAlEFCNyjirE8AggggAACCCCAAAIxCBC4x4DOLhFAAAEEEEAAAQQQiCpA4B5VjOURQAABBBBAAAEEEIhBgMA9BnR2iQACCCCAAAIIIIBAVAEC96hiLI8AAggggAACCCCAQAwCBO4xoLNLBBBAAAEEEEAAAQSiChC4RxVjeQQQQAABBBBAAAEEYhAgcI8BnV0igAACCCCAAAIIIBBVgMA9qhjLI4AAAggggAACCCAQgwCBewzo7BIBBBBAAAEEEEAAgagCBO5RxVgeAQQQQAABBBBAAIEYBAjcY0BnlwgggAACCCCAAAIIRBUgcI8qxvIIIIAAAggggAACCMQgQOAeAzq7RAABBBBAAAEEEEAgqgCBe1QxlkcAAQQQQAABBBBAIAYBAvcY0NklAggggAACCCCAAAJRBQjco4qxPAIIIIAAAggggAACMQgQuMeAzi4RQAABBBBAAAEEEIgqQOAeVYzlEUAAAQQQQAABBBCIQYDAPQZ0dokAAggggAACCCCAQFQBAveoYiyPAAIIIIAAAggggEAMAgTuMaCzSwQQQAABBBBAAAEEogoQuEcVY3kEEEAAAQQQQAABBGIQIHCPAZ1dIoAAAggggAACCCAQVYDAPaoYyyOAAAIIIIAAAgggEIMAgXsM6OwSAQQQQAABBBBAAIGoAgTuUcVYHgEEEEAAAQQQQACBGAQI3GNAZ5cIIIAAAggggAACCEQVIHCPKsbyCCCAAAIIIIAAAgjEIEDgHgM6u0QAAQQQQAABBBBAIKoAgXtUMZZHAAEEEEAAAQQQQCAGAQL3GNDZJQIIIIAAAggggAACUQUI3KOKsTwCCCCAAAIIIIAAAjEIELjHgM4uEUAAAQQQQAABBBCIKkDgHlWM5RFAAAEEEEAAAQQQiEGAwD0GdHaJAAIIIIAAAggggEBUAQL3qGIsjwACCCCAAAIIIIBADAIE7jGgs0sEEEAAAQQQQAABBKIKELhHFWN5BBBAAAEEEEAAAQRiECBwjwGdXSKAAAIIIIAAAgggEFWAwD2qGMsjgAACCCCAAAIIIBCDAIF7DOjsEgEEEEAAAQQQQACBqAIE7lHFWB4BBBBAAAEEEEAAgRgECNxjQGeXCCCAAAIIIIAAAghEFSBwjyrG8ggggAACCCCAAAIIxCBA4B4DOrtEAAEEEEAAAQQQQCCqAIF7VDGWRwABBBBAAAEEEEAgBgEC9xjQ2SUCCCCAAAIIIIAAAlEFCNyjirE8AggggAACCCCAAAIxCBC4x4DOLhFAAAEEEEAAAQQQiCpA4B5VjOURQAABBBBAAAEEEIhBgMA9BnR2iQACCCCAAAIIIIBAVAEC96hiLI8AAggggAACCCCAQAwCBO4xoLNLBBBAAAEEEEAAAQSiChC4RxVjeQQQQAABBBBAAAEEYhAgcI8BnV0igAACCCCAAAIIIBBVgMA9qhjLI4AAAggggAACCCAQgwCBewzo7BIBBBBAAAEEEEAAgagCBO5RxVgeAQQQQAABBBBAAIEYBAjcY0BnlwgggAACCCCAAAIIRBUgcI8qxvIIIIAAAggggAACCMQgQOAeAzq7RAABBBBAAAEEEEAgqgCBe1QxlkcAAQQQQAABBBBAIAYBAvcY0NklAggggAACCCCAAAJRBQjco4qxPAIIIIAAAggggAACMQgQuMeAzi4RQAABBBBAAAEEEIgqQOAeVYzlEUAAAQQQQAABBBCIQYDAPQZ0dokAAggggAACCCCAQFQBAveoYiyPAAIIIIAAAggggEAMAnXmWYlhv+wSAQQQQAABBBBAAAEEIgjQ4h4Bi0URQAABBBBAAAEEEIhLgMA9Lnn2iwACCCCAAAIIIIBABAEC9whYLIoAAggggAACCCCAQFwCBO5xybNfBBBAAAEEEEAAAQQiCBC4R8BiUQQQQAABBBBAAAEE4hIgcI9Lnv0igAACCCCAAAIIIBBBgMA9AhaLIoAAAggggAACCCAQlwCBe1zy7BcBBBBAAAEEEEAAgQgCBO4RsFgUAQQQQAABBBBAAIG4BAjc45JnvwgggAACCCCAAAIIRBAgcI+AxaIIIIAAAggggAACCMQlQOAelzz7RQABBBBAAAEEEEAgggCBewQsFkUAAQQQQAABBBBAIC4BAve45NkvAggggAACCCCAAAIRBAjcI2CxKAIIIIAAAggggAACcQkQuMclz34RQAABBBBAAAEEEIggQOAeAYtFEUAAAQQQQAABBBCIS4DAPS559osAAggggAACCCCAQAQBAvcIWCyKAAIIIIAAAggggEBcAgTuccmzXwQQQAABBBBAAAEEIggQuEfAYlEEEEAAAQQQQAABBOISIHCPS579IoAAAggggAACCCAQQYDAPQIWiyKAAAIIIIAAAgggEJcAgXtc8uwXAQQQQAABBBBAAIEIAgTuEbBYFAEEEEAAAQQQQACBuAQI3OOSZ78IIIAAAggggAACCEQQIHCPgMWiCCCAAAIIIIAAAgjEJUDgHpc8+0UAAQQQQAABBBBAIIIAgXsELBZFAAEEEEAAAQQQQCAuAQL3uOTZLwIIIIAAAggggAACEQQI3CNgsSgCCCCAAAIIIIAAAnEJELjHJc9+EUAAAQQQQAABBBCIIEDgHgGLRRFAAAEEEEAAAQQQiEuAwD0uefaLAAIIIIAAAggggEAEAQL3CFgsigACCCCAAAIIIIBAXAIE7nHJs18EEEAAAQQQQAABBCIIELhHwGJRBBBAAAEEEEAAAQTiEiBwj0ue/SKAAAIIIIAAAgggEEGAwD0CFosigAACCCCAAAIIIBCXAIF7XPLsFwEEEEAAAQQQQACBCAIE7hGwWBQBBBBAAAEEEEAAgbgECNzjkme/CCCAAAIIIIAAAghEECBwj4DFoggggAACCCCAAAIIxCVA4B6XPPtFAAEEEEAAAQQQQCCCAIF7BCwWRQABBBBAAAEEEEAgLgEC97jk2S8CCCCAAAIIIIAAAhEECNwjYLEoAggggAACCCCAAAJxCRC4xyXPfhFAAAEEEEAAAQQQiCBA4B4Bi0URQAABBBBAAAEEEIhLgMA9Lnn2iwACCCCAAAIIIIBABAEC9whYLIoAAggggAACCCCAQFwCBO5xybNfBBBAAAEEEEAAAQQiCNSLsCyLIoBAGQr8M3GSGzNunGvVooVr1bJFGdYw9yp98/0PTsfXqmVLt+pK3XLfEGsigAACCCCwCAiUTYv7hH8murHj/nZz5szJyjpx0r/esjNnzcq6bKUtMOGff9wzL77sRo0ZW2lVp74xCXzyxZeu9/U3unc//DimGhRnt8NHjHQ33Ha3e/Dxp13jRg0LvhO+awUnZYMIIIAAAkUWKJvAve8td7izLr7cjRo9Jush3/fI496yP/78S9ZlK22Bt9//yL346hvutYFvV1rVqS8CBRV46Mln3Ny5c12PA/Z1y3VZpqDb1sb4rhWclA0igAACCBRZoGwC9yIfZ8VsfsWuy7vWrVq6VVbsWjF1pqLVK/Dv5Mnuoiv7uHF/jy8owoC333M/Df7VHfq/fVz3Df5T0G37G+O75kvwGwEEEECgUgTo415mZ2qVFbu5Pr0uLLNaUR0EUgt88/2P7q/hI0J1cUu9hdSv1q9f3/U8/ii3xqqrpF6gAK/yXSsAIptAAAEEECipwCLb4j579mw3y35KVcL0zU9VF3UFUF1zKbmul2lfxdjmjBkzM+2yxnv57D+sZZjlcv3s5LpeDYTAkzn2+dBPoUqu9Ut3Dr/85rucqjZzZubPxObdN7S7TvkNRs3ns5TqoNIZpFo2V+dU2+I1BBBAAAEEfIFFqsVdAzpfeeNN9/V3P7iJkyZ5x9h08SZumU6d3Dprre623GRjV6dOHe/1F1553X306edur112dOutvabvUeP3bfc84P4cNtydetxRrl2b1jXe00Da9z4a5NTiqIwe06ZNd82WaOqWXaaz232nHVyXzh1rLK8nva7pa3Xp6N3+HzJ0mHv9zbe99adMneqOPOQAr0vAh4M+cy++9obberNN3DZbbFprG9rv0y+85P6fvbuAk6NI+zj+bNzdISQhQYK7O4e7c3C483IcB3ccB4e7w+Hucri7EzS4RICEGHEnBiGZt/616U3v7Mzs7PZsb+/Mr/gsM9tW1d/qzTxdU1U9euw4mzRlqrVwg/Z6L7OMbbz+urbVZhtX2T6fBXVxTHV1GPzFVzbODTCcN3++tWje3JZdpqftusN2tuZqlVtRa5N/PpY693y307YT3PgK2f48eoxNnzHTOnZob/1d3+oD9tnDurhZTbKlN98dZJ9+/qWNHT/eFiz4zbq5a2V5dx3su8eu1qljh2y7ZV2eSqXs5Tfesi+++tbGuOtPqVfPHrbFJhvaNu66qGmq7XnlqsNmrkX86Rdeth9H/uyLc/VNt1njxo39e7mdfvKJ/n1wPZ90zBHWs3s3d15v22dffm2jxoz1XcLSv12q7bXQe5ledsTBB/hr7l03SPfnUWP8ddexQwfXaj/Q9nZ/5/r7DKegbNn+1rRtLoP067jQ10G4rLxHAAEEEEBAAkUTuE9yQftFV11nc+fOs149utuqA1fywfRPLrD4fthw+2PRH7bN5ptW1PrsX3/1A2EVVGZLU6fP8NssytAifvt9D9pPI0f5YGT1VQZao0Zl9tW3Q/xNw/fDfrALzvynXxc+tsqooGz8xEl21Q23+DLppkItgz1cUKM0Z95cn6f6DqcnBYf3PPQ/W/Dbb/4GYOMN1rXZs+f4QPO+Rx7zNwHHH/EXa9asWfquWX8v9DHledMd99qQ4T+YgjsF6x3at/d9oEf8PLpKOWqbfz6Wyizf7T7/6hu78/6HTTMVDXTjC9RFQwOlP3PLv3fncvJxR9nKKwyoVH7drN105z3u+vrB2rRubSv2X95au9exv/zibwp1U3fs4QfXqLuH6lZ+3w0d5gPb9ddd23dDUX9vza6ivP567JGVypHrl9qcVz51qGu4gwvQW7dqZbrx7NGtq7uJbOGL0tYZBCm4nqdNn24KbN9+/wN/Y7Pqyiv5G6NgO71GuRY0ZeQL7ob3yede8n8ba62+qvv7WmTDfxxh737wkb8eLz77DGvaZOk/eUHZMv2t5WMQlL0uroPg2LwigAACCCAQFlj6KRZe2gDfv/Hu+z5o32vXnWz3nbavdAZqiQ9a2iutiPDLgXvv4VsY+y7Xu+Io+nr8ngcf9UHbC6++Yce4VvT0NHXaNLvGtU6u5m4sjjj4QGvePL8gW98gKGhPuf8UuK2z5uoVh9bNys133WdffvOtveS+cdhzlx0r1uV6UxfHfN59k6GgfcUB/e3Eow619u3aVRRh9q9zXGDbquL3qPnna1nddnPmzrU7H3jEFrubqrNOO7nSDCZqHb7pznvt3ocfs4v/86+KVmWdxHOvvOYDabW8Hnf4IdayZXngqnWfuJusu90xb7/3IbvsvLNcYL/0vLU+W9J1o6B9w/XWsaMP+bM1WRJoKpC8/pY77Yuvv7UPPhmc14DN2p5XPnXYuFEj23bLzez8y6+xuWPm2UH77e2D92zn9dTzL9tUF7yfdtJx7tpfucpmUa8FTe344qtv+m/Hwi3huhG60H3TpRuNt94bZDtss1WVvDMtyMcg2K8uroPg2LwigAACCCAQFiiaPu7Tps/056WvxdOTWgPTu7qkb1PT3/v36+u6wywN2rW/WvM2cl1WlDQHdaY0xwXZ7dq2teOPPDTvoF3HeebFV31L+3ZbbVkpaNc6BcPHH3mIb+FWVwS1PuaTCn3Mae4bijdcq6ocTjzqsEpBu8qjrgoK+IIUNf98LavbTtNvLliwwNZfe81KQbvKqW5UCgTVcv+p6/oTJM2iom4U6gJ0zGEHVwratc2GrqV8my029a3Rz738arBbzlcFr6+//Z7fRl24gqBdC1q1bGkHui47Sgoq80m1Oa+a1mE+5dA26tp1zKEHZwzatT7qtaBjqBtROGjXMtVP0BVutOuelk+qiUFdXAf5lJFtEEAAAQRKU2BpFNXAz3/F/v38Gdz3yOP+4Uz1dTrqZqGkICxb2nOXHbKtyrpcrdhK2fqxt23TxtZbZy3ToL/hP/6U9TjhFYU+5g8jRvpuP+u7crRv1zacVcb3hcg/X8tc233jxkQoqQ95pqSbNKVxbvaUIC091zV9d5Fgefg16I+uLjP5pKHDf/L1p2uoa5fOVXbRjaKCeY1tyOfhY9HOK786rFLILAtU9vSgOrxpIa4FXXeZUpDvFPdtVz5pad1Wb7B028JdB/mUkW0QQAABBEpToGi6ymy39Rb2w4iffXeRf59/ia21xmo+yM30tXyhqlp9Y4e4PsfqCz99xgzXujrfFro+0kqu10XWtNyyVQeuZt3YrdCsItNcC6+CtlyPtA++VVBgV12qi2NqYKFSd/cNR3WpUPnna5ltO80wM8XZqivVW+994H/Syz55yXlNDrkG77t2qTxoObyv5uPXgE21yiqfRqFvG8LbBe81yFlpzpy5poHRmVKjJYOrZb2MG7CaLdX2vGpSh9nyzrS8T+9lMi32ywp1LWhQbKbUyvXDV/rjj0WZVldZVhODurgOqhSIBQgggAACCCwRKJrAXQHSX489wj757Et75c23TYPy9KOZLHbfaQfXhWWdGle6BpJmSupWcd+jj7vZMb7xLcwaoKegoU2b1pUGv2XaV8vyaY0O7zvbtd4ruOlYTSt20J9cX/VXl+rimOrDrNSh/dJ+7dnKUaj887XMtp2+GdFUngrcvxs6PFtxfat6oyWzpmijGTNn+W2zHVcrdcy27ppQ1yXloxlOcqWg3hTAa1abTEnzm+unuqkOa3teNanDTOXLtiy4NjOtL9S1kD5rTKa88llWE4O6uA7yKSPbIIAAAgiUpkBiAvd2CkrdzHeaoaK6pEF3SunBgAIlBej60ZR+6i+sQYK33fuAjRw12g2g26u6Q1daP3/JjDPhAF7vr7v1Tj9bhQaIajDssr16VuynuZ6PP/VfFb9neqNy1iRpVhb11VVLbK40Z8lMNLmCyWD/ujhm29bl0+0F9RPklem1UPnna5ltO80Co9TczcRz45UXZypqxmUaN6H0a3V14sY0KG91ZaouKchX2nPnHW3HP21d3eY519f2vGpShzkLUIOVcV8L1RWtJgZ1cR1UVz7WI4AAAgiUrkBi+rgv06P8a/8Jk6ZUWxuapk/BUK8e5VMoZtpB86kfe/hf7Ew3S4gGRL7+znt+er9g28aNyuec/i3Hg2CC1rRgH71qXnJNMaduECcefXiloF3rZ84qb4nV+0IlnWsfNy+8Zq3J1XdeXT6U8umqUhfHDPplBy3Huc6/LvLPlV+2dZqyUt2PNPuIZibJN+n6UlI3mGxJdaWW8c4dO1YaaJpt++7dyq9nzbseNdX2vGpSh1HLGOyflGshKE9NDOriOgjKwSsCCCCAAALpAokJ3IMPQM3zrP652dInn31hmiVE84PnM1+5HqCjQZtK4b7fnTqVd1tQH/VMacTPo3wwl75u/ISJflEPF2SFZ0gJthv+04jgbUFf+y2ZweYD94CmTEkt/Z9/9bW/oVnenXM+qdDHDGbZ+fTzr/wgy+rKUOj8q8sv2/oB/fr6Ve8M+ijbJlWWBw/YGvzlV5btiZqDPh7s9xvQv2+V/TMt6N93OV9/moJSU3xGTbU7r/KZkvKtQ90gKKm7S5SUlGtB51CT67guroMojuyLAAIIIFDcAokJ3Ddcb23/lEpNG6eZYfRQk/T07ZBh9tDjT/vg5i/771NptVrC1Q88Pan/cjCATA9mClLP7uXvFbirz3o4ac7sx55+Pryo4n3QGjfMzdySHlxpvvgnnn2xYttCvtnSPfVV0z7qybAyCied98NPPO1vaDbfeMMqD34Kbxt+X+hjKohR9yF1lVE9yT6c1M1ILdtBKnT+wXFr+rrP7rv4sQmvuKk0v/zmu4y7q2U9XHY9bEhPttU18MiTz1S59vRkXB1PA4r3ck/SzScFT0fV9XfH/Q9l7DYmU01NmU+qzXnVtA67LJn95qvvhuRTpKzbJOVaUAFrYlAX10FWJFYggAACCJS8QGL6uOvrcj2y/Oqbbrf33CPL9aCZAcv39dPiKbD+xbV0j3SPMdfMHHvvtpN/SmW49v731HP+iZWax12PnG/RvIV7XPw4+9HNNKOAWvNqB0G39tN2aplW3/ezL77S9BRSDS5VkP/F19+5961sheX7VTzSPcirj2v57tN7WR88X3DltT5Q7eQGHepx9x99+rmbUnAj+3bIUNfiXD67TLBf1Ff1pf37CcfYFdffbBdfdb3piZq9Xd/62a5f+/duUOWYcb+YAj/Z5Jvq4pj777W7G18w1tehnlq78ooD/Dcjo9wyPeZeYwK232ZLX8S6yD/fcw9vp+viwH32tIcff8r+e9tdtpJ7eNRybhaUli44n+G6Po0Z+4uvbz15M3zzd9C+e/lBqnoyp85NTwNVP/Wx7iZysBtboRuqA5yHrsd803577GYj3fiMr10gfNaFl9kqK63o99eNrAZNDv3hR9OTek9wzwGoLtX2vGpShxuuu5Z96B4I9dpb75q6SA109a0HbaU/BK26siblWgjKWRODurgOgnLwigACCCCAQFggMYG7CrWMC0QvOecMe+aFV+xj1yXmq2+/ryirBmeuuvKKLhDaw3ov26tiefBm3bXWcPO3T7X3P/o0WORfNdOEgsWdttum0nL9oieQPvb0cz4vPaxGSQ+6WX2Vle1wdxPx0mtvVgnc1T3mJDd7zf3uWwF9A6BWVSUNCN1vz11t+6239INhNSd3oVP/fn3tbycc7Vv1FSwFSQMfNR3mfnvultesNsF+ei30MTUl5UX/Od21uD/lW681xaKSnhDbp3dvX8d+wZL/FTr/8LFr8l4PS+rfr48L3p/2N3PhLk966unmG29QZTYg3Wwed8Qh/hoa5K674JsQzXCkAcsH77+3v/mrSTn0rcq5p59qz7mHLOkG9qPBn1faXV2/1nXfauSbanNeNanDNVZdxfZ131g8+9Kr9qm7WdGPWqFrGrjrfJJyLagsNTGoi+tAZSAhgAACCCCQLlDmui9knvMwfct6+F0t7eqXrieNZpujOb1Y6rqgQYG/L/zD7dOuyswz6dvrdw0gVFcIfQDnM7AzOIa6NGjOZ03zV6ip6IJjV/eqOeQ1ZaBm5MhnFpnqjqf1dXFMlVH12NN1U5JvrlQX+efKL9s6Pwe6q9ff3MBlXXuq2+rmYPfXkGtxVlcWBX3hp55myyef5ZplacrU6S4Ybu6n2dQNbG1Tbc5LeeVThzp/deFZ7P450d9Q0Pe9tmVNyrUQlD8fA21bV9dBUA5eEUAAAQRKWyDRgXtpVw1njwACCCCAAAIIIIDAUoFGS9/yDgEEEEAAAQQQQAABBJIqQOCe1JqhXAgggAACCCCAAAIIhAQI3EMYvEUAAQQQQAABBBBAIKkCBO5JrRnKhQACCCCAAAIIIIBASIDAPYTBWwQQQAABBBBAAAEEkipA4J7UmqFcCCCAAAIIIIAAAgiEBAjcQxi8RQABBBBAAAEEEEAgqQIE7kmtGcqFAAIIIIAAAggggEBIgMA9hMFbBBBAAAEEEEAAAQSSKkDgntSaoVwIIIAAAggggAACCIQECNxDGLxFAAEEEEAAAQQQQCCpAk2SULC58+bZ1KnTbP6CBbZw4R9JKBJlQAABBBBAAAEEEEiIQNOmTaxlixbWpUtna92qVUJKFX8xylIuxZ/t0hynuIB94qTJSxfwDgEEEEAAAQQQQACBLAI9unezri6AL8VUry3uamlX0F5WVmbdu3W1Du3bm+6oSAgggAACCCCAAAIIBALqkTFz1iybNHmKjx1btWpZki3v9drHXd1jlBS0686JoD24PHlFAAEEEEAAAQQQCAQUIypWVMyoFMSQwfpSea3XwF192pXU0k5CAAEEEEAAAQQQQCCXQBAzBjFkrm2LcV29Bu7BQFRa2ovx0uKcEEAAAQQQQACBwgoEMWMQQxb26Mk/Wr0G7snnoYQIIIAAAggggAACCCRDgMA9GfVAKRBAAAEEEEAAAQQQyClA4J6Th5UIIIAAAggggAACCCRDgMA9GfVAKRBAAAEEEEAAAQQQyClA4J6Th5UIIIAAAggggAACCCRDgMA9GfVAKRBAAAEEEEAAAQQQyClA4J6Th5UIIIAAAggggAACCCRDgMA9GfVAKRBAAAEEEEAAAQQQyClA4J6Th5UIIIAAAggggAACCCRDgMA9GfVAKRBAAAEEEEAAAQQQyClA4J6Th5UIIIAAAggggAACCCRDgMA9GfVAKRBAAAEEEEAAAQQQyClA4J6Th5UIIIAAAggggAACCCRDgMA9GfVAKRBAAAEEEEAAAQQQyClA4J6Th5UIIIAAAggggAACCCRDgMA9GfVAKRBAAAEEEEAAAQQQyClA4J6Th5UIIICCGOmqAABAAElEQVQAAggggAACCCRDgMA9GfVAKRBAAAEEEEAAAQQQyClA4J6Th5UIIIAAAggggAACCCRDgMA9GfVAKRBAAAEEEEAAAQQQyClA4J6Th5UIIIAAAggggAACCCRDgMA9GfVAKRBAAAEEEEAAAQQQyClA4J6Th5UIIIAAAggggAACCCRDgMA9GfVAKRBAAAEEEEAAAQQQyClA4J6Th5UIIIAAAggggAACCCRDgMA9GfVAKRBAAAEEEEAAAQQQyClA4J6Th5UIIIAAAggggAACCCRDgMA9GfVAKRBAAAEEEEAAAQQQyClA4J6Th5UIIIAAAggggAACCCRDgMA9GfVAKRBAAAEEEEAAAQQQyCnQJOfaBrxy/vwFNnLUaBs1dpylUinrt1xv6+t+Wrdu1WDO6tc5c+yb74f68q40oL916dwpUtm/H/aDzZw1y1q2aGHrrLl6pGOxMwIINHyB74YOs1mzf7VWLVva2mus1vBPiDNAAAEEilygKAP39z/61K656Xb3gTS7UvU1btzInrz/DmvXtm2l5Un9ZczYX+zsi6/0xTvrtJNt2y03i1TUex9+zD7/6htbplcPe+DW/2Y8ltb/9tvvttH661ijRnwhkxGJhQg0EIEZM2fZx4M/t3XXXsO6delSpdR3P/g/++rb7225ZZexe2++tsp6FiCAAAIIJEug6AL3Dz4ZbOdeepVXVsvySiv09y3uI34eZf379W0wQXt9XCZDhv9g/zznIp/1Oaf/3bbabOP6KAZ5lqDApMlT7JPPv7RJU6baFPej18aNG1vXLp1dwNnZBq60gm20HjeTNb00Lrv2Rhv85dfWp/eyds9N19R0d7ZHAAEEEEiYQFEF7uoSc9cDj3hifeBfe8l51qtH9wpydZ8hZRcYP2FSxcpfJkyoeM8bBOpCYNGiRTbo48H24mtvuG+CvvU32Lny6dSxg/1pq83t4P32srZt2uTalHVLBMZPLP+b1o3RH3/8YU2aFNU/+dQzAgggUHICRfWv+IifXZ/2MeN8Je6z+86VgnYtbNmyRclVcE1OeOP117W1Vl/VFiz4zbbdIlq3nJrky7alJ6AW9fMvu8aG/fiTP/kWzZvbZhtvYP369LaunTv7lnYF9lOmTrNfJky0dwZ9ZOPGT7DHnn7evz/7H3+zVQeuVHpwNTzjg/bd0x58/CnbZbttCdpraMfmCCCAQBIFiipwnzh5coXxqivzoV6BkecbDdy95uJz89yazRConYC6xFx6zQ02+9c5/ub6wH32sG222NQPkMx2xCP/cqBpIOX1t95lukE/5cxz7cxTT7atN98k2y4sdwI7bbeN/wEDAQQQQKA4BIpq9OFE93VwkDp2aB+85RUBBBIi8OU339lZF17ug/ZNN1zPbrv2ctt1hz/lDNqDoq82cGW7+apLbJftt7VFixbbVTfeamN/GR+s5hUBBBBAAIGiFyiqFvcpU6ZVVNisWbOtcWhWlDZtWlvrVuVTQc6YOdN+/32htW/X1lq4AaxBGu2mjvzJDWJVVxEF/huuu7YfIBesD78uXrzYtP2PI0dZG3fc/v36WPduXcOb5PV+zty59uOIn003Hcv3Xc799LGmteyHqj7+CmR0PA3MXXGF5a1Lp/ynkFy4cKFNnzHTl7t9+3am7gvVpdm//mo/uPzUpaGvGwDXz51DdfsF+TRu0rhS+WT648if7efRY93UncvagH59s369r/66w38cYaPH/WLdu3axZZfp5V+rK294fW3rsBDXj8oxcdJkGzl6jDdX/22dR78+y1WZzWfe/Pn2q2udVurcqWNWE7+B+99Md+3/9ttv/trNNIVovuVffZWVbd68+f6wHdzfQ/NmzYIssr6qXqZNn+HXt2rVslJfdLWwa7Ck3PfdYxc78ajDsh4n24qmTZvaaScdZ5Pd9Tb4i6/sgiuutduvu8LKysqy7eKX65zHjZ9o4123Gw167dm9m3Vylo0y7Ke6UD5KSblWdQ1McP3VJ7hrRv8+6d+anj26Vfr78QVO+19Q1+l/a2mbFfzXfK/tTBmrX/7P7u9i7tx5/t8TTeObz7+JSamrTOfEMgQQQKBQAg0+cP9hxEh74dU37KNPP68IGITzf/88q5LRMYcdZH/eZ0+/7MIrr/dToJ141KEugNjVNF/6xVf/1z79/KuKfTSI65UnHqz4PXizYMECu+6WO+2dDz52wf/vwWL/2sEFu6eccLRtsclGlZZn+kUfTJe47gL62j+cmjZtYuuuuYad8feT3E3F0sBZQXm2pHV3P/ioPfX8yzbflS+cFOgdd/hf/KC+iuNlOdTQH360U/59nt/9nNNPcbPKZO+GoKDpulvvdMHE0u5J2lFTSG620fp26v8d52bwyTyAMMinefNm9tJjD9jv7obhiutvdtPWfVGp/M1c8KTZRM7+5ymmYEpphJub/4bb7nZ9o0dU8dcUln877qhqb6Ci1mGU6+c3d83cevcD9tpb71Y6V39y7n+6YTz60INspz9tHSyyV9542268417/+x3/vdL6u5u7XOnKG27xfw8aoP2/u2+psmm+5b/ODe4+6fT/+P3323NXO+HIQ6scK33BS6+/5f8+tDx9CtOrbrjVpkyb7md60jWZntSnXfWrv4mx7oasubtx1N+UpiocuOKASjfZZ556kh1+4t/9tp+5WVPWX2et9MP53xUE3n7vQ/behx9nXJ9p4VUXnl3xnIP6vFZ1rbzr/p152Zl+/d2QTEX1jQvHHn6wv+HLtEFQ13FM91ibazsos/4tve3eB921/k6VvwvdaK252kD7519PyPm3XZ91FZwHrwgggEBdCzT4wF3B9ieffekDRrWoz503z5sp0NM/+EEKWtuD3/Wq1mV9YOir+++GDverFLArEFaLXPo85hr4et5lV9sYF1QoqWW5j2sZVmuoWsLU0nmeG3Cnr/LVKpgtvfXeB6YgZoFrFVVSgKqWaj0IRbM/fPzZF3biaf/2NwHZjhEsVyvmhVde5+dnD5Z1cy23CgBVTrV+6gZBLdNt3bcOUZNs7nvkcXvgf09WzALSw7X+KT897Eoz97z34Sc2ZPiPdv4Zp/nAO1uemi9++E8j7OY77/P+8l6mZw/foqwBiQroFbD8+4JL7bpLznfnMM7+de4l/kZLdbvcsr1cGcwUnCnoU+A/7Ief7MHbb8ja9aJQdahzqun1o5vMS9wN4phxS7t3qO71bZDm25atXjs5yzhSdeVfZeUV/bce+hbq9bffs2MPO7jS31SmMmo7pTZuvMTmbrBpkEaOGuNmkPnUX+tnnvrXKscZNWasv3lOv5EN9tczGM4/4x+2ieteo9S+XTvbbust7IlnX7SX3Y1NpsBdxzz+1H/7v3HdEG+20QbW230zo5vbH34aWSkY1rMNenXvbvrb0fWcnurjWn3ptbfshtvvriiKBtfr76NRWSMb52Z90rchGi/wzZChdu9N1/oBvRUbx/wmyrX9k/vW8qKrrq/4d1VF17dP+jZ03Pjx/m/7i6+/s2P+9k/7+4nHVjuuoT7qKmZuskMAgRIWaPCB+1/239v0o/SQmz3hrgce9e9vvfayar9Gnupa/y50HxgK2jd1rcQHuRb5Af37+S42aoUPJwX4p597kWkf3QT89dgjfOAQfEWvIOhS1w1ADzB68bU3bTU348UO224VPoR/ryDz0mtv8H10FUycdtLxto0bYBdM06bW4Eefes4efOwpO+uiy6vsn77g1nvurwja11xtFTdg76+VPsD1gXrpNTfaQ+54yi9qeubFV+z+R5/wh9lg3bXsH389vpKzWpI1gFBO8tDc0eEbqPT8/3n2Rf4G5rgj/mJ77rJjRXcMOaiVWS246vrzj3Mu9F2TFNz+8+QTbDs3LWBgpu5GV994m2+d1M3TQ48/bce4Vuv0VKg6DI5bk+tH53PmBZdVdEXadcc/2d677uxvPnTDstB3/fnJf+uTKQgN8izkaz7lVzn1DZNcP3TfaoWD8fSy6NrW03mVtnLXdLNQ15rX3n7XL1fgreA5nD789DO74PJr/Y3asr16+uBc846ru5tuiJ9/5XX/91LWqCy8m//7UuCuZzfIL9ydQjdyuv5U57qJ19Sw6fnqBloBo5LqYq9dd6x0/PRf4rxWlfd2W29ujz/7gm216Ub+XGUSJHVJus/9HervWjfLN915r53nbpTrI0W5ttV4oRtzNTDo7+CwP+/n/h3YoaKLlervE9c4c7UbzxA0UnTv1sVWWWnFnKcad13lLAwrEUAAgQIKFNXg1Jq6vOk+uD9w80gfeuC+duGZ//Stw/rw1weIWvTCSd1QFOgoUL/knDNs+222rNSvVsHB5eed6QMx7Xenm09eH2jp6cHHnvRBiJZfeNbptr1rNQwCUC1TK9PhB+3vupoc6/rX/qFFWZMCpaCFU0H7FRf8p1LQrh1X7L+86SZGQUt1x8ua0ZIVOh+1tCutu9Yadtm5Z1YK2rVcLiq7kqbve/qFl/37bP/TNyT/cN9OHLDX7hVBu7aVg7610Ff8SkNdC75aGC919upGEjZr07q1v2EJ+nO//f6Hfp/0/xWqDoPj1uT60c2Ybu6U1J3qVNdy2Nd9W6NrTUnXnQZfavaUYJlfUYf/y6f8mjdd4yWUXn7jrZylefPd9yvW7xi6aVWf9jfeKV/3py03r9hGbxR0XnvzHT5o39IFqLdff4Udf8Qhvo4128wJrjtbkFq7PvPhpC5D+tZL17XGWISTWtR1w6d01CF/rhK0a7lmstENu9KjTz3rX3P9L85rVeXQdf3wHTfasa5bUTho1zpd/0e5a2U1Nw5BSfPg11eKcm0/+uSzFV0c1T3vkAP2qQjadT66+dPNogYxB/8m3+S+oasuxV1X1ZWH9QgggEChBEo6cFfr7corDPCBci5QDZJ6xH3AKG3rPuw1aC9TUsB10H7lrf9qQXrfdQ0IJ81d/frb5QHMqq4bwgZZ+uVqnx1cABwEouFjhN8/8sQzFTcBB7tvHcItjuHtNKhQ89pHTWr9U8urbl5OPu7IrIdTQKSuB0rPvPhq1u20omvnTr7/faaNlE/46a2aY36NVVfJtKkfTKhZSpSmTJ3qB0CGNyxUHYaPme/1M2v2bHv8mRf8rhp8uvtO24cPU2/v8yl/q5YtbestNvFl1LiGYOBppkIH17ZutsItovrWRzctGqyqb2nC6QF3I6tjajyEvklJH9gcDI7VPi1dWdJT8DeSHrj/7LrJBEk3tdmSvhlT0v4aaJ0rxXWt5ipD+jo9TVZJgar+NuNOUa5tlVfz8itpLEuusUEajLvvHuX/hukm/p1BmW/Og/NPYl0FZeMVAQQQiCJQ0oG74I4+9M/V+mnQU9B1ZlPXTzZXWnmF/hWrx4b6MmvhcPewGX2Fr7RbNcGbupdU9xCkIcPLuyXo6bDruRbwXEkt+1GTvrJW6tN7mYwtmMHxFXCrpV9Js+WoG0O2tJF76FOurjTq6xqk9ddZM3ib8bV71/K+yZoqMD2QK1Qdpmecz/WjgbTBoOF9C3ADlV6GKL/nU35N16gk16DLS3qeGlugb1iUdth2y0qrJ7sbViX1IQ9/U6Jl6lqmtIvLQzcJ6UkBaZBaZ1gfDFrW7CnhFOSpZRrgmi21a9u2YpXGF+RKcV2rucqQvi789zFlWuVvHdK3rYvfo1zbGt8SjPPZe9edqi3enjvvWPFvRXXfMCSxrqo9QTZAAAEE8hCI3uk5j0ySvMnKbraK6pIGSgZJrdr6Gj5bCj6ItD4IZIJtw/PM6wmR1SUNlMuVJk4qn7de06VVl9T1RK2a6ida2/SLm05PqUe3bjkNtE0QjKubhKbgS/+qX9sodencsfxNlv+Hn3bbrUtuj/C2892UeeFUqDoMH1Pv87l+NI1fkJZ304YmKeVTfn0rNWD5vqZBhC+//nbF7Ezh83j9nff8rxpEuv3WlQP3KVOn+3Wa4Sg9BTe32a4PTYMYpEwt7kFgn/63ErTEa1/9HQY3ksGxgld1N1PSIGH1r8+V4rpWc5VBfds1FabOW1Pahq9rfYMSd4pybevfhSAt5xoDqkt6QJxa0vXvaPq/ren7JqGu0svE7wgggEAhBEo6cNeHe6ZWvnTY8ROWBl7/ufiK9NVZf09v9Q0Cbe2Qz/zqnTt1yHpsfa0ftOKGg5SsO7gVCpxqG7grgNLX4kqa9UY/+SZNAZgtMOvUsWowl+24QetqtvW5lheqDsN55H39hAL3rp07hw9Rr+/zLb8KqVZ3DVJVwPTtkGGVuovp5iwYV6CxD+kBusaGKHVOu0lT95ngRjfccuw3XvK/8N9Meh93bRK0kqffvKoc6rqmsj3huimdedrJ4cP69xqzocHUSuqqEdxs+gUZ/hfXtRrOWt8k6Gbpw8Gf+xmnZJY1QI8/bvczOgXlrem1Hb7pyHdfTXGqwD28b5B/+LU+6iqcP+8RQACBuhIo6cA9n6Bd8OGvoGsSPLZtU3ke8/DX+Xr4U3WpQ/vs0wJOn7H0a/1cXQHCeZQfb2nf3/C66t6Hb0LUsh0MWKxuP61vEpqWM337TMFY+jbB72rNrW0qVB2G88/7+gkNnMy3rsL51PR91sAu7UD5ll+7aZDqbfc86G8WNUg1PM5jsJtHPehfveO2W6flYm5MRPkitRCHU1v3DVAQXGsMQqYUTL2q7cKz1GhbTZ2qQFat7ennoulc99ltZz8ryxvvDrLFrjVac9Evt8wypvnGfxr5sx9Aruta13IwoDpTGYJlcV2rQX433nGPPffy66ZWdiWdf6+ebspK982T/v3QPPd60FG2Od6D49Tla/jfhZpe21OnlT+oS+XL9syH9LIHA1TD/5amb6Pf466rTGVgGQIIIFAXAiUduOcLGm5BvPvGq92HTPVBd6Zjh4N+tXxX90Gnp18GSf3Gwyl8rKAlPLw+0/ugddMqHyrTplWWhb8h2GGbrXIOTq2ycwIWFKoOa3Mq4bxVVx07ZP8mpTbHT99nzpy55YsK2HVCgbEGHWuq03cHfWwnH3tkxQOR3lwyY4xuVINZWsJl6r1kZqBxv5T3gQ/WqduZWv3VH11PkA3maA/W6/WdQR/5X9VyrlZWzWMepLfe/8C/HdCvb7Co0qtmpNHfye33PWSa+lE/6UmDqE85/uicYzbS94njd03vqFmQlDQoe/89d/MDe3UDE06VHs5Ui7/r8LFq8z7Ktd2u3dKGjenum4XwvzHZyqLtlPJtoc92HJYjgAACDVWg8qdAQz2LOi53eP7noAWwNlmqb3iQgu4Dwe+ZXtXFJEjprahqoQr6dOdzLB1natDyW4uv1NW/NLjRiGIQnE/cr4Wqw9qUW4OHg6T+yXWdwq2ghcxLc7orqYvWIDeNqpJarz/45DP/XoF9ppmNgik99TCd9BTMBPTcy69VmdVF87frCcPBA5G+/Oa7it3VP/rRJ5/zv++9W/aBjerio2k3lTR14ooDlrf11l7D9th5e/ckzuP9g4vUrSZJSa3oTz73ki+Sn+b1/LNMTwVOD9q1wZws31TEdT5Rru1OoRvYKVPy+7uYEgx0Dt3AxXWu5IMAAggkQYAW9zxqIRz0aWCq5tuuTdKDQ4I0euw4P+Av+D3Ta3hmjEzrFdD8PHqsezDRL5lWV1qm2WyC1qpKK2rwixzUJULBlI5XXZ/gGhy6zjctVB3WpqC9eixtJdb1s9KApTMP5XO88FN/9ZTeXEn1Ms11H/Ep7VuaXPvls07lXsE9oEzzo6v1Wt1nPnRBezDWQvPrZ0p6wq2SgkxdP8ENoJbp4Wnqw62bz2NP+Zd/roG6Q3w/bLhvbdcUgX87/ij7y3F/9U8R1QOeNEDx1Tff8TM9abrQddZcXYeqkjQT1N/OOMf0tFxNNZmtfFV2rOcFwUOsVAw9hTl9Jp5w8fTvSEWqxQ15xb61fBPl2g6m4lTWP7quSxpnkCupW1RwbYe/ecm1D+sQQACBYhOgxT2PGlUrXdAnXQ8bqehykse+4U0GrrhCxYfws66FMVdSC3umr/bD+6y+ykD/qwYMfvF17gewaPCgpvOLkoInempA4NMvvhLlULHvW6g6rE3BNXNLMD+5nvSZ/u1JdcfsFWpdDGZBybbP667bStAn2mWUbbNaL99tx+38vp+5aRz1xNp3PyjvyqL56WWcKakLTccO5eM19JTUcFK3oWsuOdc/4l43qnpisLqJvPvBxz4g//epJ/l9D3bPR9CDlhSwaxt9G6UW/n+7JwVnS4M++tQH7ZrBqaEE7ToX9d0PkuYvz5b0VNHq/u6z7Vuo5VGubd1wBX3b9YyI6v4unnDbqMuUkr6BICGAAAKlKEDgnketq8VTT19UUsugBo1VBEdZ9g8+YMKrNSPCjn/ayi/6zs3MkR7EhLd91c12Ud2UZ3/ed8+KG4H7Hnncd1sIHyN4r9kzHn7i6eDXWr8esNdu1rNHeXef+x99wvRgnepSJofq9qmL9YWqw9qUTS3M+zs7pbG/jK9xXYS7I6hLSbakKQIffjx6PWc7vpbr2QLqoqXr/yM308mnS+b2Dz8pNdP+wRSRd9z3cMUzEYLtNN3kXW7syGXuycNHH3qQC8ZPsifuu92uuvDsiqfpHuSu9f9efoH7OzzQTjz6MLvlmkvtP//4W8auOcFxxy2ZblBdh/IdBxLsW5+vwZgAlUHz42dLejpzeIrZbNtFWa5/O/S3ftFV1/vZhNKPFeXaVtef4MFwmmr2f65RJFvSVKTPua5TSmuvsZpt7J7/QEIAAQRKUYCuMnnWur6yfuHVN/z85S+99pb/QD38oP2tf7++vg+uBpKqFVCBmboPqN/vI3feWDGAL8hGXQPUaqjWw3MvvcqOOexg33KogVkKcvVB/IxrzVYfVw38yvWkSk2hp5ZE9QXWFH1/+9c5vlvBANedQX2NFcgNcV0L/nvb3X5gnwbq6evm2qambq7r/zv6cPvPRVeYBkD+3z/OsgP33t023XB9P91j8+bN/PR8U6dP9zNdvP/hJ372ET2yPQmpUHVYm3ORk64f+d/1wKO+JXg312dc149mNVE3plGu29MHnww29WvearNNKrLRdbCZe/DXIPckXnW1Of/ya+w4Z9rDzZyipIHO3w4Z6rqS3OMfPBW1nisyzvBGQbuCd53L3e489O2Tukyp20yudPjB+9u7H37sZ0G58/5H7O8nHlNpcw1+1ZOEcz1NWF3UatJNbZMN1nP94J/1XXQOPvavtrz7ViA8F3yzZk19S78cdU7BtwKVClYPv6ziuozoGxrZ3vfo4242maamc9GNv/6N0FNh77jvIX/TpP776gpUV+k99zd878OP+cPrIWYP3X5jlayiXNsH7buXKY8RP4/2g4jH/PKL7bfHrv7fEwX2uunSDeItd99vv/32u+/nf6IbdExCAAEESlWAwD3PmtesLpede6afy/o9F4CMHDXGzrnkKr+3ApfgiajVHU5TuV101ul2yTU3uFbAX+3Wux/wP+rXO9/Nlf77woX+EKuuvKJd6LY78KgT3YNWfs962BOOPMR3WVBXGLWA/98/z/Kt8G3btK6Y41p9ZM845f9sqnu0/J33P5z1WPmsUABxzul/t+tvvcu3Yj7kWnj1o6TpGtO746y65JHy+Ry7rrcpVB3Wppx6ANZVF57j6v2//kFGb7opCvWjMukn/M1Epjnv/++Yw02DM3Uzpm4k+mnVqqW7QWta0ZrctGkTN1/5X/0Dr+55qDzYqk1Zq9tHAz4VuE9aMlBww3XXrjbobe6mMjzlhKPtjPMu8TPT9Hb93vW0zEwDLqvLP9/1+hs67M/7+cBz3rz59t3Q4Vl3vcu1XqtV/5AD9s26TVwrdKOmG/obbr/bVG79relHN+rq4x1826eua2e5+en3PuToStdPIcs5KtSHftLkqf76C4+5UF5Rrm3923nF+f9x/5Ze6cY1/GCvvPGO/9HUly1cQ0D4uRO6cdG/Y7rZJSGAAAKlKkBXmRrUvL4WPu+MU13geop/EqNamJXCQbuCp43WW8dO/9uJfp7lTIfXB+5t113utws+BPVVvoJ2tf5pxotrLj7XD+KrbhCWPjTP/ucpfnpGPflRQaA+2NUPXeXTTBqXuy4I22+zpZvyrmem4tR4mQYE3nPTNX4goT5MgxQO2tWl5oC9dredt9smWJ2I10LVYW1ORq2jN191iR3svnVRvaqu1K83CNoVxK6z5moZB+kpaLv/1uv8NyzBoGAFdbpuFMBrysArL/iPbznOFPjXprzZ9lFf9vCTSHfYdqtsm1Zartb07bfewp/vzXfeZyf+48y8ulvpIJq95uPBX1i2+d4rZeR+0cxHx//9DB+0a3zK+muv6e123n4b04++qdp84w1soBt/IHe15upmJ3gCbPrx4v59r113tHP/dWrFtyrKXzdKulY02PeYww6yS885w/cRr8v63mi9tStOfY1VB7r50VtV/B5+E+Xa1jcd11xynv82T9NzKqmxIgjaNU+/6uuuG67y3WTC+fIeAQQQKDWBMhc4FH4EW56K334/1G+5uvtAaIhJdBosqMd+K3jSA466uNay9AfFVHdumtpOH8rL913ODYJtV93mOdfPn7/ARowa5bsE9Fuud522aAYFUSuwvq5XdyEZ6IM4Kd0OgjJmey1UHWY7fq7l6gqhWUHU7UiDNBWca9rN6pKCN10vmjZQ3WI03aJuAuJM/zr3YtODl3S9PnHfbTWaYUhzwd9+70O+r7u+pVlr9dV8MKrz0Ow/OifdeKpb0eSpU323q6++HeKDuQdv+697CNHSWXoynbO6Vxx50mm+dVg3FZpzPpg6NdP2+hvW7DPqlqb+9jdffUmmzeptmbqeqQ+4ulQpQK7pvy9RCz5i1Gj/Lc5Grl95puk+Mx2/tte2jqX6mzRlih9bre5N+fxNZCoDyxBAoHgFGnr8GKVmCNyj6LEvAiUooJuGg485ybf+anChxj3UNOmbglvuut9ee/u9vHbVjYmmo7zEtTLrW5Nc6eobb/PdcdRS+4AL9PMJNm++6z7TjD/6luqlxx6I/UYo1/mwDgEEEECgskApB+70ca98LfAbAghUI6CZbdTqr2BaA35rk9RSf8bfT7JDD9zXD7YcO268aWCiXtXy3c51b9EDevTNjeb31iwi4ad05spz2I/lM7GsvEL/vIJ2HSv44rFN69YE7blwWYcAAgggUK8CBO71yk/mCDQsAU3L9/gzL/hCb7LBuq7rRu9IJ6BuL77ry4aRDlNpZwXfSnrYUz5J/ak//uwLv+mqK6+Uzy5sgwACCCCAQL0IMDi1XtjJFIGGJ6DuLZddd6Mf/KzWdg2yTWLSbDJKevrq++4hTLmS+o+fcf6lvg+5zkmDZ0kIIIAAAggkVYAW96TWDOVCoJ4FNDPL0y+84p8a/N3QYX6QaDBzkKZZ1EDOJKb93WxGgz4e7GeWOe+yq/2MOxu62VE6d+xomvVJLfH60bMPNMVmMKvP344/yjbZcL0knhJlQgABBBBAwAsQuHMhIIBARoGZs2bZsy+9WmmdpqLcd/ddfN/0SisS9Eu7tm3sigvOMk05qQdaKTjXT6akWW02dl1+9tx5B9M0rSQEEEAAAQSSLEDgnuTaoWwI1KOA+p5r8Kim50u5/zRVo57gqtekJz3o7LwzTvPTSWr+96nuqcbqFvOHe2JxRzfdpAa6qgVeT6nt0rlT0k+H8iGAAAIIIOAFmA6SCwEBBBBAAAEEEECgwQiU8nSQDE5tMJcpBUUAAQQQQAABBBAoZQEC91Kufc4dAQQQQAABBBBAoMEIELg3mKqioAgggAACCCCAAAKlLEDgXsq1z7kjgAACCCCAAAIINBgBAvcGU1UUFAEEEEAAAQQQQKCUBQjcS7n2OXcEEEAAAQQQQACBBiNA4N5gqoqCIoAAAggggAACCJSyAIF7Kdc+544AAggggAACCCDQYAQI3BtMVVFQBBBAAAEEEEAAgVIWIHAv5drn3BFAAAEEEEAAAQQajACBe4OpKgqKAAIIIIAAAgggUMoCBO6lXPucOwIIIIAAAggggECDESBwbzBVRUERQAABBBBAAAEESlmAwL2Ua59zRwABBBBAAAEEEGgwAgTuDaaqKCgCCCCAAAIIIIBAKQsQuJdy7XPuCCCAAAIIIIAAAg1GgMC9wVQVBUUAAQQQQAABBBAoZQEC91Kufc4dAQQQQAABBBBAoMEIELg3mKqioAgggAACCCCAAAKlLEDgXsq1z7kjgAACCCCAAAIINBgBAvcGU1UUFAEEEEAAAQQQQKCUBQjcS7n2OXcEEEAAAQQQQACBBiNA4N5gqoqCIoAAAggggAACCJSyQL0G7k2bNvH2Cxf+Ucp1wLkjgAACCCCAAAII5CEQxIxBDJnHLkW1Sb0G7i1btPCYM2fNKipUTgYBBBBAAAEEEECg8AJBzBjEkIXPIdlHrNfAvUuXzl5n0uQpNmXqNAvuopJNRukQQAABBBBAAAEE4hRQjKhYUTGjUhBDxlmGJORVlnKpPguiSpg4aXJ9FoG8EUAAAQQQQAABBBqIQI/u3azrksbfBlLkghWz3gN3ncncefNsqgvg5y9YQKt7waqWAyGAAAIIIIAAAsUhoD7t6h6jlvbWrVoVx0nV4iwSEbjXotzsggACCCCAAAIIIIBASQnUax/3kpLmZBFAAAEEEEAAAQQQiCBA4B4Bj10RQAABBBBAAAEEEIhLgMA9LmnyQQABBBBAAAEEEEAgggCBewQ8dkUAAQQQQAABBBBAIC4BAve4pMkHAQQQQAABBBBAAIEIAgTuEfDYFQEEEEAAAQQQQACBuAQI3OOSJh8EEEAAAQQQQAABBCIIELhHwGNXBBBAAAEEEEAAAQTiEiBwj0uafBBAAAEEEEAAAQQQiCBA4B4Bj10RQAABBBBAAAEEEIhLgMA9LmnyQQABBBBAAAEEEEAgggCBewQ8dkUAAQQQQAABBBBAIC4BAve4pMkHAQQQQAABBBBAAIEIAgTuEfDYFQEEEEAAAQQQQACBuAQI3OOSJh8EEEAAAQQQQAABBCIIELhHwGNXBBBAAAEEEEAAAQTiEiBwj0uafBBAAAEEEEAAAQQQiCBA4B4Bj10RQAABBBBAAAEEEIhLgMA9LmnyQQABBBBAAAEEEEAgggCBewQ8dkUAAQQQQAABBBBAIC4BAve4pMkHAQQQQAABBBBAAIEIAgTuEfDYFQEEEEAAAQQQQACBuAQI3OOSJh8EEEAAAQQQQAABBCIIELhHwGNXBBBAAAEEEEAAAQTiEiBwj0uafBBAAAEEEEAAAQQQiCBA4B4Bj10RQAABBBBAAAEEEIhLgMA9LmnyQQABBBBAAAEEEEAgggCBewQ8dkUAAQQQQAABBBBAIC4BAve4pMkHAQQQQAABBBBAAIEIAgTuEfDYFQEEEEAAAQQQQACBuAQI3OOSJh8EEEAAAQQQQAABBCIIELhHwGNXBBBAAAEEEEAAAQTiEiBwj0uafBBAAAEEEEAAAQQQiCBA4B4Bj10RQAABBBBAAAEEEIhLgMA9LmnyQQABBBBAAAEEEEAgggCBewQ8dkUAAQQQQAABBBBAIC4BAve4pMkHAQQQQAABBBBAAIEIAgTuEfDYFQEEEEAAAQQQQACBuASaxJVRbfKZMXOmTZk6zWbMmm3NmzWzDu3bWfeuXa1lyxa1ORz71FLgo8Gf28RJk22lFfrbKiutWHGUF1593Qa63/v37VOxjDcIIIAAAggggAACdSOQyMD948Ff2JvvvW8/jRxV5awbN25sqw1cyfbfa3fr1aN7lfUsKKzAcy+/Zk+/8HL5Qd3LgOX72k5/2sbmzJ1rz7z4qm2+8UaFzZCjIYAAAggggAACCGQUSFTg/vvvv9vdDz5qn3z+pS9s72V6WZ/ey9oyvXrab7/9ZpOnTrVvvx/mA/pOHTtkPKG4Fv46Z45d+d9b7OTjjrIunTvFlW3s+bz34cd2gLtJWm/tNU0t7y+/8ZbdcPvdvhwbrb+OtW/XNvYykSECCCCAAAIIIFCKAokK3O+47yH77KtvrEXz5nbon/ezjddft0qdLFq82Ka67jPapj7TN98PtbG/jLdFixbVZzHqNO85c+fZdltvYdtttYU1atTIdttxO9t2y83s2yHDrFnTprbmaqvUaf4cHAEEEEAAAQQQQGCpQGIC908++8IH7U2aNLH//ONvvpV9aTGXvmvsAsju3bouXZDl3cI//rCm7li1Sfns++U339Xm0KZvFZq5/vq5km4G1CUo37TAfRtRkxsZ3fwoyTJXatO6le2wzVaVNmnqAvYN11270rJ8fqnpOeVzTLZBAAEEEEAAAQRKSaB2kW0dCL3y5jv+qNtsvmnWoL26bN98d5B96rrZjB0/3hYs+M26de1iy/dZzvbdY1fL1LXmw08+s+fdAMsTjzzMOrquN088+4L9OPJnmzBxkguum1rP7t19K/M6a65ekfXQ4T/6Pt/aTunqm26rCLI7dmhvp598ol8eHPukY45wx+nmupi8bZ99+bWNGjPWd6258oKz/Xb6nwbgvv/RJ6ZWfHUHmj9/gbVr28b6ubLvuctO1ne5ZSu21ZtUKmWDPvrUjQMYZBPcoFHdDOiGp7M7h9VWWdm22mwTW9Z1Lwon7aNuLl989a2NGfeLX9WrZw/bYpMNbZstNgtv6t8H5a+JTfggNT2n8L68RwABBBBAAAEEEKgq0Pg8l6oujnfJpClTfdCs7hinnHCMD5prUgIFutffeocpcP/NBbErLN/Plu/X1+bOm2vfD/vBPvh4sC27TM8qLfVDf/zRPnb9ttu0aW2PPvWsjR4zzpZxwexKA/pb06ZNbMTPo/yNQIf27V3w3NsXScH13HnzbJab6WbhwoV+RpXOnTr6vt6dO3as6D4SHFvdSV57+z176bU3fUu7jqO+++GbgetuucOV4wtr5WbLWaH/8tZ72V72y4RJ9sv4CfbBJ4Nt/XXWsraujEF66PGn7KnnXyrP353nwBVXsMWuFV1B/MhRo20Dt324371a5P976132zqAP/U3GGq5MPdzNxDh3/E+/+Mp3+UlvRQ/KXxOboHx6rek5hfflPQIIIIAAAggggEBVgUS0uKsVWkmt4q1d94yapudeec0H6AqSjzv8kErTRWqg690PPGK33/uQXXbeWabuH+np+Vde94H00YccVGlfDcy856H/2ZPPvWCbu5ZpdS1RH2/9nH/5NTZ3zDw7aL+9rUeOrjtPPf+yTZ0+3U476Tg3G87K6Vn73w/cew8fUAc3B1qo7jr3uIG6GhD6wqtv2DGHHuS3nev6nesGRU6XnVv5fH777Xffoq9pG8NJ+383dJhtuN46dvQhf/at81o/b/58u/6WO+2Lr7/1Nwibbrh+eDf/viY24Z1rck7h/XiPAAIIIIAAAgggkFkgdyfnzPsUfKlar5W6u64tNU1Tp023N9553/fxPuawgysF3jqWWpK32WJT30r+3MuvZjx88+bN7IiDD8iw7zq+n7wGaSqf2qTRY8e5oPvgrEG7jtm/X9+KFv0gD/XP32jJ4Fy1vAdp2owZ/m3/vn2r3IToPNKD9lmzZ9vrrsVfaZ/ddq4I2vV7q5Yt7cB99tBbe95N+5gp1damJueUKV+WIYAAAggggAACCFQWSETgrpZfpfbuAUs1TT+MGGl/uNbp9ddZ01q3qtqaruMFfbjVzSVTWnmFAS4IXtoVJdimPBAe4H+tbeCuVvTazr4ycKUVfN4KvoOkqTH1AKrvXQv66++857vIBOsyvQ4d/pPvA69jde3SucomKp/6x6u70u+u6096KrRNpnNKz5PfEUAAAQQQQAABBKoKJKKrjPqGK82YOatqCatZMtkFnEpdu2RvrVd/b83SouBbfcHVlz6cOi3JP7wseN+mTfnNwKJFfwSLavTap/cyeW2veeGHuP74U6fPsOmuVX3uvPm+D7t2duNKK5K662ju+GtvvsMefvxpe+3Nd23LzTbyD0LKNKe6BrsqzZkz1269+/6K44TfNCor879qQKn6+IdTFJt8zymcH+8RQAABBBBAAAEEMgskInDv1q086FbgWNMUBPuZgtbgWGUuMNXgzpmuS45arzt2qPzwpvDAz2CfQr22b5f7W4QFCxbYfY8+7mac+cZ/c6BvDTQ7jQaFZpvOUq3gl5x9hr30+pum2V+efO4le/al13y3oP323NUNlF2a5zR3I6CkAH76jJkZT0tTPOpH31ykp9rY1Oac0vPldwQQQAABBBBAAIHKAskI3Jd04VBgOfvXOX4qxMrFzP5bMDD0V9einCupn3p5AN8m12axrtMUjdfdeqcN/3GEHxy71647VZrGUYNNjz/1XxnLpJlsDjlgX9tvz938rDmvvf2uH2Cq7kBnnXZyxQw6QeC958472o5/2jrjsQq5MMo5FbIcHAsBBBBAAAEEECg2gcp9Rurp7NQCrnnH1Y3leTdDTE2S5jpXytUHXa3sak1Wlxz1505K0nSMCtrVlefEow+vFLSrjDNnVd91SA9e0iw3F//nX7be2muauqc8/eIrFafYvVs3/15TRcaRCnFOcZSTPBBAAAEEEEAAgYYmkIjAXWiaPlDpnUEf2dhx4/37fP4XPJxo8JdfmVqoM6VBbh53pQH9+/rXQvyvmetaojQ7NHC0pscdP2Gi36WHC64zPcV0+E8j8j6kbkj23X0Xv/3EUJDev+9y/psGPfxJU0nWdSrkOdV1WTk+AggggAACCCDQkAQSE7ivOnAlP2WiWsYvuuo6e+v9DzI6qivGrNm/Vqxr0aKF/WmrzX1Q+siTz9gi12ofTqPcQ5VecU8tVWC7l3sKaaFSlyXde776bkitDxnM8jLsx5+qBNUTJ09xD6V6scqxFXwH/dbTV46fWH4joJlnghQ8HVUz99xx/0N+WsxgXfC6aNEim+TyK0SqzTkVIl+OgQACCCCAAAIIFLtAcvqNOOn/O+Zwe/iJp+39Dz+xBx59wp52Dy/SE097de9uv86daxMmTjIFtMv37WP//vtJFXVz0L57+Rlp3v3gI/8AolVXXskPRh3ruqIMdg9gUjB/wF67W7dazBNfkUnamw3XXcsNDB1sr731rg+kB644wPfP332n7dO2zP5rHzcVY5/ey5rmer/gymt9P/dOrtvQ2PHj7aNPP7ctNtnIvh0y1E3nuHSaxklTprgbm+v9fO2aylGBsubBHzlqjOt285N/Ouv2W29RKdP99tjNRo4eY1+7m4yzLrzMVllpRW+hJ87q4VBDf/jRVl9loJ1w5KGV9qvNL7U5p9rkwz4IIIAAAggggECpCSQqcFd/7SMPPtDWXn0102DLX8ZPtGE//OR/gorRoEwFyeGkQafHHXGIPfb0czboo099IKz1mgJSfecP3n9vW2H5fuFdIr9fY9VVfNeUZ1961T51Nwf6Uet/TQJ3dY856dgj7P5HHncB+jD/zYAKphlyNDvM9ltvabfd+4BpLvYgaXrGtddYzTQIVTbhpCez7rXrjv5mILxcT1k99/RT7Tn3kCU9DVZPYw2n/u5GaN01Vw8vqvX72pxTrTNjRwQQQAABBBBAoIQEylzXk9As4ck7c80yM821Crd0QbGmSMz0oKRwqdXVRnOhq/uHnsRa14NRlZ+6mSx2jN27dbWg73u4TPm8V1cWTYepgbrt2lY/843y1fSWc9w3EbLRFJLNmjXLJyvfXWbK1OnuRqO5dXAPvdINU12kmp5TXZSBYyKAAAIIIIAAAsUikPjAvVigOQ8EEEAAAQQQQAABBKIIJGZwapSTYF8EEEAAAQQQQAABBIpdgMC92GuY80MAAQQQQAABBBAoCgEC96KoRk4CAQQQQAABBBBAoNgFCNyLvYY5PwQQQAABBBBAAIGiECBwL4pq5CQQQAABBBBAAAEEil2AwL3Ya5jzQwABBBBAAAEEECgKAQL3oqhGTgIBBBBAAAEEEECg2AUI3Iu9hjk/BBBAAAEEEEAAgaIQIHAvimrkJBBAAAEEEEAAAQSKXYDAvdhrmPNDAAEEEEAAAQQQKAoBAveiqEZOAgEEEEAAAQQQQKDYBZok4QTnzptnU6dOs/kLFtjChX8koUiUAQEEEEAAAQQQQCAhAk2bNrGWLVpYly6drXWrVgkpVfzFKEu5FH+2S3Oc4gL2iZMmL13AOwQQQAABBBBAAAEEsgj06N7NuroAvhRTvba4q6VdQXtZWZl179bVOrRvb7qjIiGAAAIIIIAAAgggEAioR8bMWbNs0uQpPnZs1aplSba812sfd3WPUVLQrjsngvbg8uQVAQQQQAABBBBAIBBQjKhYUTGjUhBDButL5bVeA3f1aVdSSzsJAQQQQAABBBBAAIFcAkHMGMSQubYtxnX1GrgHA1FpaS/GS4tzQgABBBBAAAEECisQxIxBDFnYoyf/aPUauCefhxIigAACCCCAAAIIIJAMAQL3ZNQDpUAAAQQQQAABBBBAIKcAgXtOHlYigAACCCCAAAIIIJAMAQL3ZNQDpUAAAQQQQAABBBBAIKcAgXtOHlYigAACCCCAAAIIIJAMAQL3ZNQDpUAAAQQQQAABBBBAIKcAgXtOHlYigAACCCCAAAIIIJAMAQL3ZNQDpUAAAQQQQAABBBBAIKcAgXtOHlYigAACCCCAAAIIIJAMAQL3ZNQDpUAAAQQQQAABBBBAIKcAgXtOHlYigAACCCCAAAIIIJAMAQL3ZNQDpUAAAQQQQAABBBBAIKcAgXtOHlYigAACCCCAAAIIIJAMAQL3ZNQDpUAAAQQQQAABBBBAIKcAgXtOHlYigAACCCCAAAIIIJAMAQL3ZNQDpUAAAQQQQAABBBBAIKcAgXtOHlYigAACCCCAAAIIIJAMAQL3ZNQDpUAAAQQQQAABBBBAIKcAgXtOHlYigAACCCCAAAIIIJAMAQL3ZNQDpUAAAQQQQAABBBBAIKcAgXtOHlYigAACCCCAAAIIIJAMAQL3ZNQDpUAAAQQQQAABBBBAIKcAgXtOHlYigAACCCCAAAIIIJAMAQL3ZNQDpUAAAQQQQAABBBBAIKcAgXtOHlYigAACCCCAAAIIIJAMAQL3ZNQDpUAAAQQQQAABBBBAIKcAgXtOHlYigAACCCCAAAIIIJAMAQL3ZNQDpUAAAQQQQAABBBBAIKcAgXtOHlYigAACCCCAAAIIIJAMAQL3ZNQDpUAAAQQQQAABBBBAIKcAgXtOHlYigAACCCCAAAIIIJAMAQL3ZNQDpUAAAQQQQAABBBBAIKcAgXtOHlYigAACCCCAAAIIIJAMAQL3ZNQDpUAAAQQQQAABBBBAIKcAgXtOHlYigAACCCCAAAIIIJAMAQL3ZNQDpUAAAQQQQAABBBBAIKcAgXtOHlYigAACCCCAAAIIIJAMAQL3ZNQDpUAAAQQQQAABBBBAIKcAgXtOHlYigAACCCCAAAIIIJAMgSbJKEbhSjFk+A/27ffDLJVK2eqrrGyrDlwp58HZHp/wBVLX10M4L94jgAACCCCAAAI1ESiqwP2+Rx43/YTTwfvtZUcd8ufwoor3bG+GT8Xl4K+durx+lubEOwQQQAABBBBAoOYCRdNVZtLkKfbgY09VEXjkyWdt3PgJVZazfTkJPuUOdX09VLkAWYAAAggggAACCNRQoGgC9+E/jbBFixZVOf3Fixfb8B9HVFnO9uUk+JQ71PX1UOUCZAECCCCAAAIIIFBDgaIJ3Gf/OifrqWdal2lZcIBM6zItY/tAwAyf/CyWbsU7BBBAAAEEEECgZgJFE7j36N4t65l379alyjq2X0qCj1ldXw9LtXmHAAIIIIAAAgjUTqBoAvc1V1vFunetGqB37tTR1llz9So6bF9Ogk+5Q11fD1UuQBYggAACCCCAAAI1FGh8nks13Kdgm0+eMtUfq3u3rpGP2bhRI1tjtYH2zfdDbNbsX/3xlunZw84+/RTr2b17leOzvRk+Sy+Lur4elubEOwQQQAABBBCIIlDI+DFKOepj3zI333mqPjJWnt9+P9RnvfqqAwtahOkzZvp53NWanE9i+9xK+BTWJ/fRWIsAAggggAACuQTqKn7MlWdS1hVl4J4UXMqBAAIIIIAAAgggUFiBUg7ci6aPe2EvCY6GAAIIIIAAAggggECyBAjck1UflAYBBBBAAAEEEEAAgYwCBO4ZWViIAAIIIIAAAggggECyBAjck1UflAYBBBBAAAEEEEAAgYwCBO4ZWViIAAIIIIAAAggggECyBAjck1UflAYBBBBAAAEEEEAAgYwCBO4ZWViIAAIIIIAAAggggECyBAjck1UflAYBBBBAAAEEEEAAgYwCBO4ZWViIAAIIIIAAAggggECyBAjck1UflAYBBBBAAAEEEEAAgYwCBO4ZWViIAAIIIIAAAggggECyBAjck1UflAYBBBBAAAEEEEAAgYwCBO4ZWViIAAIIIIAAAggggECyBAjck1UflAYBBBBAAAEEEEAAgYwCBO4ZWViIAAIIIIAAAggggECyBAjck1UflAYBBBBAAAEEEEAAgYwCBO4ZWViIAAIIIIAAAggggECyBAjck1UflAYBBBBAAAEEEEAAgYwCBO4ZWViIAAIIIIAAAggggECyBAjck1UflAYBBBBAAAEEEEAAgYwCBO4ZWViIAAIIIIAAAggggECyBAjck1UflAYBBBBAAAEEEEAAgYwCBO4ZWViIAAIIIIAAAggggECyBAjck1UflAYBBBBAAAEEEEAAgYwCBO4ZWViIAAIIIIAAAggggECyBAjck1UflAYBBBBAAAEEEEAAgYwCBO4ZWViIAAIIIIAAAggggECyBAjck1UflAYBBBBAAAEEEEAAgYwCBO4ZWViIAAIIIIAAAggggECyBAjck1UflAYBBBBAAAEEEEAAgYwCBO4ZWViIAAIIIIAAAggggECyBAjck1UflAYBBBBAAAEEEEAAgYwCBO4ZWViIAAIIIIAAAggggECyBAjck1UflAYBBBBAAAEEEEAAgYwCBO4ZWViIAAIIIIAAAggggECyBAjck1UflAYBBBBAAAEEEEAAgYwCBO4ZWViIAAIIIIAAAggggECyBAjck1UflAYBBBBAAAEEEEAAgYwC9Rq4N23axBdq4cI/MhaOhQgggAACCCCAAAIIBAJBzBjEkMHyUnmt18C9ZYsW3nnmrFml4s15IoAAAggggAACCNRSIIgZgxiylodpsLvVa+DepUtnDzdp8hSbMnWaBXdRDVaTgiOAAAIIIIAAAggUXEAxomJFxYxKQQxZ8IwSfsCylEv1WUZVwsRJk+uzCOSNAAIIIIAAAggg0EAEenTvZl2XNP42kCIXrJj1HrjrTObOm2dTXQA/f8ECWt0LVrUcCAEEEEAAAQQQKA4B9WlX9xi1tLdu1ao4TqoWZ5GIwL0W5WYXBBBAAAEEEEAAAQRKSqBe+7iXlDQniwACCCCAAAIIIIBABAEC9wh47IoAAggggAACCCCAQFwCBO5xSZMPAggggAACCCCAAAIRBAjcI+CxKwIIIIAAAggggAACcQkQuMclTT4IIIAAAggggAACCEQQIHCPgMeuCCCAAAIIIIAAAgjEJUDgHpc0+SCAAAIIIIAAAgggEEGAwD0CHrsigAACCCCAAAIIIBCXAIF7XNLkgwACCCCAAAIIIIBABAEC9wh47IoAAggggAACCCCAQFwCBO5xSZMPAggggAACCCCAAAIRBAjcI+CxKwIIIIAAAggggAACcQkQuMclTT4IIIAAAggggAACCEQQIHCPgMeuCCCAAAIIIIAAAgjEJUDgHpc0+SCAAAIIIIAAAgggEEGAwD0CHrsigAACCCCAAAIIIBCXAIF7XNLkgwACCCCAAAIIIIBABAEC9wh47IoAAggggAACCCCAQFwCBO5xSZMPAggggAACCCCAAAIRBAjcI+CxKwIIIIAAAggggAACcQkQuMclTT4IjeqHFQAAQABJREFUIIAAAggggAACCEQQIHCPgMeuCCCAAAIIIIAAAgjEJUDgHpc0+SCAAAIIIIAAAgggEEGAwD0CHrsigAACCCCAAAIIIBCXAIF7XNLkgwACCCCAAAIIIIBABAEC9wh47IoAAggggAACCCCAQFwCBO5xSZMPAggggAACCCCAAAIRBAjcI+CxKwIIIIAAAggggAACcQkQuMclTT4IIIAAAggggAACCEQQIHCPgMeuCCCAAAIIIIAAAgjEJUDgHpc0+SCAAAIIIIAAAgggEEGAwD0CHrsigAACCCCAAAIIIBCXAIF7XNLkgwACCCCAAAIIIIBABAEC9wh47IoAAggggAACCCCAQFwCBO5xSZMPAggggAACCCCAAAIRBAjcI+CxKwIIIIAAAggggAACcQkQuMclTT4IIIAAAggggAACCEQQIHCPgMeuCCCAAAIIIIAAAgjEJUDgHpc0+SCAAAIIIIAAAgggEEGAwD0CHrsigAACCCCAAAIIIBCXAIF7XNLkgwACCCCAAAIIIIBABAEC9wh47IoAAggggAACCCCAQFwCBO5xSZMPAggggAACCCCAAAIRBAjcI+CxKwIIIIAAAggggAACcQkQuMclTT4IIIAAAggggAACCEQQIHCPgMeuCCCAAAIIIIAAAgjEJUDgHpc0+SCAAAIIIIAAAgggEEGAwD0CHrsigAACCCCAAAIIIBCXAIF7XNLkgwACCCCAAAIIIIBABAEC9wh47IoAAggggAACCCCAQFwCBO5xSZMPAggggAACCCCAAAIRBAjcI+CxKwIIIIAAAggggAACcQkQuMclTT4IIIAAAggggAACCEQQIHCPgMeuCCCAAAIIIIAAAgjEJUDgHpc0+SCAAAIIIIAAAgggEEGAwD0CHrsigAACCCCAAAIIIBCXAIF7XNLkgwACCCCAAAIIIIBABAEC9wh47IoAAggggAACCCCAQFwCBO5xSZMPAggggAACCCCAAAIRBAjcI+CxKwIIIIAAAggggAACcQkQuMclTT4IIIAAAggggAACCEQQIHCPgMeuCCCAAAIIIIAAAgjEJUDgHpc0+SCAAAIIIIAAAgggEEGAwD0CHrsigAACCCCAAAIIIBCXAIF7XNLkgwACCCCAAAIIIIBABAEC9wh47IoAAggggAACCCCAQFwCBO5xSZMPAggggAACCCCAAAIRBAjcI+CxKwIIIIAAAggggAACcQkQuMclTT4IIIAAAggggAACCEQQIHCPgMeuCCCAAAIIIIAAAgjEJUDgHpc0+SCAAAIIIIAAAgggEEGAwD0CHrsigAACCCCAAAIIIBCXAIF7XNLkgwACCCCAAAIIIIBABAEC9wh47IoAAggggAACCCCAQFwCBO5xSZMPAggggAACCCCAAAIRBAjcI+CxKwIIIIAAAggggAACcQkQuMclTT4IIIAAAggggAACCEQQIHCPgMeuCCCAAAIIIIAAAgjEJUDgHpc0+SCAAAIIIIAAAgggEEGAwD0CHrsigAACCCCAAAIIIBCXAIF7XNLkgwACCCCAAAIIIIBABAEC9wh47IoAAggggAACCCCAQFwCBO5xSZMPAggggAACCCCAAAIRBAjcI+CxKwIIIIAAAggggAACcQkQuMclTT4IIIAAAggggAACCEQQIHCPgMeuCCCAAAIIIIAAAgjEJUDgHpc0+SCAAAIIIIAAAgggEEGAwD0CHrsigAACCCCAAAIIIBCXAIF7XNLkgwACCCCAAAIIIIBABAEC9wh47IoAAggggAACCCCAQFwCBO5xSZMPAggggAACCCCAAAIRBAjcI+CxKwIIIIAAAggggAACcQkQuMclTT4IIIAAAggggAACCEQQIHCPgMeuCCCAAAIIIIAAAgjEJUDgHpc0+SCAAAIIIIAAAgggEEGAwD0CHrsigAACCCCAAAIIIBCXAIF7XNLkgwACCCCAAAIIIIBABAEC9wh47IoAAggggAACCCCAQFwCBO5xSZMPAggggAACCCCAAAIRBAjcI+CxKwIIIIAAAggggAACcQkQuMclTT4IIIAAAggggAACCEQQIHCPgMeuCCCAAAIIIIAAAgjEJUDgHpc0+SCAAAIIIIAAAgggEEGAwD0CHrsigAACCCCAAAIIIBCXAIF7XNLkgwACCCCAAAIIIIBABAEC9wh47IoAAggggAACCCCAQFwCBO5xSZMPAggggAACCCCAAAIRBAjcI+CxKwIIIIAAAggggAACcQkQuMclTT4IIIAAAggggAACCEQQIHCPgMeuCCCAAAIIIIAAAgjEJUDgHpc0+SCAAAIIIIAAAgggEEGAwD0CHrsigAACCCCAAAIIIBCXAIF7XNLkgwACCCCAAAIIIIBABAEC9wh47IoAAggggAACCCCAQFwCBO5xSZMPAggggAACCCCAAAIRBAjcI+CxKwIIIIAAAggggAACcQkQuMclTT4IIIAAAggggAACCEQQIHCPgMeuCCCAAAIIIIAAAgjEJUDgHpc0+SCAAAIIIIAAAgggEEGAwD0CHrsigAACCCCAAAIIIBCXAIF7XNLkgwACCCCAAAIIIIBABAEC9wh47IoAAggggAACCCCAQFwCBO5xSZMPAggggAACCCCAAAIRBAjcI+CxKwIIIIAAAggggAACcQkQuMclTT4IIIAAAggggAACCEQQIHCPgMeuCCCAAAIIIIAAAgjEJUDgHpc0+SCAAAIIIIAAAgggEEGAwD0CHrsigAACCCCAAAIIIBCXAIF7XNLkgwACCCCAAAIIIIBABAEC9wh47IoAAggggAACCCCAQFwCBO5xSZMPAggggAACCCCAAAIRBAjcI+CxKwIIIIAAAggggAACcQkQuMclTT4IIIAAAggggAACCEQQIHCPgMeuCCCAAAIIIIAAAgjEJUDgHpc0+SCAAAIIIIAAAgggEEGAwD0CHrsigAACCCCAAAIIIBCXAIF7XNLkgwACCCCAAAIIIIBABAEC9wh47IoAAggggAACCCCAQFwCBO5xSZMPAggggAACCCCAAAIRBAjcI+CxKwIIIIAAAggggAACcQkQuMclTT4IIIAAAggggAACCEQQIHCPgMeuCCCAAAIIIIAAAgjEJUDgHpc0+SCAAAIIIIAAAgggEEGAwD0CHrsigAACCCCAAAIIIBCXAIF7XNLkgwACCCCAAAIIIIBABAEC9wh47IoAAggggAACCCCAQFwCBO5xSZMPAggggAACCCCAAAIRBAjcI+CxKwIIIIAAAggggAACcQkQuMclTT4IIIAAAggggAACCEQQIHCPgMeuCCCAAAIIIIAAAgjEJUDgHpc0+SCAAAIIIIAAAgggEEGAwD0CHrsigAACCCCAAAIIIBCXAIF7XNLkgwACCCCAAAIIIIBABAEC9wh47IoAAggggAACCCCAQFwCBO5xSZMPAggggAACCCCAAAIRBAjcI+CxKwIIIIAAAggggAACcQkQuMclTT4IIIAAAggggAACCEQQIHCPgMeuCCCAAAIIIIAAAgjEJUDgHpc0+SCAAAIIIIAAAgggEEGAwD0CHrsigAACCCCAAAIIIBCXAIF7XNLkgwACCCCAAAIIIIBABAEC9wh47IoAAggggAACCCCAQFwCBO5xSZMPAggggAACCCCAAAIRBAjcI+CxKwIIIIAAAggggAACcQkQuMclTT4IIIAAAggggAACCEQQIHCPgMeuCCCAAAIIIIAAAgjEJUDgHpc0+SCAAAIIIIAAAgggEEGAwD0CHrsigAACCCCAAAIIIBCXAIF7XNLkgwACCCCAAAIIIIBABAEC9wh47IoAAggggAACCCCAQFwCBO5xSZMPAggggAACCCCAAAIRBAjcI+CxKwIIIIAAAggggAACcQkQuMclTT4IIIAAAggggAACCEQQIHCPgMeuCCCAAAIIIIAAAgjEJUDgHpc0+SCAAAIIIIAAAgggEEGAwD0CHrsigAACCCCAAAIIIBCXAIF7XNLkgwACCCCAAAIIIIBABAEC9wh47IoAAggggAACCCCAQFwCBO5xSZMPAggggAACCCCAAAIRBAjcI+CxKwIIIIAAAggggAACcQk0iSsj8kEgVoFFC82mT7TU9Anu1f1Mm2CpWVPMfptv9vuCJT/zLbXoj1iLRWYIIIBAsQiUNXYhRLOW7qdF+U/zllbWvqtZ555mnXpamfvRq2k7EgIIFESgLOVSQY7EQRCoT4HFi8wmjLTU6CHu53uz8T9Z6g8XvJMQQAABBOpNoKxJU7NeA6ysz6ruZxWznsubNWpcb+UhYwQaugCBe0OvwZIuv7vnHD3UUt8NstQPgy2llnQSAggggEBiBcrUKr/iela26mZmfQa6cpYltqwUDIEkChC4J7FWKFNugdnTLPXlm5Ya8oGlZk/PvS1rEUAAAQQSKVDWrpOVrbKpla3zJ7O2nRJZRgqFQNIECNyTViOUJ7vAjEmW+vh5S33vAnb6pmd3Yg0CCCDQgATUV75stc2sbKNdzTp0b0Alp6gIxC9A4B6/OTnWVMANKk2997ilhn5iqdTimu7N9ggggAACDUCgrFEjK1t5QyvbYj8zDXIlIYBAFQEC9yokLEiMgGtVT33yoqU+es4NNP09McWiIAgggAACdSdQ1rSZlW28u5VtsAsz0tQdM0duoAIE7g204oq+2KO+s8Wv3+emc5xY9KfKCSKAAAIIVBUo69TDGm13mFnf1aquZAkCJSpA4F6iFZ/Y03bTOqbeedQWD34lsUWkYAgggAAC8Qk02mAnK9vyAKaRjI+cnBIsQOCe4MopuaLNnmqLn73RUuNHlNypc8IIIIAAAtkFynr1t0Z7nGTWrkv2jViDQAkIELiXQCU3iFMc+bUtfv4WSy2Y2yCKSyERQAABBOIVKGvR2hrtdqLZ8mvEmzG5IZAgAQL3BFVGqRbFP0Dp5TstpaefkhBAAAEEEMgiUOaeulq289HlD3DKsg2LEShmAQL3Yq7dBnBuqU9f8n3aUyn3FFQSAggggAAC1QiUlZVZ2VYHullndq5mS1YjUHwCBO7FV6cN5oxS7z5mi90DlUgIIIAAAgjUVKCRpozUnO8kBEpIoFEJnSunmiABzc9O0J6gCqEoCCCAQAMTWKxnfLhvbUkIlJIAgXsp1XZCztX3aX/3fwkpDcVAAAEEEGioApo+OPX9oIZafMqNQI0FCNxrTMYOkQTc7DEpDUSlT3skRnZGAAEEEDD/WZJ66U6zkd/AgUBJCBC4l0Q1J+QkNU+7pnxk9piEVAjFQAABBBq+gD5TFj9/s5n7jCEhUOwCBO7FXsNJOT/9w/rMDczTnpT6oBwIIIBAEQnoGSB6gJ/RMFREtcqpZBIgcM+kwrKCC/h+iBNGFvy4HBABBBBAAAEJ6KnbqXcYP8XVUNwCBO7FXb/JOLtR39niwa8koyyUAgEEEECgaAUWD37ZzH3mkBAoVgEC92Kt2aSc16I/bPFr9yWlNJQDAQQQQKDIBRa/7j5z3GcPCYFiFCBwL8ZaTdA5pT55wVIzJiaoRBQFAQQQQKCYBVLTJ5qeFUJCoBgFCNyLsVaTck6zpljqI56MmpTqoBwIIIBAqQikPn7OzH0GkRAoNgEC92Kr0QSdT+q9xy31x+8JKhFFQQABBBAoBYHUwt9Nn0EkBIpNgMC92Go0KeczY5Klhn6SlNJQDgQQQACBEhNIDXOfQe6ziIRAMQkQuBdTbSboXFIfP++eaLc4QSWiKAgggAACpSSQWrzY9FlEQqCYBAjci6k2k3Ius6dZ6vsPklIayoEAAgggUKIC/rPIfSaRECgWAQL3YqnJBJ1H6ss3LcVUXAmqEYqCAAIIlKaAPov0mURCoFgECNyLpSYTcx4pSw2htT0x1UFBEEAAgRIXKP9MSpW4AqdfLAIE7sVSk0k5j9FDLDV7elJKQzkQQAABBEpcwH8mjR5a4gqcfrEIELgXS00m5DxS39HanpCqoBgIFK9A0+ZmLVov/bGy4j1XzqwgAqnvBhXkOBwEgfoWaFLfBSD/IhJYvMhSPwwuohPiVBBAIHECzVtZo2OusLLW7X3RUuNH2OJHLjb7Y2HiikqBkiOgz6aynY4ya9Q4OYWiJAjUQoAW91qgsUsWAfcBmvp9QZaVLEYAAQSiC5Rt+5elQfuEkbb4sSsI2qOzFv0R/GeT+4wiIdDQBQjcG3oNJqj8qTFDElQaioIAAsUmULbyBtZo9c39aaXG/WCL/3e52W/ziu00OZ86EkiNoZ97HdFy2BgFCNxjxC72rFJuYCoJAQQQqBOBDt2tbMej/aEXD/nIFj96KUF7nUAX70FTo78v3pPjzEpGgD7uJVPVdXyii1z/0vE/1XEmHB4BBEpWoGVrS737P0stmGupoR+XLAMnHkFAn1H6rGrcNMJB2BWB+hUgcK9f/+LJffoESzE4rHjqsyGcScu2Zu06mWmGkV9nuB83DakbIF2w1MR9uDdptvRwLmBMbGrWwqxDt6UWc5xHIS1ynXhcebv+7Km5s8vP07W+28zJrlTMzZ2ralhXWcB/Rk2faNa1d+UV/IZAAxIgcG9AlZXkoqamuX8MSQ1SoGyVTaxs1+PKyz5nli2++eQq56FZPKyjC5aWpNRr91rqq7eDXzO/du9rjQ47v3ydBhE+sOR9aOvwcVOvumN+Xc0xuy1nZWttbb7MbnaRcEqlXBA3ZYx7ANhH/scH8ks2qHE+br9G+5xmZX1Xrchi0cNu5pKxwyp+z/YmnFfFNq5oNv/X8huMOdNN/bNTX73lunrMr9ikxm/c7BhlazqLjXaxsnZdKu3uLSaNstTwTy017NMlQW75JpXqu9JeGX5x5Vt8/fFVVxQi7yzXWqXM3E1B2aZ7W1nvlcw697Iy3SQsSamFv5tNG+8sh1tq0FPVdpupct4zp9jiu/9d7cDWRnv/3WzAWj7XxU9cbTbym6AIvDZAgZRrZCojcG+ANUeRAwEC90CC12gC7h9DUsMVKCsrH+6SKssyH7ZbH2zjz3LLA9zUn5+bzXMtoDlSsE9qyfGrbBo6bipL1n4fV66yrf9sjdbfqcohggVlKnu3PlbmfhZ36mmpl+8MVpnlm0+wR1vXkt9nYPCbfy1bbTNL5RG4h/OqOIDOTdMX+ikM+1rZgHUstfEelvrgKUsNfqVis7zfuG8ZGh1ybtYAxFv06Gdl7mdxt76W+v/27gNOkrJM/Pjz1sxsYgPssuTkEpeMsiQREZAkCIIERQVPzOcd3nl43l/9cKjneafenadwRkAFSYokCYLkjAQJSw6S0wILG9idqff/PNVT3e/M9Mx2z1Ttvt39ez+foaurq9966/s220+9/YYLfjgg67xeBuys86RuvRV07mE/a3k51t9ckv0+KW7awJuS/GXXo7+GrKGW+uc3mSPpH34isow+zAOuW29E3S4Hi7/2nDzL+o/22at+fkf6kNZ/O3sjE+C7KrIKoTjNChC4NyvG8fUF+Mewvkub7nW6+I3b48PiL/q/8q9Qg6bk8H8St8GW1XNlLcqvviD++cdFtAuLm75G9vN3dW7v2y+vHjuaDbfFO6vBmtcuJ85amDfdQfwff6kttNrS22Dy1p3jzde0+V5vjKxrz+RVJAs49f1u/EQ1PEr6tOVXHtaboCZSsr8GtEGrYTbVnQatXrsMZYHuzHWqrfD+L1cPm7Pv6xXRX0OGTXWutahzD3tOfcFtv09mk92A9B/o578s8qL+oqJdHbJr1Bs06x5kxzjtMpUc8WXxV/1Gb4QuGSnrAa+5HfYXf98NWcv9gBd40r4Cr9DI1L6V2xlXRuDeGfVc+lX61zX4IHWUQKLBbd8912orZ7mzCbmd3y8Dgna9SUzP+4HIy09Xva0nioZ7Itq1xa2j3Sq0y8xYksunHNRxG/6ea8Rtt1cl0N50TiXQazBzf8tFA7sUdXXrDcAccXsfo/lVuvok+35C0mYCd70BcJvtWC1Bqi3G/paLq33aKxb6srW4z9pG5IkRZtJY9Kakp3+jmtcyN4o893Anm7yyuHd9MAvI7RC7KfGX/nzAgNTqNc7aWpIDPitu4uTK8fo+/8AtlfEOw+Uf7HdaH8k+H5fUukGROkLAvqv43aQjqrptL1KbgUgIFCAwlr66BZyeLJaPgNcBoNY/O0+JBqCiwU9pSbu8uF0Oqmafzd192tcHBO3VF22g4hP3an/n39Z2jWZrrY20BX/Nyju1a4y//+ZqLm7Lyhzi1R3NbmgLd9YH/7JTqu90k7QlftrM6vNlbmhAniev/9/5my6oBu35/uxRf43wN/5eN6th7oCXR/VkOZzb7XZ4tS+7DSZMf3XCgKB9QLm1v3mqnwdzsGS/Zrh3Hz7gkHpPsuC+/wW37mbittqt3mHsa0cBvqvasVY76poI3Duquku8WFZMLRE3oqy1f3N6+ali3UcsWYDrdjqwtAJav3JrFc1T+qczREr+rIXBuX/0LhEbSLrg9UoRrN/71Bl5cUb96B+/d+B7tWtLo8mNrw3QzIJy69u/nFLp57YBqFrnefL3XKc3ac/kT+s/agtqNtC3/1UbhCrL8MxuAOdqy3z+nt2PFJkwOX/KYzsLlPzvRzvTcW1xCBC4x1EPrV8K/jFs/Tps5Aps6sWXnhowoDIL3IMZZxrJptFjwi4hWRD93KONvnV0x+n8zm52rRuKf+ROzcfr7Cy3ZfnZIEXr/z7mZH3ew2R9zRtM1sc7T9bdJjTK95f1WPa5bTDtgH7t2tWokWT92qs3k9bnXX81GTHp59j/6de1lnr91cO9R4N3UvsL8F3V/nXc5lc46Nujza+WyytPYEnlp+ryTkDOMQhkrd8avPobzhM//5WsSE7nO8+6zBRdQJ2BxQU3BH45TMPnNn672MBbS94GbfaP3fBzb6peXdgiXN3Z5MaAPvs2jeWyWpXD/F/UGycdpJknd8BnxAZZig6gLT2Vfe6wvu1XjkbHztix/Z/HzMDmeR8p2Q2oDhoOZ5TJususs8lI7+K1dhDgu6odarGjr6H2G3RHM3DxCCDQsMA4DXq0n2iqM6x0HapzXGuyQNRtvnNl/vRsTwH/0UGKYfKv6wwtJad8UKqdxvqiV5N1l5k/L5u9JOv/vvbGIs88XH25qQ2dCtLt9dHaW3Su9XDO+doLw215Sa/4VWWmHV0gKpvxRqfK9NvvK/6OP1a6jTS6WJQO6kw+esJwJxJ/+6WD+pcXeO56Z7VFpPJkC2o1k+z4/vfbDd+IPfstcNfk77xCvA5Ezlv6k711oOqpX60/ZqCZsnAsAgggUJIAgXtJsB2X7biJlQVmOu7CO/CCbTVRG+D1yB3iH75DrJXakk1t6B+9e5kL4TQsNihwl9d1OsAyk82xvsFW2Rm8T3V2ktqgVNtpAxrdDvtlr2dzujcQuGez0czaVnH0bROn6iDUVcUF1+W1pd1ugJpOOmg2Pes7knzgOMkGt2oGbopONakDM73OwuPvvloHpp6vU2W+OWLW2S8oa2047DE+m3d+0MsFnXtQrtnT8BeWAS3o9Q4etM9+Aar29g9a7gcdVnmar4irv3akOlA4+dgJ2kVHu0HZNJo2ReTNF9Z9GzvbQMC+q0gItLAAXWVauPKiKnqwomFU5aIwxQsEgyHTK36ZTddnJ7E51BuZ0aPhAqXpwEP7B8QO3Fncs2zu9rzv+VMPVuZfD7If0F1m9k46m05P8Gr9TWcrvVr3G2tlX1tnq+kP2r1eW6orz6ZnfHOZi1jVz1n36q8A6Y//QVJdNdS/tbB6mK0umszZV7IVXHXGlJGSzYefzUyjN2L1HmW4vvcFnLtuuQbXed2DhtkZfC7Fuh+NlMJjbfadO66oHm2LMjU1y0/1nWy0hADfVS1RTRRyeAFa3Ie34ZVmBPjHsBmt9jlWWzmtv7utamrJbfsenfdcZwKxQaRjCcIsM1u8KExTVxUJBmaGLxWxHU4J6BfM10GotdlN8vxtTnELjLNBoZu8Y1A3kvyoBh6fmiv+sl80cOAyDtHyZOMNtEuL23YPce/YW1veddVXTdYSnxxynKS/PEHk1dqA1uzF/D/aNzz90RfyZ809jvXcdc7mX3tB5+Hv72du9d1EclOC2X50ca5mkr/uXPG6wJbdWNmUksl7Pybpud+rZFHyDWMz5eTYAgT4rioAkSxWpAAt7itSv53OratAkjpTwN+m/aB1phlL1t3AFrTRDZG+pWMD0a4x1mUlT9lqmfmToh9tNpNV167mmujMMskBnx7yZ0F7nhoZpGpTZ/b9x8cqfyd/UfzSt7K3u/V1oShrtS8qWYu5LsKU/p+2wOvc7daib8kG2loQWmoq8tyvBjdruhpqUyk43m4Amkp2DX86vfoWt6F2b9KFsixlq8tWX2Gj5QX4rmr5Kuz0CyBw7/RPQEHX75pZQKagc5JNJAIaXFs/Yet2Ycmtvn62ZL30LhlbAa2lUweEVtOypvirHtj8RiNB+JBcrT980F99yOu2w248zMX+5uuNiPU7709uz4/o3OGVGWzyfWN+VDN/3W+1Ff53taxG6MNeO6iArSLOHQTcbpKOCVjW7DB5sa0extDibtn4uTeLf/yePEdJrH7sRm2sn+NqjmzEIMB3VQy1QBnGIkDgPhY93lsTmLFmbZutzhPQgZr+L9dUr9vtemghC9r4Z2vztmfzpzfZfaJaoJE2dBpFmxEnT6lehy30NNyfX/hGdqjT/vDNzunub/2D5HOhZ2MCdEBvGcmC0DxZtx7RgavLK43l3Fbf+XzsVl630wENFdvN2V9n16l8nWUDixsYOFwv4/Ty08T3B+rW5ci964Mi/b+S1DuefS0owHdVC1YaRQ4FCNxDDbZHL5AvET/6HHhniwv4q8+SalCrLZVJA0vPL+uSreW42u1DV1B1ux9R6YazrDc28/pG24mbOCV7h+9dmnWZyBb0sUV96v0Fs82Eq6w2dEptlbYBvXlKdCpC0W4zhaf+67F8/VL95UPnLF9uaSzn1nEN/u6rqkXNfgmZuW71ed0NnQLSxlbkyf/lWpFXns2fNveoLf7+pgur73Fvf2+2OnB1BxutL8B3VevXYYdfAYF7h38Airr8bG7rojIjn9YU0KkH/VW/qZbdzdq6uj3qDQ3Awpb8RPuFJx/6F+2iMkwLss30YoFwAzO+5GXKguf8yaN3Vaa6zJ/XefT33VDdm/WL1/7xTSXtjuEfur36lmTfvxHRRawaTbZSbbZa7XDd0+ymafdgFdAXnqh01Wn0BCMctzzO7a+zWXJ0ulFNNl1l8pGvD/hFZEDx9KYrOfrEbMCw7bfBwzbQdCzJ62qtft5zWRbZryq6RgGpfQT4rmqfuuzUK2FWmU6t+aKve/oaYitoWoslqXMF/L3Xid96N3HLmIawGSF/vfbZ3nCb2mwpmnfyme9rq+ozlRVEF+lc5SvpbCBTZ4jYIFP9HPb94LO6rkADn0XrRz1rm2px0nDRpereQRvWnUNnaXGrrJG9YIs2eZ1SsJmUXvlrSd62lc5gMl6ctRhr1yJ/9ZmNZaE/9Sdbaku9zdluK65aK7HNcW9dOqx7hw6srK7+ai382ud92GQLMGlgPGzSPG2++Goq8tzVTAdtLHqjcgO4zzGVudX1RsQd+DnxdjOiK8Z6nTEm66dsU23qvPh5sl9mMkNbRXUsSafAtEHFXUd+ZSy58N4IBezfBtHvKhICrSxA4N7KtRdT2a2F0wYP/nVuTKWiLCtAIFvQ5uPfylpLCzm9TVn486+I2/sYSfr7omcLB62mg2D1byzJ+rbbyqOWslZea3FvIPn7btRg+5DsSDdbV4y98vTmVtu0aTRvukDcbodV8pizX2Wl1hefbODstUOyFn+dDcfVdlW3rK+4v+LX+v/k/dV9gzcyR1sFdpiUt3zXe3ms566XZ77PusvYTEU2s0/1BsmmubQbk/yg4NGC+fTiH49+Ndsgr2zzyfsl1V9Wki3eOfgVnreygH1HNfFrXCtfKmVvXwG6yrRv3S73K7Mp7kgIWP9iG4RZaNIFhvyFJ0l6wY/EP3a3+HC2mf4TZYsJPf+EpDdfJLJEW58bSNZanif/0G0NT2FpgXuenLZaiy6w1GwaMFBVB1Ym+x3bUP99/+c/SqoLBvk3Xq17Sgu2swG2Pz1e/J21hYXqHtzkzuV67mcfkfQX/09SvcHxTz8ofvGCAaW1594WgtJVTtNT/l9xQXv/WbwOUB58zgEF4EnLCbj1N2+5MlNgBAYLOP2y84N38hyBUQnoTA59vz5xVG/lTQg0LWDzMc9YW5vKdcpFm+ll4fzOmwHEZoyx7j4r6Z8NQrUuMzrWYLmkFXFuXZ1XtGtRdp1v1r9xWS7XzklaUqDrqK+J5At8teQVUGgEdEgUCAgUJrDmrGyQmA0QIyFQuoANYNRW2Y5O+kuE2N9wK6OWibMizm3918fah71ME/KOViBbPG15rWkQrQIFawcBusq0Qy3Gcg02H/YmldUGYykS5UAAAQQQQCD7buofz4IGAq0sQODeyrUXYdlHtQJlhNdBkRBAAAEE2keA76b2qctOvxIC907/BBR9/evP1mn5dPYHEgIIIIAAAhEIZN9J+t1EQqAdBAjc26EWo7oGp4ulMIVaVFVCYRBAAIEOFqh8J9WbSLSDUbj0lhUgcG/Zqou34G67PYubwzvey6RkCCCAAAKRC9haBfadREKgXQQI3NulJmO6Dl3B0rFwSUw1QlkQQACBjhTIvotsVWUSAm0iQODeJhUZ22W4nQ7UFSn5eMVWL5QHAQQQ6BQB5xKx7yISAu0kQGTVTrUZ07Wssrq4zXaMqUSUBQEEEECggwTcbP0O0u8iEgLtJEDg3k61Gdm1uN0OE9czLrJSURwEEEAAgXYXcN3jxL6DSAi0mwCBe7vVaEzXM22m/kz5/phKRFkQQAABBDpAwO2s3z36HURCoN0ECNzbrUYjux634/vETV8jslJRHAQQQACBdhVwq6wh9t1DQqAdBQjc27FWY7omnYoree/RMZWIsiCAAAIItLFAsrd+5+h3DwmBdhQgcG/HWo3tmjbYUpI5+8VWKsqDAAIIINBmAsmcfUX0O4eEQLsKELi3a81Gdl1u9yPErbVhZKWiOAgggAAC7SLg1pwlbvcj2+VyuA4E6goQuNdlYWfhAkmXJAf9rbgJKxWeNRkigAACCHS2gH23JAd/QUS/a0gItLMAgXs7125s1zZ1VUkO/JwuzMQ/rLFVDeVBAAEEWlXAvlOSAz8rot8xJATaXYDAvd1rOLbrm7W1uP2PFedcbCWjPAgggAACLSZg3yVuv2NFZm3TYiWnuAiMToDAfXRuvGsMAm6LXemHOAY/3ooAAgggUBGwPu1uy13hQKBjBAjcO6aq47pQt8P+ktgCGSQEEEAAAQRGIZDsdKDYdwkJgU4ScF5TJ10w1xqXgL/1D+KvPlP4GMZVL5QGAQQQiFUg6x5jLe0E7bFWEeUqUYDAvURcsm5MwN93vfg//Ex82tfYGzgKAQQQQKAjBWwgqvVpp3tMR1Y/F60CBO58DOIQeOwvkl54kvjFC+IoD6VAAAEEEIhKIJvy0WaPYSBqVPVCYZavAIH78vXmbCMJzH9Z0vN/JP7ZR0Y6itcQQAABBDpMwBbws7VAmPKxwyqeyx0iQOA+hIQdK1RAu8v4q8+S9LZLVmgxODkCCCCAQBwCyZx9KzORsQZIHBVCKVaoAIH7CuXn5MMKPHGvpH88Tfy854c9hBcQQAABBNpXwE1fQ5L3Hi2ywZbte5FcGQJNChC4NwnG4ctRoK9X/K0Xi7/pAvFLlyzHE3MqBBBAAIEVJeC6x4nT6YLdju8T6epeUcXgvAhEKUDgHmW1UKgBAq+/JP7ac8Q/cIvOPJMOeIknCCCAAALtIeBcIm72juJ2O0xk2sz2uCiuAoGCBQjcCwYluxIFXntBW98vFH/fDeK1NZ6EAAIIIND6Ak5b1d0W7xSnCyrJKqu3/gVxBQiUKEDgXiIuWZck8MY88XdcIf5+DeDnzyvpJGSLAAIIIFCmgJs6XdzmGrBvt6fOFjOjzFORNwJtI0Dg3jZV2YkXoov+PjlXW+B1AaeHbhf/1qJOROCaEUAAgZYRcOMmiNtkTmUBpfVna7ldy5SdgiIQgwCBewy1QBnGLmCrrj73mPgn79e/+0R0Lnjfu3Ts+ZIDAggggMCoBVx3j8haG4lbfwtx62mgrvOxC9M6jtqTNyJA4M5noD0FrA/8vOd0Osnnskd5Rbd1kKtYq/ySxf1/i+gr3561z1UhgMByELC+6TJuov5NqPyNnyjOBpXOWFNk+pri9E90Skfp0uCdhAAChQgQuBfCSCYIIIAAAggggAACCJQrkJSbPbkjgAACCCCAAAIIIIBAEQIE7kUokgcCCCCAAAIIIIAAAiULELiXDEz2CCCAAAIIIIAAAggUIUDgXoQieSCAAAIIIIAAAgggULIAgXvJwGSPAAIIIIAAAggggEARAgTuRSiSBwIIIIAAAggggAACJQsQuJcMTPYIIIAAAggggAACCBQhQOBehCJ5IIAAAggggAACCCBQsgCBe8nAZI8AAggggAACCCCAQBECBO5FKJIHAggggAACCCCAAAIlCxC4lwxM9ggggAACCCCAAAIIFCFA4F6EInkggAACCCCAAAIIIFCyAIF7ycBkjwACCCCAAAIIIIBAEQIE7kUokgcCCCCAAAIIIIAAAiULELiXDEz2CCCAAAIIIIAAAggUIUDgXoQieSCAAAIIIIAAAgggULIAgXvJwGSPAAIIIIAAAggggEARAgTuRSiSBwIIIIAAAggggAACJQsQuJcMTPYIIIAAAggggAACCBQhQOBehCJ5IIAAAggggAACCCBQsgCBe8nAZI8AAggggAACCCCAQBECBO5FKJIHAggggAACCCCAAAIlCxC4lwxM9ggggAACCCCAAAIIFCFA4F6EInkggAACCCCAAAIIIFCyAIF7ycBkjwACCCCAAAIIIIBAEQIE7kUokgcCCCCAAAIIIIAAAiULELiXDEz2CCCAAAIIIIAAAggUIUDgXoQieSCAAAIIIIAAAgggULIAgXvJwGSPAAIIIIAAAggggEARAgTuRSiSBwIIIIAAAggggAACJQsQuJcMTPYIIIAAAggggAACCBQhQOBehCJ5IIAAAggggAACCCBQsgCBe8nAZI8AAggggAACCCCAQBECBO5FKJIHAggggAACCCCAAAIlCxC4lwxM9ggggAACCCCAAAIIFCFA4F6EInkggAACCCCAAAIIIFCyAIF7ycBkjwACCCCAAAIIIIBAEQIE7kUokgcCCCCAAAIIIIAAAiULELiXDEz2CCCAAAIIIIAAAggUIUDgXoQieSCAAAIIIIAAAgggULIAgXvJwGSPAAIIIIAAAggggEARAgTuRSiSBwIIIIAAAggggAACJQsQuJcMTPYIIIAAAggggAACCBQhQOBehCJ5IIAAAggggAACCCBQsgCBe8nAZI8AAggggAACCCCAQBEC3UVkQh4IIIBAUwILXhfpXTLwLT3jRSZNHbiv3rO+pSJvvlbvlYH7JkwWGT9x4L56zxbOF5n3nPg3XhVn55+8ssj0NURcnXaNsNzTVtXcXL0ctXyvirz6gngtp5s0RWTKdJFVLM/+49M+kTfm1X/vcHu7x4msNK3yaj0DK6+Vv7tnuBzq77eyvPjXymtWvtU3qH9cvreoc1s+854Xee1FEe/7jVYTsXobnEL3wa/lz63sU61OSAgggED7ChC4t2/dcmUIRCuQXnSy+CfuG1I+16X/JE1eRdysbcTtsJ/IyhrIDU7PPS59p39j8N4hz5M9PixujuZRL73+kqR/OkPkr3PFL14w5Ag3YSVxG24rbpeDK0F8/xFhubuO+8nQG4MXn5T0mrPFP/aXoXlq0O022V7cTgdmNy19Pz1+yDEj7TCT5LAvVQ4ZwcBN1MB3+pri3r6XuNk71b8BCU7kH7hV0gtPqu7p+ugJImttWH0+ZGOs59YbBX/bpeJvuVj8ojcGZO/s5mOdjcVt/W5xW76r+lroXt05aMONmyDJF386aC9PEUAAgfYSqNOk1F4XyNUggEDrCPi+XvEWVN95haQ//SeRh/9cbOEtaLz5Qkl//s/iH7q9btBuJ7Rg3j9wy9DAfKTSvPKspKd/s27QnuWprcb+L9c03yI+0jnrvOYXvSn+mYc1GD9Zy6M3ONaiPkLy91434NXBzwe8uIwnjZzbX3aKpFefOSRot6y9T8U/9aDI808s40y8jAACCHSmAC3unVnvXDUC0Qh0Ha4Bes8EkSWLNGh/Wfz9N4p/+iHxaSrpxT+R5Nh/z1rh6xXYbbajJNvvU+8lkawry8CXvLaGp7f+obozawHffGdxM9fVbijaRca6uLzyjPgHb9MyadedvGtK9R3Db6QakPoli7MDEm3pzlqM195IxLp5vPS03ihonon+k2vdWTTvriP/eUBmXo+zYNuSW2cTSXY9ZMDrYi3pdVLVwG5KFmi3n2cf1huEa8W/tVAD+EfEX3uOuN2PrPNO3WXX2//Lh1ttPfHaZcbPvVncnh8RsV8/lpGaPrf+wpHazYsmZ79A7HKQ/rqydaX+9YbNP3mf3jDdKm6b3bNj6v0n+7yMq9MFKu+GVO9N7EMAAQTaRGDZ/zK3yYVyGQggEKnAWhtXW7a1l7K47faU9NzviX/0rkrwqcGe23yXuoV3U1YRWVvf30h64Qnxt1+aHem0v7jb7xND87U+8TPW0i4tcxrJsXaMthTLc49V8tY+7W7/T9Va1sdPqnRd2TTI024K1t+i9n7dcvNfqT23G4ZBr9deHLgVGpifbLaDuM12kvTX/6ot2F5vGP48bODu770ha+V2SZckexwlfWd+u/Jrw8N3aB47DDxRnWfNnts/81A1F7fD/tqd573V53aT5NbaSNzOB9X21dsKPi/1XmYfAggg0M4CdJVp59rl2hBoUYGsb3Ze9peeyrfG9Jhe8rOsFd8ycTsdMDRoH0vui7V1Ox9sO3O9WtA+ljzH8l7roz5tZiWH114QWfpW3dyq3WK0hV/W31xc/+DO6v6671rGzpHO/ab++tCfLEgnIYAAAgg0J0Dg3pwXRyOAwPIQsFlG8qStwWNO2iXEv/Bklo2bOl3cjgeMOcsBGWg3lmxQqO3Uriqig1RXeKoaajt8vW4vzz0qXvvlW3Ibv73ymLeyP66Da62Lz2jTcOeesWY1R3/nlbod1HP1FTYQQAABBIYTIHAfTob9CCCwwgT83Juq5x6xZdb6lNvUkPX+qjnoxsvPVJ+5dWeX0iLutt0jO4dfukTSM/5N/J8vHzrlZbUUJW/o4FSZ/3LlJKuvr33rh978+Huuz1532jfcbbpjZdtmodFk4wv8fTdk203/Z4RzOxtP0D9FZ6pjGdJzvlubirLREy0Ypr77xxc0mg3HIYAAAq0oQB/3Vqw1yoxAOwnM01ZfG2yYD069+6rqVJHO+q/rtIzDpfTuq0Xsr07qOv40bUqutE3kLcvZYTpV4pBk/dMXDpyaMDvGBriuuvaQw+vtcDu/X9zzj4t//J5K3/wrfiXuhvOyPvvuHXtXBqXWe+NY9+ksMmIt5xpsiwa1NqOMv/2yrH+7Ta+YvOvQoWew2Xvym6N1NtU51HWsgKU13iZO55v3rz4v/t7rdUrO/Sv7h/tvs+fWOdqTAz4r6QU/FLvBsWkz+/TPaTedZIf3idhA1WWk4abRTGyg67s+uIx38zICCCDQ2gIE7q1df5QegZYX6PvlCXWvwW2wpSQHf6Hua03vDBc7yoPUIJP0unOzgDvYlW0mGnC7vT46eHf95zrgNPngP+r85BeJv/WSyiBPm5rxxvPF3XZJNid8Nod7/XePem+qAbbY36BkLdtu72M0GN5m0Cvaov7IHdWpMK0VPExu9o5Zmb2NLdABvSMtyDSac8tG20ly1Nd1Hv3TxevAY0v+yfulT/+czsKT7HtswzdL2Zv5DwIIINBBAgTuHVTZXCoCrSKQ7Pi+YWdCCa/BZj5J3rFPuKu23d/anu2wlUvz1Miqq/mxzT5qlxSbFcVmS/F3/FG7y+ifzd9urcs6FWXy1iJx7z682VybPt6C9uST/znsdJb+nuuqeTqdRUdefrr6XGxwbX+y49zqG+RPG3pc1rmzTLT7TvKhfxF56gFJ9UZHtNU9mwFHp69MdWab5GP/qqugzqh7vi5bhKredJA6doGEAAIItLsAgXu71zDXh0DkAl1Hn1gJxPqWSnrWdyqBrvavtq4nYlMpjpCcBeQ2I8oykltl9doROl/44JQc+DkRPX+WtNtJ35k6d/xYkpY7C+C1+0e2QuiNvxdbXCrVxZ+6tMW54SksGyhDoiuMZlZ6rL//Bklv0HPpDYLNDFN3EK4NOrXBp/2p74xv5ZtDHq07jdMVaOv1kbeDmz734DOsu5kk+meDedM/6Kw/NmWnzWd/6c8lOfz4wUdXnq+t9d3fT77+AexFAAEE2leAwantW7dcGQKtIaB9qmW6/ukiSO49H8rK7LVV3F/1m+LKb+foT9nKnNVZT/p32uJGk7Wft/1N0jnUi0o6m0u2yNBWu1Vz9E8/WN0uZGPiShU/NXS7HCxZC7pm7LV/vdhUkINStsCV9YdvIHnr96/z6Q+bmjz3sPmspi3wh35RhyT0D6K1Aa6D62jYN/MCAggg0DkCBO6dU9dcKQLRC7gt3qmrhupgSU3eVtjUrhSFpJVXqwW0854Tf8+1hWTbaCYD+pGHCy01mkGjx2ngm7z3Y9nR2ew2l54y5J15NxmnNxW2emvXUV8d8pfs/8nq+9KgW011Z72NBs5d723VfcGvJ9kKtIt10C0JAQQQQGCAAIH7AA6eIIDAihZI9j5aW16TrM9zeukval1YxlIwnfLQVgbNk7/mLJEn7s2fjv1xkbZMa/eU4ZKfe0vtJf1lodSkK67mq576J+8beJOic9lng06tADZbj63OajdKg/6c/kLg9GYnS4/dLWLX10ga6dz2/jq/AFSz1bn2xVraNTlbOXbilOpLbCCAAAIIVATo484nAQEE4hKwLjM2uNOmNLTWce2z7XY7rG4Zvc3PPkzruVtzw4Gzk+hUg05nWPEaiFoXkPTs/xCn/cNlvc3ErbqORou6UJG2hvtnH617rhF32iDLC0/OgmGbDScLeq0FefECndryXg2e9dcDTW7cBHFv22rErIp40W5SUhvwqXOb+z+dIc6C9ElTs37vef4DfgXIdwaPbotdMnvrm+/v177uNqVlA2m4c9tb09/9T3Yj5jbbsdI1ylZ37R6XBfTpLRdn4wDsOLfJ9vZQN1lXH+nuGfqadUvafJeh+9mDAAIItJEAgXsbVSaXgkC7CLhdDxU39+bKQNVb/yButk5ZOFOD60EpmzNd502vlxIdVOkGzcFu00v6q84Uf9eVlVlMLOgfJvCvl+dI+3yvDm598Dbx+lcvZQsd7addUCxYLTvpTYMNjrVfFrzdPNic8gd8RgNwDXo1ZVNFbrjdiKWwbkuiN02WstllGgzcpd653//56rn8PJ0jXqfIHC45m0t+z9qvI4OPSy8/dfCu7Hl2U0TgXteGnQgg0D4CdJVpn7rkShBoHwGbg/w9R2bXk83GcunPdNuP/fp0rnWnXXGSI76ctXy7OnO626JFNgVisv0+Yq3ODSUNNpPt9qh08Rj0Bqetw25Tnbby49+qdmEZdEgpT90O+2m//jWzvFO9CZLrz8t+abAdbmNt0a7Xah2WRAf0ujVnZXtsthexed0bTEPO3T/A1c3ZV5zOImPGg5P9SmH985OPfE2kq06L+uA38BwBBBDoQAGnc+cW8G3YgXJcMgIItIfAWwtFXtXZVzSolwk6Q4v9abeLUSfLb8H8bCVYa30W669NGiig3W+ylWoXqpPdQNgKtdZlhoQAAgggMKIAgfuIPLyIAAIIIIAAAggggEAcAkN/r4yjXJQCAQQQQAABBBBAAAEEAgEC9wCDTQQQQAABBBBAAAEEYhUgcI+1ZigXAggggAACCCCAAAKBAIF7gMEmAggggAACCCCAAAKxChC4x1ozlAsBBBBAAAEEEEAAgUCAwD3AYBMBBBBAAAEEEEAAgVgFCNxjrRnKhQACCCCAAAIIIIBAIEDgHmCwiQACCCCAAAIIIIBArAIE7rHWDOVCAAEEEEAAAQQQQCAQIHAPMNhEAAEEEEAAAQQQQCBWAQL3WGuGciGAAAIIIIAAAgggEAgQuAcYbCKAAAIIIIAAAgggEKsAgXusNUO5EEAAAQQQQAABBBAIBAjcAww2EUAAAQQQQAABBBCIVYDAPdaaoVwIIIAAAggggAACCAQCBO4BBpsIIIAAAggggAACCMQqQOAea81QLgQQQAABBBBAAAEEAgEC9wCDTQQQQAABBBBAAAEEYhUgcI+1ZigXAggggAACCCCAAAKBAIF7gMEmAggggAACCCCAAAKxChC4x1ozlAsBBBBAAAEEEEAAgUCAwD3AYBMBBBBAAAEEEEAAgVgFCNxjrRnKhQACCCCAAAIIIIBAIEDgHmCwiQACCCCAAAIIIIBArAIE7rHWDOVCAAEEEEAAAQQQQCAQIHAPMNhEAAEEEEAAAQQQQCBWAQL3WGuGciGAAAIIIIAAAgggEAgQuAcYbCKAAAIIIIAAAgggEKsAgXusNUO5EEAAAQQQQAABBBAIBAjcAww2EUAAAQQQQAABBBCIVYDAPdaaoVwIIIAAAggggAACCAQCBO4BBpsIIIAAAggggAACCMQqQOAea81QLgQQQAABBBBAAAEEAgEC9wCDTQQQQAABBBBAAAEEYhUgcI+1ZigXAggggAACCCCAAAKBAIF7gMEmAggggAACCCCAAAKxChC4x1ozlAsBBBBAAAEEEEAAgUCAwD3AYBMBBBBAAAEEEEAAgVgFCNxjrRnKhQACCCCAAAIIIIBAIEDgHmCwiQACCCCAAAIIIIBArAIE7rHWDOVCAAEEEEAAAQQQQCAQIHAPMNhEAAEEEEAAAQQQQCBWAQL3WGuGciGAAAIIIIAAAgggEAgQuAcYbCKAAAIIIIAAAgggEKsAgXusNUO5EEAAAQQQQAABBBAIBAjcAww2EUAAAQQQQAABBBCIVYDAPdaaoVwIIIAAAggggAACCAQCBO4BBpsIIIAAAggggAACCMQqQOAea81QLgQQQAABBBBAAAEEAgEC9wCDTQQQQAABBBBAAAEEYhUgcI+1ZigXAggggAACCCCAAAKBAIF7gMEmAggggAACCCCAAAKxChC4x1ozlAsBBBBAAAEEEEAAgUCAwD3AYBMBBBBAAAEEEEAAgVgFCNxjrRnKhQACCCCAAAIIIIBAIEDgHmCwiQACCCCAAAIIIIBArAIE7rHWDOVCAAEEEEAAAQQQQCAQIHAPMNhEAAEEEEAAAQQQQCBWAQL3WGuGciGAAAIIIIAAAgggEAgQuAcYbCKAAAIIIIAAAgggEKsAgXusNUO5EEAAAQQQQAABBBAIBAjcAww2EUAAAQQQQAABBBCIVYDAPdaaoVwIIIAAAggggAACCAQCBO4BBpsIIIAAAggggAACCMQqQOAea81QLgQQQAABBBBAAAEEAgEC9wCDTQQQQAABBBBAAAEEYhUgcI+1ZigXAggggAACCCCAAAKBAIF7gMEmAggggAACCCCAAAKxChC4x1ozlAsBBBBAAAEEEEAAgUCAwD3AYBMBBBBAAAEEEEAAgVgFCNxjrRnKhQACCCCAAAIIIIBAIEDgHmCwiQACCCCAAAIIIIBArAIE7rHWDOVCAAEEEEAAAQQQQCAQIHAPMNhEAAEEEEAAAQQQQCBWAQL3WGuGciGAAAIIIIAAAgggEAgQuAcYbCKAAAIIIIAAAgggEKsAgXusNUO5EEAAAQQQQAABBBAIBAjcAww2EUAAAQQQQAABBBCIVYDAPWC7fAEAABvSSURBVNaaoVwIIIAAAggggAACCAQCBO4BBpsIIIAAAggggAACCMQqQOAea81QLgQQQAABBBBAAAEEAgEC9wCDTQQQQAABBBBAAAEEYhUgcI+1ZigXAggggAACCCCAAAKBAIF7gMEmAggggAACCCCAAAKxChC4x1ozlAsBBBBAAAEEEEAAgUCAwD3AYBMBBBBAAAEEEEAAgVgFCNxjrRnKhQACCCCAAAIIIIBAIEDgHmCwiQACCCCAAAIIIIBArAIE7rHWDOVCAAEEEEAAAQQQQCAQIHAPMNhEAAEEEEAAAQQQQCBWAQL3WGuGciGAAAIIIIAAAgggEAgQuAcYbCKAAAIIIIAAAgggEKsAgXusNUO5EEAAAQQQQAABBBAIBAjcAww2EUAAAQQQQAABBBCIVYDAPdaaoVwIIIAAAggggAACCAQCBO4BBpsIIIAAAggggAACCMQqQOAea81QLgQQQAABBBBAAAEEAgEC9wCDTQQQQAABBBBAAAEEYhUgcI+1ZigXAggggAACCCCAAAKBAIF7gMEmAggggAACCCCAAAKxChC4x1ozlAsBBBBAAAEEEEAAgUCAwD3AYBMBBBBAAAEEEEAAgVgFCNxjrRnKhQACCCCAAAIIIIBAIEDgHmCwiQACCCCAAAIIIIBArAIE7rHWDOVCAAEEEEAAAQQQQCAQIHAPMNhEAAEEEEAAAQQQQCBWAQL3WGuGciGAAAIIIIAAAgggEAgQuAcYbCKAAAIIIIAAAgggEKsAgXusNUO5EEAAAQQQQAABBBAIBAjcAww2EUAAAQQQQAABBBCIVYDAPdaaoVwIIIAAAggggAACCAQCBO4BBpsIIIAAAggggAACCMQqQOAea81QLgQQQAABBBBAAAEEAgEC9wCDTQQQQAABBBBAAAEEYhUgcI+1ZigXAggggAACCCCAAAKBAIF7gMEmAggggAACCCCAAAKxChC4x1ozlAsBBBBAAAEEEEAAgUCAwD3AYBMBBBBAAAEEEEAAgVgFCNxjrRnKhQACCCCAAAIIIIBAIEDgHmCwiQACCCCAAAIIIIBArAIE7rHWDOVCAAEEEEAAAQQQQCAQIHAPMNhEAAEEEEAAAQQQQCBWAQL3WGuGciGAAAIIIIAAAgggEAgQuAcYbCKAAAIIIIAAAgggEKsAgXusNUO5EEAAAQQQQAABBBAIBAjcAww2EUAAAQQQQAABBBCIVYDAPdaaoVwIIIAAAggggAACCAQCBO4BBpsIIIAAAggggAACCMQqQOAea81QLgQQQAABBBBAAAEEAgEC9wCDTQQQQAABBBBAAAEEYhUgcI+1ZigXAggggAACCCCAAAKBAIF7gMEmAggggAACCCCAAAKxChC4x1ozlAsBBBBAAAEEEEAAgUCAwD3AYBMBBBBAAAEEEEAAgVgFCNxjrRnKhQACCCCAAAIIIIBAIEDgHmCwiQACCCCAAAIIIIBArAIE7rHWDOVCAAEEEEAAAQQQQCAQIHAPMNhEAAEEEEAAAQQQQCBWAQL3WGuGciGAAAIIIIAAAgggEAgQuAcYbCKAAAIIIIAAAgggEKsAgXusNUO5EEAAAQQQQAABBBAIBAjcAww2EUAAAQQQQAABBBCIVYDAPdaaoVwIIIAAAggggAACCAQCBO4BBpsIIIAAAggggAACCMQqQOAea81QLgQQQAABBBBAAAEEAgEC9wCDTQQQQAABBBBAAAEEYhUgcI+1ZigXAggggAACCCCAAAKBAIF7gMEmAggggAACCCCAAAKxChC4x1ozlAsBBBBAAAEEEEAAgUCAwD3AYBMBBBBAAAEEEEAAgVgFCNxjrRnKhQACCCCAAAIIIIBAIEDgHmCwiQACCCCAAAIIIIBArAIE7rHWDOVCAAEEEEAAAQQQQCAQIHAPMNhEAAEEEEAAAQQQQCBWAQL3WGuGciGAAAIIIIAAAgggEAgQuAcYbCKAAAIIIIAAAgggEKsAgXusNUO5EEAAAQQQQAABBBAIBAjcAww2EUAAAQQQQAABBBCIVYDAPdaaoVwIIIAAAggggAACCAQCBO4BBpsIIIAAAggggAACCMQqQOAea81QLgQQQAABBBBAAAEEAgEC9wCDTQQQQAABBBBAAAEEYhUgcI+1ZigXAggggAACCCCAAAKBAIF7gMEmAggggAACCCCAAAKxChC4x1ozlAsBBBBAAAEEEEAAgUCAwD3AYBMBBBBAAAEEEEAAgVgFCNxjrRnKhQACCCCAAAIIIIBAIEDgHmCwiQACCCCAAAIIIIBArAIE7rHWDOVCAAEEEEAAAQQQQCAQIHAPMNhEAAEEEEAAAQQQQCBWAQL3WGuGciGAAAIIIIAAAgggEAgQuAcYbCKAAAIIIIAAAgggEKsAgXusNUO5EEAAAQQQQAABBBAIBAjcAww2EUAAAQQQQAABBBCIVYDAPdaaoVwIIIAAAggggAACCAQCBO4BBpsIIIAAAggggAACCMQqQOAea81QLgQQQAABBBBAAAEEAgEC9wCDTQQQQAABBBBAAAEEYhUgcI+1ZigXAggggAACCCCAAAKBAIF7gMEmAggggAACCCCAAAKxChC4x1ozlAsBBBBAAAEEEEAAgUCAwD3AYBMBBBBAAAEEEEAAgVgFum+66aZYy0a5EEAAAQQQQAABBBBAoF/ALV682KOBAAIIIIAAAggggAACcQvQVSbu+qF0CCCAAAIIIIAAAghkAgTufBAQQAABBBBAAAEEEGgBAQL3FqgkiogAAggggAACCCCAAIE7nwEEEEAAAQQQQAABBFpAgMC9BSqJIiKAAAIIIIAAAgggQODOZwABBBBAAAEEEEAAgRYQIHBvgUqiiAgggAACCCCAAAIIELjzGUAAAQQQQAABBBBAoAUECNxboJIoIgIIIIAAAggggAACBO58BhBAAAEEEEAAAQQQaAEBAvcWqCSKiAACCCCAAAIIIIAAgTufAQQQQAABBBBAAAEEWkCAwL0FKokiIoAAAggggAACCCBA4M5nAAEEEEAAAQQQQACBFhAgcG+BSqKICCCAAAIIIIAAAggQuPMZQAABBBBAAAEEEECgBQQI3FugkigiAggg0IzAD2/tkp1/2iOvLm7mXRyLAAIIIBC7AIF77DVE+RBAAIEmBH58eyJfurRb7nwukU/8vlt60ybezKEIIIAAAlELuMWLF/uoS0jhEEAAAQQaEjjtrkQ+fUG3Huuqxx+yeZ/86tBe6artqr7GBgIIIBCjwIQTx8dYrKxMi7/+1gotm/0LT0IAAQQQaHGB39yTyGcuHBi0dyVefnd/l3Trb6unfIDgvcWrmOIj0HECE3viaVtetDSO1g8C947734ALRgCBdhP43dxKtxjvnXx6Tp/8+Lau7BJ/eUivfPS33XL2vZXg/WcH9UoSx3dPu1UB14MAAiUIvPqVJSXkOrosY/kVgD7uo6s/3oUAAghEIXDRQ4l8TIPzVIP2Y7brk//er7darkM3T7OW9sR5OeMvXVmLfDztV9VisoEAAggg0KAALe4NQnEYAgggEJvAZY84+dA5NgBVH7fqk5MO6A16t1dKe8SWqb7eK8ee3y2/vKvS8v6jOsfFdm2UZ8UI/PlZJ398NNHBzU7ue9HJvEVO5muX3lUmiqw91ctaU7xsNN3LIXpTuNM6o7sNvOVpJ7+9P5FH5jl59g0nz8x38uoikanarXn6RC9brOZluzW97LVhKtuvNbpzrBg9zopA+QIE7uUbcwYEEECgcIGrHndy+Nk9srTPyaE6APVnBw/fDeaorSvBuw1c/cUdleD9B/vXWuYLLxwZtpTAm9ob4f+0e9VP/9wlT75Wvy/VSwtEXlrg5K7nKpf2g5tF3raKlyP1hvG4nftk2jLGElrw/183dcmZ93TJ46/WP8c8Dd7tRuGReSLnPyBywlUi66/s5ZPv6JPPaBewyeNaipXCIlCKAIF7KaxkigACCJQncLO2WB56Zo+81evkgE375DTty76sWWOO3rYSvH/+om75ye0WvHv5/r595RWSnFtCwAY1/6NOH2oBs6WVxnnZZyNtTV/Xy5arpbL6ZJEpus9ef+p1J399XeSu5xP57X1JFoB/+9rKLzknH7BU9t6ofuv45frL0Gcv6sla1u0ck3TA4aFbpLLtGl7WneZlPf2zlvY3ljh54U2Re15IxFrlL3skyW4kvnplt3z/xi753r69+ssS85uaIalzBQjcO7fuuXIEEGhRgQdecrJQZzjYe6M+OeODvdmsMY1cyifenmoLfa8cd0mPnKUDVr+1V59M5FugEbq2OybVGPtzehN36p2VgcybzEjl+F375IMaUE+o85mw4NoC7UpK9aZPdNBzIj+8pUvmvpTI+88YJ5/avk/+R3/JydvT7RzHXVK5UbT3zZ6Zyud36JMjNPieUrf1XLvJzBTZ422VG8rF+qPQuXqD8B/Xd8lDryTy8fN65JonKl3CGGTdXxU8dJxAnf89W9fgDu2Tt4H+rDZd++KREChSQNc7kIULF0pPT4+stNJKkiSM6y7Sl7yaEzhmu1RmTFoq79U+wOMqcVfDGXxmTqr9lZfK1hqEEbQ3zNZ2B37pskrQbgOXv/ruvixot2lDG00WeNuN4Ee2ScXy+qn+imO/5Izr8vLdfSqB9/GXV/ZZnsdqdxdrMR/fxOfVbiAs/yM10Lfg/ZvXdGU3GhN7tNuN5kVCoBMF2iJwt5UBbcqz8+Z2ZT/BPXzcEplB8N6Jn+fSrnnRokXivZclS5ZIX1+fTJ06leC9NG0ybkTgwE1H32XABqySOlfgxqecnHRrlzgN2k/VblaHayv7aJMF4v+rrey7rJvKp3QMxQ9v6Zb1Vq7kZtvWJesnOg3ph8fQxcVuKP5ltz7ZaIaXo3/XLSdr2Q/bok/Pmf8CMNrS875YBbZdc/SfyVivqahyNXF/XdQpi80nDNotZ/v5+OFX8h/qij0XuXWuwLhxtd91LXCfP3++pCn/sHTuJ4IrR6B1Bb53Q6XZ21rMxxK0hwLW9/ybe/a3tF/WJcfrn6VvanessQTt4TmsrFZmS/k1hK+z3T4CN39yqdgfaahAS7e49+nN9jHnVVra80vbc9bop6jK8+ARgcECkyZNygJ1a3G3lAfvtLwPluI5AgjELmCDSy0dvW2xg5P/bqc++dNjNqi0ErTbGIy/131FJivzz3T2m/waisybvMoVuOGv8TaqvnO91vn1pmUDdxv08jcatJ97X+UfCPu47bZBKuccwR1auf/rdWbuzjmZPHmyLFiwQN56S+c102TB++uvv551m+nqqn0OO1OIq0YAgVYRsHnTLdlUi0Umy/XkA3tl1n9V/j08uYT1AjbQKSgt5deQPeE/LSGw56m1X65jK/Dir1e+12MrV73ytGTgbkG7LSZisyLkadf1UznvQ0u1j3u+h0cEihWw4N0GptqjDVa1ZN1lrNuMtbwTvBfr3Ym5HXTG6P5JPv/DjQ3UKzv/TqyzVr5m/aes8LTyhFqWKzPWrIbBVlXAFtaKJV2hi421Whrdt8QKvEq71/70hd3Z8t15MXbWQTG/16B9JYL2nITHkgTy4N2yD4N3a3mfNm0awXtJ7p2Sbd7FoPnrbSxwLzv/5svNOxBAoNMELjoqnp4RE05cxsphEVZOSwXuFrTbvLO/0mW787TjOqlcoB8CVlTLRXhcHgJ5y7vNNmPJZpzJu810d7fU/1bLg4tzNCnwm8PK+WJrNt8PnUNrSJNVx+EIIIBAqQItE2FY0P6Fi7vlFF2uO0/br53KhRq011/IIT+KRwTKEbABq9YCb/O7W7LgPe82Q/Bejnmn5PqB2eX8lFxWvp1SL1wnAgggsKIFWqZzj62+ZiPJ8/T2tVKxn1umtt6vHPkl8NgGAhMnThQL4POUB+9Ll5bTYpqfh0cEEEAAAQQQ6DyBlgjc/+HSLvnxbbWgfZs1Urn4I0slHATTeVXHFcciYMG7dZ3JE8F7LsEjAggggAACCBQpEH3g/k+6iMNJt9Z69Gy1eiqXfHSprBKMXC8ShLwQGI3AhAkTsukiw/dat5l83vdwP9sIIIAAAggggMBoBKIO3L9yRZf8ry6ZnKctVqsE7dOZYion4TEigfHjxw8J3t944w2C94jqiKIggAACCCDQygLRBu5fvbJL/uvGWtA+e2Yql35sqaxa607cyu6UvU0FLHifMmXKgKuz4D1ftGnACzxBAAEEEEAAAQSaEIgycD/hqi757g21oH3TVStB+0yC9iaqlkNXlMC4ceOGBO9vvvlmdd73FVUuzosAAggggAACrS0QXeD+jWu65N+vqwXtG89I5TJtaV+9NvavtcUpfUcIWPBuq6mGacGCBZLP+x7uZxsBBBBAAAEEEGhEIKrA/ZsatH/rmlrQvuH0StC+xuRGLoVjEIhLoKenJwveba73PNmc7wTvuQaPCCCAAAIIINCMQDSB+79f1yXfDIL2WdN91tK+1sDuws1cG8cisMIFwqA9L4xNF0lCAAEEEEAAAQSaFYgmcH/9rYFFn9jtZSKrbQ9E4VlLCfT29mYrqYaB+uAFm1rqgigsAggggAACCKxQgWgC92/v1Sdf2LG3inHfi4ns+8sembeouosNBFpGwFZOtXncw6DdVlgNV1ltmYuhoAgggAACCCAQhUA0gbtp/Oc+ffK3QfB+zwuJ7P/rHnl1cRRWFAKBhgTqBe22sqq1tpMQQAABBBBAAIHRCkQVuNtFfFeD98/t0Fe9nrueS+R9GrwP7kpTPYANBCISsJVSraU9TJMnTxZbWZWEAAIIIIAAAgiMRSC6wN0u5vv79sqn59SC9zuerQTv8wf1gx/LhfNeBIoWsKDdFlsKkwXttigTCQEEEEAAAQQQGKtAlIG7XdR/79crx76jFrzf/kwiB57eI28sGesl834EihewlVEHB+22gipBe/HW5IgAAggggECnCkQbuNvM1//7vl45Zrta8H7L04m8X4P3NwneO/XzGuV1W9BuK6OGyYJ2W4SJhMCKEDhiyz6xPxICCCCAQHsJ1FY7ivC6LHg/+cBe6dNpr391V1dWwpueSuTg3/TI+R9eKisxXWSEtdZZRVq8eLHYiqhhshVTbfElEgIrSuC0Q2ozdK2oMnBeBBBAAIHiBaJtcc8v1YL3H2vw/uGta61H1z+ZyCEavC9cmh/FIwLLX8BWQA2DdltsiaB9+dcDZ0QAAQQQQKBTBKIP3K0iEo3ef3ZQ74Cffq95IpFDz+yRRTQsdcpnNarrtKB94cKF1TIRtFcp2EAAAQQQQACBkgSi7ioTXrMF77/4QKXbzLn3VbrNXPV4Ioed1SPnHrFUJrTMlYRXxXYrCljAboF7nvKgvbubD2FuwiMCCCCAAAKtJmDTj8eeWirS6NLg/VQL3lOR8+ZWgvcrHk3k8LO75ZwjemV8ZVfs5pSvhQWsa4z1a89TkiRZ95iuLj58uQmPCCCAAAIItKLAlY/F3xGlpQJ3+xB0q+mvDtU+7+eKXPBAJVi6/JEuOfJskbMO75VxxE+t+P9K9GX23mddYwjao68qCogAAggggMCoBP708finLWy5wN1qwoL30z/YmwXrFz9UidQvebhLPnSOyJkavPfEf8M0qg8Ub1pxAtY1hqB9xflzZgQQQAABBMoW2GVdncYw8tSyIa4F5785rFf23bg224wF8R8/ryXvRSL/mFA8WxU1T9YtZtq0aUL3mFyERwQQQAABBBBYHgItG7gbjnWLse4xe2+knd77kw1cffAVm0SShEBxAhMnThTrz26LKtmUj7ZNQgABBBBAAAEElqdAyzdP24DUsw9fqgNUe+TyRxKZPtHLulPj/6ljeVYy5xq7wPjx48X+SAgggEAnCbyhPzba2il3P+/k4XlOXtFZcJf0OZk5ycva+l2756xU3r2Bz7qwjuTSq+1r1zzhxAb/PTPfyUsLnTa+eZkxSWTj6V62WcPLruunMoUFp0di5DUEpOUDd6tDmwryAl1J9dZnnGy6qpdJ8c/mw0cPAQQQQACBKAVe0MWgL3ow0QkgErFply1QHy59/0aRVTWI/8aevXLMdrVfv/PjrRnt1DsT+dqV3fKyBusjJQvk3/O2VN6/WSoHbJrK6iuNdDSvIdCZAm0RuOdVt8PatLTnFjwigAACCCDQjMBNTzn5n5u7soA99bUge91pXt65Xiobasv4ait5maiRw2Ovagu8dku9TlvjX1zg5LMX9sj5D/TJKTplc56W6BC0o87tlkt18ghL9t53aav6xjO8zFrFZwso2nsf1Zb8G/6ayFOvO7lMZ4mzvy9c7LMA/u936pOdW2DAYH7NPCJQtkBbBe5lY5E/AggggAAC7SZwvrasf/eGLrntmdrYnXeslcoRW6Vy0KZ9sv7Kw1/xm9qV5jvXd8kPNOC3AP3o39WOPfp33dqFtUvGd3uxAPz4Xftk8ghdYZ58TeT8B7vkrHsS+fOzifxe12uxv+3XTuVL7+yTg7UlnoRApwsQuHf6J4DrRwABBBDoSIFrn0jkezd2yR0aJFuaoAH2Uduk8vkd+mTzmY39gm2B+Df26NN+7qkceLqNNau0rlt+tu2cl98euVT2mrXs/OwG4e927Mv+7n/JyY9u7ZLT707kdr2hOPLsRN6uNxP/uEttJjk7BwmBThOo3V532pVzvQgggAACCHSwwFHn9mRB+6QeL1/cpVcePm6J/Oh9vQ0H7SGdBeZf1hb1wcn2NRK0D36f3ThYWaxM/6BlszLaDYaVmYRAJwvQ4t7Jtc+1I4AAAgh0rIC1hn9cB5R+ffdeWWPy2Bm+tnufnHZXlzz3RqV//JpTvNi+saSZOuvMv+2lrfDa1ebEq7vlFB3o6oP+92PJm/euGIFVvj1Cf6kVU6SWOiuBe0tVF4VFAIFOEFhUG9/XCZfLNS5ngaO26ZOndSDod/bulW11GsaiUpfG6x+YncpJ2sXFkm3bviKS3VicdECvfGp7J1++vFvW0QGzpNYUWLS0oA9Fa17+mEvtdBl3Pv1jZiQDBBBAYOwCE06Mc62AxV9/a+wXRw4dIXD9X53sdWqlRfWKY5bIrusRYnRExXORy02AFvflRs2JEEAAAQQQaG+BXXTqxjk6C4wl2yYhgECxArS4F+tJbggggAACCCCAAAIIlCLArDKlsJIpAggggAACCCCAAALFChC4F+tJbggggAACCCCAAAIIlCJA4F4KK5kigAACCCCAAAIIIFCsAIF7sZ7khgACCCCAAAIIIIBAKQIE7qWwkikCCCCAAAIIIIAAAsUKELgX60luCCCAAAIIIIAAAgiUIkDgXgormSKAAAIIIIAAAgggUKwAgXuxnuSGAAIIIIAAAggggEApAgTupbCSKQIIIIAAAggggAACxQoQuBfrSW4IIIAAAggggAACCJQiQOBeCiuZIoAAAggggAACCCBQrACBe7Ge5IYAAggggAACCCCAQCkCBO6lsJIpAggggAACCCCAAALFChC4F+tJbggggAACCCCAAAIIlCJA4F4KK5kigAACCCCAAAIIIFCswP8Hz7TLWY4o038AAAAASUVORK5CYII=;" vertex="1" parent="1">
                    <mxGeometry width="618.44" height="1100" as="geometry"/>
                </mxCell>
                <mxCell id="3" value="List" style="swimlane;fontStyle=0;childLayout=stackLayout;horizontal=1;startSize=26;horizontalStack=0;resizeParent=1;resizeParentMax=0;resizeLast=0;collapsible=1;marginBottom=0;" vertex="1" parent="1">
                    <mxGeometry x="670" y="340" width="140" height="78" as="geometry">
                        <mxRectangle x="670" y="340" width="50" height="26" as="alternateBounds"/>
                    </mxGeometry>
                </mxCell>
                <mxCell id="4" value="user" style="text;strokeColor=none;fillColor=none;align=left;verticalAlign=top;spacingLeft=4;spacingRight=4;overflow=hidden;rotatable=0;points=[[0,0.5],[1,0.5]];portConstraint=eastwest;" vertex="1" parent="3">
                    <mxGeometry y="26" width="140" height="26" as="geometry"/>
                </mxCell>
                <mxCell id="5" value="email" style="text;strokeColor=none;fillColor=none;align=left;verticalAlign=top;spacingLeft=4;spacingRight=4;overflow=hidden;rotatable=0;points=[[0,0.5],[1,0.5]];portConstraint=eastwest;" vertex="1" parent="3">
                    <mxGeometry y="52" width="140" height="26" as="geometry"/>
                </mxCell>
                <mxCell id="7" value="" style="shape=flexArrow;endArrow=classic;html=1;entryX=-0.007;entryY=0.923;entryDx=0;entryDy=0;fillColor=#a20025;strokeColor=#6F0000;entryPerimeter=0;" edge="1" parent="1" target="4">
                    <mxGeometry width="50" height="50" relative="1" as="geometry">
                        <mxPoint x="610" y="412" as="sourcePoint"/>
                        <mxPoint x="450" y="270" as="targetPoint"/>
                    </mxGeometry>
                </mxCell>
                <mxCell id="8" value="List" style="swimlane;fontStyle=0;childLayout=stackLayout;horizontal=1;startSize=26;horizontalStack=0;resizeParent=1;resizeParentMax=0;resizeLast=0;collapsible=1;marginBottom=0;" vertex="1" parent="1">
                    <mxGeometry x="670" y="511" width="140" height="52" as="geometry">
                        <mxRectangle x="670" y="340" width="50" height="26" as="alternateBounds"/>
                    </mxGeometry>
                </mxCell>
                <mxCell id="9" value="password" style="text;strokeColor=none;fillColor=none;align=left;verticalAlign=top;spacingLeft=4;spacingRight=4;overflow=hidden;rotatable=0;points=[[0,0.5],[1,0.5]];portConstraint=eastwest;" vertex="1" parent="8">
                    <mxGeometry y="26" width="140" height="26" as="geometry"/>
                </mxCell>
                <mxCell id="11" value="" style="shape=flexArrow;endArrow=classic;html=1;entryX=0;entryY=0.5;entryDx=0;entryDy=0;fillColor=#a20025;strokeColor=#6F0000;" edge="1" parent="1" source="2" target="9">
                    <mxGeometry width="50" height="50" relative="1" as="geometry">
                        <mxPoint x="628.44" y="435.72232385387224" as="sourcePoint"/>
                        <mxPoint x="680" y="415" as="targetPoint"/>
                        <Array as="points"/>
                    </mxGeometry>
                </mxCell>
                <mxCell id="12" value="Si el usuario existe inicia sesion" style="text;html=1;align=center;verticalAlign=middle;whiteSpace=wrap;rounded=0;fontColor=#000000;labelBorderColor=#000000;" vertex="1" parent="1">
                    <mxGeometry x="390" y="670" width="190" height="90" as="geometry"/>
                </mxCell>
                <mxCell id="13" value="Opcion para registrarse" style="text;html=1;align=center;verticalAlign=middle;whiteSpace=wrap;rounded=0;fontColor=#000000;labelBorderColor=#000000;" vertex="1" parent="1">
                    <mxGeometry x="390" y="820" width="190" height="90" as="geometry"/>
                </mxCell>
                <mxCell id="16" value="" style="shape=flexArrow;endArrow=classic;html=1;entryX=0;entryY=0.5;entryDx=0;entryDy=0;fillColor=#a20025;strokeColor=#6F0000;" edge="1" parent="1">
                    <mxGeometry width="50" height="50" relative="1" as="geometry">
                        <mxPoint x="370.00000000000006" y="870" as="sourcePoint"/>
                        <mxPoint x="421.56" y="870" as="targetPoint"/>
                        <Array as="points"/>
                    </mxGeometry>
                </mxCell>
                <mxCell id="17" value="Se define que es mejor guardar esta info en una tabla de usuarios general junto con la informacion requerida en la pagina de registro" style="text;html=1;align=center;verticalAlign=middle;whiteSpace=wrap;rounded=0;labelBorderColor=#FFFFFF;fontColor=#FFFFFF;" vertex="1" parent="1">
                    <mxGeometry x="645" y="240" width="190" height="90" as="geometry"/>
                </mxCell>
            </root>
        </mxGraphModel>
    </diagram>
</mxfile>